<svg width="375" height="39" viewBox="0 0 375 39" fill="none" xmlns="http://www.w3.org/2000/svg">
<g style="mix-blend-mode:exclusion">
<path d="M171.8 30.992V23.348H198.666V30.992H171.8ZM191.56 0L209.609 39H199.495L183.936 3.952H186.893L171.386 39H161.272L179.321 0H191.56Z" fill="#F1F1F1"/>
<path d="M143.79 0C148.354 0 152.33 0.814667 155.719 2.444C159.142 4.07334 161.804 6.344 163.706 9.256C165.642 12.168 166.61 15.5827 166.61 19.5C166.61 23.3827 165.642 26.7973 163.706 29.744C161.804 32.656 159.142 34.9267 155.719 36.556C152.33 38.1853 148.354 39 143.79 39H124.964V0H143.79ZM134.403 35.152L129.735 30.576H144.464C147.023 30.576 149.236 30.1253 151.103 29.224C153.005 28.288 154.457 26.988 155.46 25.324C156.497 23.66 157.015 21.7187 157.015 19.5C157.015 17.2467 156.497 15.3053 155.46 13.676C154.457 12.012 153.005 10.7293 151.103 9.828C149.236 8.892 147.023 8.424 144.464 8.424H129.735L134.403 3.848V35.152Z" fill="#F1F1F1"/>
<path d="M116.409 32.604L113.297 33.124V0H122.477V39H110.548L86.4316 5.876L89.5434 5.356V39H80.3636V0H92.6552L116.409 32.604Z" fill="#F1F1F1"/>
<path d="M43.7226 30.992V23.348H70.5878V30.992H43.7226ZM63.4825 0L81.531 39H71.4176L55.8586 3.952H58.8148L43.3077 39H33.1943L51.2428 0H63.4825Z" fill="#F1F1F1"/>
<path d="M18.2559 39V20.124H27.695V39H18.2559ZM0 0H10.4764L25.1537 18.668H20.7453L35.4227 0H45.8991L26.0354 25.272L19.9155 25.376L0 0Z" fill="#F1F1F1"/>
<path d="M213.693 39C212.789 39 211.963 38.781 211.215 38.3429C210.498 37.9049 209.922 37.326 209.485 36.6063C209.049 35.8554 208.831 35.0262 208.831 34.1188C208.831 33.1801 209.049 32.3509 209.485 31.6312C209.922 30.8803 210.498 30.3014 211.215 29.8946C211.963 29.4566 212.789 29.2375 213.693 29.2375C214.597 29.2375 215.407 29.4566 216.124 29.8946C216.872 30.3014 217.464 30.8803 217.901 31.6312C218.337 32.3509 218.555 33.1801 218.555 34.1188C218.555 35.0262 218.337 35.8554 217.901 36.6063C217.464 37.326 216.872 37.9049 216.124 38.3429C215.407 38.781 214.597 39 213.693 39Z" fill="#F1F1F1"/>
<path d="M360.376 0.796456C363.427 0.796456 366.03 1.32843 368.185 2.39236C370.374 3.42305 372.049 4.88597 373.209 6.78111C374.403 8.643 375 10.8208 375 13.3144C375 15.8412 374.403 18.0522 373.209 19.9474C372.049 21.8092 370.374 23.2722 368.185 24.3361C366.03 25.3668 363.427 25.8821 360.376 25.8821H344.011V18.4512H359.928C361.785 18.4512 363.228 18.0023 364.256 17.1046C365.317 16.1737 365.848 14.9103 365.848 13.3144C365.848 11.7185 365.317 10.4716 364.256 9.57395C363.228 8.67625 361.785 8.2274 359.928 8.2274H344.857L348.936 3.9384V38.2006H339.833V0.796456H360.376Z" fill="#F1F1F1"/>
<path d="M317.3 39C312.923 39 309.093 38.1854 305.81 36.5563C302.527 34.9271 299.957 32.6496 298.1 29.7238C296.276 26.798 295.364 23.39 295.364 19.5C295.364 15.61 296.276 12.202 298.1 9.27621C299.957 6.35038 302.527 4.07289 305.81 2.44374C309.093 0.814578 312.923 0 317.3 0C321.644 0 325.458 0.814578 328.741 2.44374C332.057 4.07289 334.627 6.35038 336.45 9.27621C338.274 12.202 339.186 15.61 339.186 19.5C339.186 23.39 338.274 26.798 336.45 29.7238C334.627 32.6496 332.057 34.9271 328.741 36.5563C325.458 38.1854 321.644 39 317.3 39ZM317.3 30.8708C319.92 30.8708 322.175 30.422 324.065 29.5243C325.955 28.5933 327.414 27.2801 328.442 25.5844C329.503 23.8555 330.034 21.8274 330.034 19.5C330.034 17.1726 329.503 15.1611 328.442 13.4655C327.414 11.7366 325.955 10.4233 324.065 9.52557C322.175 8.59463 319.92 8.12916 317.3 8.12916C314.681 8.12916 312.409 8.59463 310.486 9.52557C308.596 10.4233 307.136 11.7366 306.108 13.4655C305.081 15.1611 304.567 17.1726 304.567 19.5C304.567 21.8274 305.081 23.8555 306.108 25.5844C307.136 27.2801 308.596 28.5933 310.486 29.5243C312.409 30.422 314.681 30.8708 317.3 30.8708Z" fill="#F1F1F1"/>
<path d="M255.934 0.796456H265.037V38.2006H255.934V0.796456ZM285.68 0.796456H294.732V38.2006H285.68V0.796456ZM260.958 15.2594H289.559V23.2389H260.958V15.2594Z" fill="#F1F1F1"/>
<path d="M217.777 25.9834H226.979C227.145 27.1803 227.659 28.2276 228.521 29.1253C229.417 29.9898 230.594 30.6714 232.053 31.1701C233.545 31.6355 235.27 31.8683 237.226 31.8683C240.045 31.8683 242.25 31.4693 243.842 30.6714C245.466 29.8734 246.279 28.7596 246.279 27.3299C246.279 26.2327 245.815 25.3849 244.886 24.7864C243.958 24.1547 242.217 23.7059 239.663 23.4399L232.401 22.6419C227.427 22.1432 223.829 20.9962 221.607 19.2008C219.419 17.4054 218.324 14.9284 218.324 11.7698C218.324 9.27621 219.054 7.16496 220.513 5.43606C221.972 3.67391 224.028 2.32737 226.681 1.39642C229.334 0.465473 232.451 0 236.032 0C239.547 0 242.648 0.515346 245.334 1.54604C248.053 2.57673 250.208 4.00639 251.8 5.83504C253.425 7.63043 254.32 9.75831 254.486 12.2187H245.234C245.102 11.188 244.637 10.3069 243.842 9.57545C243.079 8.81074 242.018 8.21228 240.658 7.78005C239.299 7.34783 237.69 7.13171 235.833 7.13171C233.28 7.13171 231.241 7.51407 229.715 8.27877C228.223 9.01023 227.477 10.0575 227.477 11.4207C227.477 12.4514 227.908 13.266 228.77 13.8644C229.665 14.4297 231.274 14.8619 233.595 15.1611L241.305 16.009C244.753 16.3747 247.506 16.9731 249.562 17.8043C251.651 18.6023 253.143 19.6995 254.038 21.0959C254.967 22.4591 255.431 24.2046 255.431 26.3325C255.431 28.8593 254.668 31.087 253.143 33.0153C251.618 34.9105 249.479 36.39 246.727 37.454C243.974 38.4847 240.758 39 237.077 39C233.296 39 229.98 38.4514 227.129 37.3542C224.277 36.257 222.022 34.7442 220.364 32.8159C218.739 30.8542 217.877 28.5767 217.777 25.9834Z" fill="#F1F1F1"/>
</g>
</svg>
