<svg width="24" height="24" viewBox="0 0 24 24" fill="none" xmlns="http://www.w3.org/2000/svg">
<path d="M12.0001 5.30063C16.0163 2.31992 19.8032 1.14085 21.3311 2.66879C22.8589 4.1969 21.6792 7.98358 18.6983 11.9998C21.6793 16.0163 22.8592 19.8029 21.3311 21.3309C19.803 22.859 16.0157 21.6794 11.9991 18.6981C7.98301 21.6787 4.19709 22.8586 2.66903 21.3309C1.14104 19.8029 2.31899 16.0152 5.29989 11.9989C2.3197 7.98301 1.14124 4.19663 2.66903 2.66879C4.19699 1.14083 7.9838 2.31983 12.0001 5.30063ZM6.50692 17.6883C6.46969 17.8228 6.59642 17.946 6.73544 17.91L9.98642 17.0672C9.45812 16.6019 8.93121 16.1087 8.41122 15.5887C8.05632 15.2338 7.71461 14.8749 7.38485 14.5155L6.50692 17.6883ZM17.0675 14.0116C16.6018 14.5402 16.1093 15.0684 15.589 15.5887C15.2342 15.9435 14.875 16.2845 14.5157 16.6141L17.6886 17.493C17.823 17.5302 17.9461 17.4035 17.9102 17.2645L17.0675 14.0116ZM10.5323 16.9266L10.6309 16.9012L10.3858 16.6639L10.5323 16.9266ZM8.74911 9.59555L7.01571 10.6307L8.87802 13.9647L10.6309 16.9012L16.13 13.8289L16.9015 13.369L13.3731 7.05258C13.3671 7.04182 13.3573 7.03425 13.3497 7.02524L8.74911 9.59555ZM16.839 13.4325L16.9073 13.3944L16.9015 13.369L16.839 13.4325ZM7.05282 10.5438C7.03345 10.5546 7.01768 10.5692 7.00399 10.5848L7.01571 10.6307L7.15438 10.4862L7.05282 10.5438ZM6.2286 6.50668C6.09417 6.46945 5.9711 6.59624 6.00692 6.7352L6.86727 10.0604C7.35168 9.50717 7.86686 8.95534 8.41122 8.41098C8.75943 8.06277 9.11037 7.72621 9.46298 7.40219L6.2286 6.50668ZM17.2647 6.00668L13.9386 6.86703C14.492 7.35158 15.0444 7.86645 15.589 8.41098C15.937 8.75903 16.2729 9.1103 16.5968 9.46274L17.4933 6.22836C17.5305 6.09399 17.4036 5.97103 17.2647 6.00668Z" fill="#FF3C02"/>
</svg>
