<svg width="24" height="24" viewBox="0 0 24 24" fill="none" xmlns="http://www.w3.org/2000/svg">
<path d="M11.8691 17.3477C11.9198 17.2222 12.0985 17.2228 12.1484 17.3486L13.1406 19.8496C13.2134 20.035 13.25 20.231 13.25 20.4375C13.25 20.5807 13.235 20.7191 13.2051 20.8525C13.1751 20.986 13.1328 21.111 13.0781 21.2266C13.0235 21.342 12.9582 21.448 12.8828 21.5439C12.8074 21.6398 12.7232 21.7214 12.6309 21.7881C12.5385 21.8547 12.4387 21.9069 12.332 21.9443C12.2253 21.9817 12.1145 22 12 22C11.8855 22 11.7747 21.9817 11.668 21.9443C11.5612 21.9069 11.4616 21.8535 11.3691 21.7852C11.2767 21.7168 11.1921 21.6354 11.1152 21.541C11.0385 21.4467 10.9733 21.342 10.9199 21.2266C10.8665 21.111 10.8249 20.986 10.7949 20.8525C10.765 20.7191 10.75 20.5807 10.75 20.4375C10.75 20.2292 10.7878 20.0322 10.8633 19.8467L11.8691 17.3477ZM9.21289 16.5645C9.31949 16.481 9.47367 16.5702 9.4541 16.7041L9.06348 19.3662C9.03386 19.5631 8.96739 19.7509 8.86426 19.9297C8.79268 20.0537 8.70979 20.166 8.61719 20.2666C8.52452 20.3672 8.42545 20.4546 8.32031 20.5273C8.21539 20.5999 8.10632 20.6588 7.99316 20.7041C7.87975 20.7495 7.76577 20.7785 7.65234 20.79C7.53899 20.8016 7.42654 20.7963 7.31543 20.7754C7.20433 20.7544 7.09917 20.7155 7 20.6582C6.90077 20.6009 6.81398 20.5292 6.74023 20.4434C6.66673 20.3578 6.60732 20.2623 6.56152 20.1572C6.51564 20.0518 6.48222 19.9385 6.46289 19.8184C6.44359 19.6983 6.43966 19.5749 6.45117 19.4482C6.46272 19.3215 6.48948 19.1921 6.53027 19.0615C6.57106 18.9311 6.62671 18.8036 6.69824 18.6797C6.80239 18.4993 6.93367 18.3475 7.0918 18.2246L9.21289 16.5645ZM14.5459 16.7041C14.5263 16.5702 14.6805 16.481 14.7871 16.5645L16.9082 18.2246C17.0663 18.3475 17.1976 18.4993 17.3018 18.6797C17.3733 18.8036 17.4289 18.9311 17.4697 19.0615C17.5105 19.1921 17.5373 19.3215 17.5488 19.4482C17.5603 19.5749 17.5564 19.6983 17.5371 19.8184C17.5178 19.9385 17.4844 20.0518 17.4385 20.1572C17.3927 20.2623 17.3333 20.3578 17.2598 20.4434C17.186 20.5292 17.0992 20.6009 17 20.6582C16.9008 20.7155 16.7957 20.7544 16.6846 20.7754C16.5735 20.7963 16.461 20.8016 16.3477 20.79C16.2342 20.7785 16.1203 20.7495 16.0068 20.7041C15.8937 20.6588 15.7846 20.5999 15.6797 20.5273C15.5745 20.4546 15.4755 20.3672 15.3828 20.2666C15.2902 20.166 15.2073 20.0537 15.1357 19.9297C15.0326 19.7509 14.9661 19.5631 14.9365 19.3662L14.5459 16.7041ZM7.30371 14.5605C7.43742 14.5419 7.52576 14.6957 7.44238 14.8018L5.77246 16.9121C5.64835 17.0678 5.49712 17.1975 5.31836 17.3008C5.19442 17.3723 5.06697 17.4289 4.93652 17.4697C4.80597 17.5105 4.67625 17.5355 4.54883 17.5459C4.42157 17.5563 4.29753 17.5535 4.17676 17.5361C4.05583 17.5187 3.94288 17.4861 3.83887 17.4395C3.735 17.3928 3.64039 17.3324 3.55469 17.2588C3.46888 17.185 3.39714 17.0983 3.33984 16.999C3.28266 16.8999 3.2436 16.7947 3.22266 16.6836C3.20173 16.5725 3.197 16.4599 3.20996 16.3457C3.22293 16.2315 3.2516 16.1176 3.29492 16.0039C3.33826 15.8902 3.39634 15.7808 3.46973 15.6768C3.54309 15.5728 3.63088 15.4745 3.73145 15.3818C3.83195 15.2893 3.94448 15.2073 4.06836 15.1357C4.24869 15.0317 4.43838 14.9658 4.63672 14.9385L7.30371 14.5605ZM19.3633 14.9385C19.5616 14.9658 19.7513 15.0317 19.9316 15.1357C20.0555 15.2073 20.168 15.2893 20.2686 15.3818C20.3691 15.4745 20.4569 15.5728 20.5303 15.6768C20.6037 15.7808 20.6617 15.8902 20.7051 16.0039C20.7484 16.1176 20.7771 16.2315 20.79 16.3457C20.803 16.4599 20.7983 16.5725 20.7773 16.6836C20.7564 16.7947 20.7173 16.8999 20.6602 16.999C20.6029 17.0983 20.5311 17.185 20.4453 17.2588C20.3596 17.3324 20.265 17.3928 20.1611 17.4395C20.0571 17.4861 19.9442 17.5187 19.8232 17.5361C19.7025 17.5535 19.5784 17.5563 19.4512 17.5459C19.3237 17.5355 19.194 17.5105 19.0635 17.4697C18.933 17.4289 18.8056 17.3723 18.6816 17.3008C18.5029 17.1975 18.3517 17.0678 18.2275 16.9121L16.5576 14.8018C16.4742 14.6957 16.5626 14.5419 16.6963 14.5605L19.3633 14.9385ZM15.1748 11.3135C15.2805 11.2154 15.4412 11.3001 15.4043 11.4395C15.1553 12.3794 14.3351 14.5 12 14.5C9.66486 14.5 8.84467 12.3794 8.5957 11.4395C8.5588 11.3001 8.71954 11.2154 8.8252 11.3135C11.0684 13.3954 12.9316 13.3954 15.1748 11.3135ZM3.5625 10.75C3.77083 10.75 3.96777 10.7878 4.15332 10.8633L6.65234 11.8691C6.77783 11.9198 6.7772 12.0985 6.65137 12.1484L4.15039 13.1406C3.96497 13.2134 3.76905 13.25 3.5625 13.25C3.41927 13.25 3.28092 13.235 3.14746 13.2051C3.014 13.1751 2.889 13.1328 2.77344 13.0781C2.65803 13.0235 2.55197 12.9582 2.45605 12.8828C2.36016 12.8074 2.27858 12.7232 2.21191 12.6309C2.14526 12.5385 2.09307 12.4387 2.05566 12.332C2.01826 12.2253 2 12.1145 2 12C2 11.8855 2.01826 11.7747 2.05566 11.668C2.0931 11.5612 2.14648 11.4616 2.21484 11.3691C2.2832 11.2767 2.36458 11.1921 2.45898 11.1152C2.55328 11.0385 2.65804 10.9733 2.77344 10.9199C2.889 10.8665 3.014 10.8249 3.14746 10.7949C3.28092 10.765 3.41927 10.75 3.5625 10.75ZM20.4375 10.75C20.5807 10.75 20.7191 10.765 20.8525 10.7949C20.986 10.8249 21.111 10.8665 21.2266 10.9199C21.342 10.9733 21.4467 11.0385 21.541 11.1152C21.6354 11.1921 21.7168 11.2767 21.7852 11.3691C21.8535 11.4616 21.9069 11.5612 21.9443 11.668C21.9817 11.7747 22 11.8855 22 12C22 12.1145 21.9817 12.2253 21.9443 12.332C21.9069 12.4387 21.8547 12.5385 21.7881 12.6309C21.7214 12.7232 21.6398 12.8074 21.5439 12.8828C21.448 12.9582 21.342 13.0235 21.2266 13.0781C21.111 13.1328 20.986 13.1751 20.8525 13.2051C20.7191 13.235 20.5807 13.25 20.4375 13.25C20.231 13.25 20.035 13.2134 19.8496 13.1406L17.3486 12.1484C17.2228 12.0985 17.2222 11.9198 17.3477 11.8691L19.8467 10.8633C20.0322 10.7878 20.2292 10.75 20.4375 10.75ZM4.5498 6.45117C4.67658 6.46272 4.80597 6.4885 4.93652 6.5293C5.06696 6.57008 5.19442 6.62669 5.31836 6.69824C5.49864 6.80238 5.65058 6.93371 5.77344 7.0918L7.43359 9.21289C7.51692 9.3195 7.42787 9.47275 7.29395 9.45312L4.63184 9.0625C4.43494 9.03286 4.24716 8.96647 4.06836 8.86328C3.94449 8.79176 3.83195 8.7097 3.73145 8.61719C3.63084 8.52452 3.54344 8.42545 3.4707 8.32031C3.39797 8.21518 3.33935 8.1056 3.29395 7.99219C3.24859 7.87887 3.21959 7.76567 3.20801 7.65234C3.19645 7.539 3.20173 7.42653 3.22266 7.31543C3.24362 7.20425 3.28255 7.09826 3.33984 6.99902C3.3971 6.89995 3.46899 6.81389 3.55469 6.74023C3.64038 6.66659 3.73556 6.6064 3.84082 6.56055C3.94624 6.51466 4.05952 6.48222 4.17969 6.46289C4.29977 6.44357 4.42312 6.43965 4.5498 6.45117ZM19.8203 6.46289C19.9405 6.48222 20.0538 6.51466 20.1592 6.56055C20.2644 6.6064 20.3596 6.66659 20.4453 6.74023C20.531 6.81389 20.6029 6.89995 20.6602 6.99902C20.7174 7.09826 20.7564 7.20425 20.7773 7.31543C20.7983 7.42653 20.8036 7.539 20.792 7.65234C20.7804 7.76567 20.7514 7.87887 20.7061 7.99219C20.6607 8.1056 20.602 8.21518 20.5293 8.32031C20.4566 8.42545 20.3692 8.52452 20.2686 8.61719C20.1681 8.7097 20.0555 8.79176 19.9316 8.86328C19.7528 8.96647 19.5651 9.03286 19.3682 9.0625L16.7061 9.45312C16.5721 9.47275 16.4831 9.3195 16.5664 9.21289L18.2266 7.0918C18.3494 6.93371 18.5014 6.80238 18.6816 6.69824C18.8056 6.62669 18.933 6.57008 19.0635 6.5293C19.194 6.4885 19.3234 6.46272 19.4502 6.45117C19.5769 6.43965 19.7002 6.44357 19.8203 6.46289ZM7.65332 3.20801C7.76756 3.22098 7.88236 3.24963 7.99609 3.29297C8.10964 3.33627 8.21841 3.39452 8.32227 3.46777C8.42628 3.54116 8.52452 3.62888 8.61719 3.72949C8.7098 3.83006 8.79268 3.94243 8.86426 4.06641C8.96826 4.24668 9.03418 4.4365 9.06152 4.63477L9.43848 7.30176C9.4572 7.43563 9.30339 7.52423 9.19727 7.44043L7.08789 5.77051C6.93201 5.6463 6.80158 5.49537 6.69824 5.31641C6.62671 5.19251 6.57106 5.06496 6.53027 4.93457C6.48948 4.80401 6.46354 4.6743 6.45312 4.54688C6.44274 4.41961 6.44651 4.29559 6.46387 4.1748C6.48126 4.05388 6.51287 3.94093 6.55957 3.83691C6.6062 3.73307 6.66663 3.63842 6.74023 3.55273C6.81398 3.46694 6.90078 3.39518 7 3.33789C7.09916 3.28064 7.20434 3.24168 7.31543 3.2207C7.42645 3.19977 7.53925 3.1951 7.65332 3.20801ZM16.6846 3.2207C16.7957 3.24168 16.9008 3.28064 17 3.33789C17.0992 3.39518 17.186 3.46694 17.2598 3.55273C17.3334 3.63842 17.3938 3.73307 17.4404 3.83691C17.4871 3.94093 17.5187 4.05388 17.5361 4.1748C17.5535 4.29559 17.5573 4.41961 17.5469 4.54688C17.5365 4.6743 17.5105 4.80401 17.4697 4.93457C17.4289 5.06497 17.3733 5.19251 17.3018 5.31641C17.1984 5.49537 17.068 5.6463 16.9121 5.77051L14.8027 7.44043C14.6966 7.52423 14.5428 7.43563 14.5615 7.30176L14.9385 4.63477C14.9658 4.4365 15.0317 4.24668 15.1357 4.06641C15.2073 3.94243 15.2902 3.83006 15.3828 3.72949C15.4755 3.62888 15.5737 3.54116 15.6777 3.46777C15.7816 3.39452 15.8904 3.33627 16.0039 3.29297C16.1176 3.24963 16.2324 3.22098 16.3467 3.20801C16.4608 3.1951 16.5735 3.19977 16.6846 3.2207ZM12 2C12.1145 2 12.2253 2.01826 12.332 2.05566C12.4387 2.09307 12.5385 2.14526 12.6309 2.21191C12.7232 2.27858 12.8074 2.36016 12.8828 2.45605C12.9582 2.55197 13.0235 2.65803 13.0781 2.77344C13.1328 2.889 13.1751 3.014 13.2051 3.14746C13.235 3.28092 13.25 3.41927 13.25 3.5625C13.25 3.76905 13.2134 3.96497 13.1406 4.15039L12.1484 6.65137C12.0985 6.7772 11.9198 6.77783 11.8691 6.65234L10.8633 4.15332C10.7878 3.96777 10.75 3.77083 10.75 3.5625C10.75 3.41927 10.765 3.28092 10.7949 3.14746C10.8249 3.014 10.8665 2.889 10.9199 2.77344C10.9733 2.65804 11.0385 2.55328 11.1152 2.45898C11.1921 2.36458 11.2767 2.2832 11.3691 2.21484C11.4616 2.14648 11.5612 2.0931 11.668 2.05566C11.7747 2.01826 11.8855 2 12 2Z" fill="#FF3C02"/>
</svg>
