<svg width="103" height="21" viewBox="0 0 103 21" fill="none" xmlns="http://www.w3.org/2000/svg">
<path d="M4.84766 20.5H0.847656V0.5H4.84766V1.06604H1.41908V19.934H4.84766V20.5Z" fill="#DEDEDE"/>
<path d="M20.9895 6.5H20.0562V4.31939L17.8077 0.560607H18.741L20.5059 3.54727H20.5398L22.3131 0.560607H23.238L20.9895 4.31939V6.5ZM22.829 6.54242C22.682 6.54242 22.5575 6.49434 22.4557 6.39818C22.3539 6.30202 22.303 6.1804 22.303 6.03333C22.303 5.88626 22.3539 5.76465 22.4557 5.66848C22.5575 5.57232 22.682 5.52424 22.829 5.52424C22.9818 5.52424 23.109 5.57232 23.2109 5.66848C23.3127 5.76465 23.3636 5.88626 23.3636 6.03333C23.3636 6.1804 23.3127 6.30202 23.2109 6.39818C23.109 6.49434 22.9818 6.54242 22.829 6.54242ZM26.4507 6.58485C25.5909 6.58485 24.9461 6.42081 24.5162 6.09273C24.0863 5.76465 23.8714 5.29232 23.8714 4.67576H24.7623C24.7623 5.43939 25.3194 5.82121 26.4338 5.82121C26.9372 5.82121 27.3275 5.74485 27.6047 5.59212C27.8875 5.43939 28.0289 5.21313 28.0289 4.91333C28.0289 4.69273 27.9526 4.51737 27.7998 4.38727C27.6471 4.25152 27.4576 4.1497 27.2314 4.08182C27.0107 4.01394 26.6968 3.93758 26.2895 3.85273C25.7974 3.75091 25.3986 3.65192 25.0932 3.55576C24.7934 3.45394 24.536 3.29273 24.3211 3.07212C24.1118 2.85152 24.0071 2.55172 24.0071 2.17273C24.0071 1.6297 24.2249 1.21111 24.6604 0.91697C25.096 0.622829 25.673 0.475758 26.3914 0.475758C26.8835 0.475758 27.3105 0.549294 27.6726 0.696364C28.0402 0.837778 28.3202 1.04424 28.5126 1.31576C28.7105 1.58162 28.8095 1.89556 28.8095 2.25758H27.9186C27.9186 1.94081 27.7829 1.69192 27.5114 1.51091C27.2398 1.3299 26.858 1.23939 26.3659 1.23939C25.9077 1.23939 25.5485 1.31293 25.2883 1.46C25.0281 1.60707 24.898 1.82485 24.898 2.11333C24.898 2.31131 24.9687 2.47253 25.1101 2.59697C25.2572 2.71576 25.4382 2.80909 25.6532 2.87697C25.8738 2.93919 26.1707 3.00707 26.5441 3.08061C27.0475 3.18242 27.4576 3.28707 27.7744 3.39455C28.0912 3.50202 28.3598 3.67737 28.5804 3.92061C28.8067 4.15818 28.9198 4.48343 28.9198 4.89636C28.9198 5.45071 28.7077 5.87212 28.2835 6.16061C27.8592 6.44343 27.2483 6.58485 26.4507 6.58485Z" fill="#0A0A0A"/>
<g clip-path="url(#clip0_2001_25646)">
<path d="M63.0771 3.1609L63.004 3.1242C59.6038 1.42979 55.1555 0.5 50.5 0.5C45.8445 0.5 41.3962 1.42979 37.99 3.1242L37.9168 3.1609C34.1023 5.0633 32 7.66915 32 10.5013C32 13.3335 34.2546 16.0923 38.1789 17.9763C42.0416 19.6989 46.231 20.5588 50.4573 20.4965H50.5366C54.7651 20.5619 58.9572 19.7019 62.8211 17.9763C66.7332 16.0923 69 13.3457 69 10.5013C69 7.65691 66.8977 5.0633 63.0771 3.1609ZM38.5445 10.1894C38.6687 8.12082 39.5678 6.176 41.0611 4.74521H45.2352C44.4813 6.4617 44.0813 8.31358 44.0591 10.1894H38.5445ZM45.2474 16.2513H41.0611C39.5634 14.8212 38.6636 12.8727 38.5445 10.8011H44.0287C44.0543 12.681 44.4628 14.5358 45.2291 16.2513H45.2474ZM41.7497 4.13351C43.5289 2.67303 45.6601 1.70885 47.9285 1.33803C46.9153 2.06181 46.0916 3.02092 45.5277 4.13351H41.7497ZM38.1484 3.7359H38.2215C40.2902 2.73645 42.4894 2.03623 44.7538 1.65612C43.3021 2.24051 41.9713 3.09098 40.8295 4.16409H37.3867C37.6243 3.99893 37.8742 3.86436 38.124 3.7359H38.1484ZM36.3995 4.74521H40.2263C38.8521 6.23531 38.0415 8.16159 37.9351 10.1894H32.6094C32.7495 8.21968 34.0901 6.30505 36.3995 4.74521ZM32.6094 10.8011H37.9351C38.0365 12.8318 38.8477 14.7617 40.2263 16.2513H36.3934C34.084 14.6976 32.7495 12.783 32.6094 10.8011ZM38.4287 17.4197C38.057 17.2423 37.7036 17.0588 37.3684 16.863H40.7869C41.9243 17.9359 43.251 18.7864 44.6989 19.371C42.5373 19.0046 40.4345 18.3483 38.447 17.4197H38.4287ZM41.7497 16.863H45.5277C46.0898 17.9785 46.9138 18.94 47.9285 19.6646C45.6588 19.2943 43.527 18.3277 41.7497 16.863ZM50.2197 19.8665C48.6537 19.7319 47.246 18.6064 46.2406 16.863H50.2197V19.8665ZM50.2197 16.2513H45.8933C45.1028 14.5432 44.6872 12.6845 44.6746 10.8011H50.2014L50.2197 16.2513ZM50.2197 10.1894H44.6685C44.6855 8.30842 45.1009 6.45263 45.8872 4.74521H50.1892L50.2197 10.1894ZM50.2197 4.13351H46.2223C47.2339 2.39628 48.6293 1.27074 50.1953 1.1117L50.2197 4.13351ZM68.3967 10.1894H63.0771C62.9707 8.16159 62.16 6.23531 60.7859 4.74521H64.6005C66.9099 6.30505 68.2505 8.21968 68.3724 10.1894H68.3967ZM56.9653 10.8011H62.4494C62.3301 12.8713 61.4329 14.8191 59.9389 16.2513H55.7648C56.5227 14.534 56.9229 12.6793 56.9409 10.8011H56.9653ZM56.9653 10.1894C56.9354 8.31189 56.5271 6.45994 55.7648 4.74521H59.9389C61.4367 6.17404 62.3402 8.1191 62.4677 10.1894H56.9653ZM62.8272 3.70532H62.9004C63.1502 3.83378 63.3939 3.96835 63.6377 4.10292H60.1948C59.054 3.02856 57.723 2.17793 56.2706 1.59495C58.5365 1.98477 60.7358 2.69531 62.8029 3.70532H62.8272ZM59.2991 4.13351H55.4723C54.9084 3.02092 54.0847 2.06181 53.0715 1.33803C55.3485 1.70473 57.4885 2.66913 59.2747 4.13351H59.2991ZM50.8047 1.1117C52.3768 1.24628 53.7783 2.37181 54.7838 4.10904H50.8047V1.1117ZM50.8047 4.72074H55.1067C55.893 6.42816 56.3084 8.28395 56.3254 10.1649H50.8047V4.72074ZM50.8047 10.7766H56.3315C56.3189 12.66 55.9033 14.5187 55.1128 16.2269H50.8047V10.7766ZM50.8047 16.8386H54.7838C53.7783 18.5819 52.3463 19.7074 50.8047 19.842V16.8386ZM55.4723 16.8386H59.2747C57.4904 18.3071 55.3498 19.2739 53.0715 19.6402C54.0832 18.9224 54.907 17.9696 55.4723 16.863V16.8386ZM62.553 17.3952C60.5594 18.3246 58.4505 18.9809 56.2828 19.3465C57.7319 18.7606 59.0603 17.9102 60.2009 16.8386H63.6133C63.2782 17.0588 62.9247 17.2423 62.553 17.4197V17.3952ZM64.6066 16.2269H60.7737C62.1515 14.7453 62.9667 12.8248 63.0771 10.8011H68.3845C68.2505 12.783 66.916 14.6976 64.6066 16.2513V16.2269Z" fill="#DEDEDE"/>
</g>
<path d="M75.3756 8.5H74.2756V5.93L71.6256 1.5H72.7256L74.8056 5.02H74.8456L76.9356 1.5H78.0256L75.3756 5.93V8.5ZM77.5436 8.55C77.3703 8.55 77.2236 8.49333 77.1036 8.38C76.9836 8.26667 76.9236 8.12333 76.9236 7.95C76.9236 7.77667 76.9836 7.63333 77.1036 7.52C77.2236 7.40667 77.3703 7.35 77.5436 7.35C77.7236 7.35 77.8736 7.40667 77.9936 7.52C78.1136 7.63333 78.1736 7.77667 78.1736 7.95C78.1736 8.12333 78.1136 8.26667 77.9936 8.38C77.8736 8.49333 77.7236 8.55 77.5436 8.55ZM81.8121 8.6C80.7987 8.6 80.0387 8.40667 79.5321 8.02C79.0254 7.63333 78.7721 7.07667 78.7721 6.35H79.8221C79.8221 7.25 80.4787 7.7 81.7921 7.7C82.3854 7.7 82.8454 7.61 83.1721 7.43C83.5054 7.25 83.6721 6.98333 83.6721 6.63C83.6721 6.37 83.5821 6.16333 83.4021 6.01C83.2221 5.85 82.9987 5.73 82.7321 5.65C82.4721 5.57 82.1021 5.48 81.6221 5.38C81.0421 5.26 80.5721 5.14333 80.2121 5.03C79.8587 4.91 79.5554 4.72 79.3021 4.46C79.0554 4.2 78.9321 3.84667 78.9321 3.4C78.9321 2.76 79.1887 2.26667 79.7021 1.92C80.2154 1.57333 80.8954 1.4 81.7421 1.4C82.3221 1.4 82.8254 1.48667 83.2521 1.66C83.6854 1.82667 84.0154 2.07 84.2421 2.39C84.4754 2.70333 84.5921 3.07333 84.5921 3.5H83.5421C83.5421 3.12667 83.3821 2.83333 83.0621 2.62C82.7421 2.40667 82.2921 2.3 81.7121 2.3C81.1721 2.3 80.7487 2.38667 80.4421 2.56C80.1354 2.73333 79.9821 2.99 79.9821 3.33C79.9821 3.56333 80.0654 3.75333 80.2321 3.9C80.4054 4.04 80.6187 4.15 80.8721 4.23C81.1321 4.30333 81.4821 4.38333 81.9221 4.47C82.5154 4.59 82.9987 4.71333 83.3721 4.84C83.7454 4.96667 84.0621 5.17333 84.3221 5.46C84.5887 5.74 84.7221 6.12333 84.7221 6.61C84.7221 7.26333 84.4721 7.76 83.9721 8.1C83.4721 8.43333 82.7521 8.6 81.8121 8.6Z" fill="#DEDEDE"/>
<path d="M98.1523 20.5H102.152V0.5H98.1523V1.06604H101.581V19.934H98.1523V20.5Z" fill="#DEDEDE"/>
<defs>
<clipPath id="clip0_2001_25646">
<rect width="37" height="20" fill="white" transform="translate(32 0.5)"/>
</clipPath>
</defs>
</svg>
