<svg width="33" height="32" viewBox="0 0 33 32" fill="none" xmlns="http://www.w3.org/2000/svg">
<path d="M4.5 9C4.5 8.20435 4.8163 7.44152 5.37891 6.87891C5.94151 6.3163 6.70435 6 7.5 6H25.5C26.2956 6 27.0585 6.3163 27.6211 6.87891C28.1837 7.44152 28.5 8.20435 28.5 9V19C28.5 19.7956 28.1837 20.5585 27.6211 21.1211C27.0585 21.6837 26.2956 22 25.5 22H14.5C14.3026 22 14.1096 22.0585 13.9453 22.168L9.5 25.1309V23C9.5 22.4477 9.05228 22 8.5 22H7.5C6.70435 22 5.94151 21.6837 5.37891 21.1211C4.8163 20.5585 4.5 19.7956 4.5 19V9ZM2.5 19C2.5 20.3261 3.02716 21.5975 3.96484 22.5352C4.90252 23.4728 6.17392 24 7.5 24V27C7.5 27.3684 7.70275 27.7067 8.02734 27.8809C8.3525 28.0549 8.74783 28.0366 9.05469 27.832L14.8027 24H25.5C26.8261 24 28.0975 23.4728 29.0352 22.5352C29.9728 21.5975 30.5 20.3261 30.5 19V9C30.5 7.67392 29.9728 6.40253 29.0352 5.46484C28.0975 4.52716 26.8261 4 25.5 4H7.5C6.17392 4 4.90252 4.52716 3.96484 5.46484C3.02716 6.40253 2.5 7.67392 2.5 9V19Z" fill="#FF3C02"/>
<path d="M25.5 15C25.5 14.4696 25.2891 13.961 24.9141 13.5859C24.539 13.2109 24.0304 13 23.5 13C22.9696 13 22.461 13.2109 22.0859 13.5859C21.7109 13.961 21.5 14.4696 21.5 15C21.5 15.5304 21.7109 16.039 22.0859 16.4141C22.461 16.7891 22.9696 17 23.5 17C24.0304 17 24.539 16.7891 24.9141 16.4141C25.2423 16.0858 25.4449 15.6553 25.4902 15.1973L25.5 15ZM19.5 15C19.5 14.4696 19.2891 13.961 18.9141 13.5859C18.539 13.2109 18.0304 13 17.5 13C16.9696 13 16.461 13.2109 16.0859 13.5859C15.7109 13.961 15.5 14.4696 15.5 15C15.5 15.5304 15.7109 16.039 16.0859 16.4141C16.461 16.7891 16.9696 17 17.5 17C18.0304 17 18.539 16.7891 18.9141 16.4141C19.2891 16.039 19.5 15.5304 19.5 15ZM13.5 15C13.5 14.4696 13.2891 13.961 12.9141 13.5859C12.539 13.2109 12.0304 13 11.5 13C10.9696 13 10.461 13.2109 10.0859 13.5859C9.71086 13.961 9.5 14.4696 9.5 15C9.5 15.5304 9.71086 16.039 10.0859 16.4141C10.461 16.7891 10.9696 17 11.5 17C12.0304 17 12.539 16.7891 12.9141 16.4141C13.2891 16.039 13.5 15.5304 13.5 15Z" fill="#FF3C02"/>
</svg>
