<svg width="24" height="24" viewBox="0 0 24 24" fill="none" xmlns="http://www.w3.org/2000/svg">
<path d="M12 7C13.1046 7 14 7.89543 14 9C14 9.13954 13.9855 9.27562 13.958 9.40693C13.868 9.83734 13.8698 10.317 14.1525 10.6538L15.7765 12.589C16.0557 12.9218 16.5207 13.0101 16.9551 13.0005C16.97 13.0002 16.985 13 17 13C18.1046 13 19 13.8954 19 15C19 16.1046 18.1046 17 17 17C16.8879 17 16.7781 16.9906 16.6712 16.9727C16.1502 16.8853 15.5498 16.9228 15.2102 17.3275L14.1977 18.5342C13.9345 18.8479 13.914 19.2889 13.9765 19.6936C13.992 19.7935 14 19.8958 14 20C14 21.1046 13.1046 22 12 22C10.8954 22 10 21.1046 10 20C10 19.9019 10.0072 19.8056 10.021 19.7114C10.0871 19.26 10.0528 18.7598 9.73016 18.4372L8.56173 17.2688C8.23914 16.9462 7.73933 16.9123 7.288 16.9789C7.19403 16.9928 7.0979 17 7 17C5.89543 17 5 16.1046 5 15C5 13.8954 5.89543 13 7 13C8.10457 13 9 13.8954 9 15C9 15.0978 8.99278 15.1939 8.97892 15.2878C8.91231 15.7392 8.94628 16.2392 9.269 16.5617L10.4373 17.7296C10.7599 18.052 11.26 18.0866 11.7113 18.0208C11.8056 18.0071 11.9019 18 12 18C12.087 18 12.1726 18.0056 12.2566 18.0165C12.7549 18.0811 13.3169 18.0274 13.6399 17.6424L14.7716 16.2938C15.0177 16.0006 15.0521 15.5935 15.0113 15.2129C15.0038 15.1429 15 15.0719 15 15C15 14.8178 15.0244 14.6413 15.0701 14.4737C15.1956 14.0129 15.2202 13.4834 14.9133 13.1175L13.4607 11.386C13.1569 11.0238 12.6382 10.9536 12.1671 10.993C12.112 10.9976 12.0563 11 12 11C10.8954 11 10 10.1046 10 9C10 7.89543 10.8954 7 12 7Z" fill="#FF3C02"/>
<path d="M12 2C13.1046 2 14 2.89543 14 4C14 4.13954 13.9855 4.27562 13.958 4.40693C13.868 4.83734 13.8698 5.31699 14.1525 5.65382L15.7765 7.589C16.0557 7.92178 16.5207 8.01009 16.9551 8.0005C16.97 8.00017 16.985 8 17 8C18.1046 8 19 8.89543 19 10C19 11.1046 18.1046 12 17 12C15.8954 12 15 11.1046 15 10C15 9.81781 15.0244 9.64135 15.0701 9.47365C15.1956 9.01289 15.2202 8.48337 14.9133 8.1175L13.4607 6.38599C13.1569 6.02383 12.6382 5.95361 12.1671 5.99304C12.112 5.99764 12.0563 6 12 6C11.6313 6 11.246 6.09228 11.009 6.37473L9.19754 8.53418C8.93439 8.84787 8.91397 9.28882 8.97653 9.69346C8.99197 9.79338 9 9.89574 9 10C9 10.0978 8.99278 10.1939 8.97892 10.2878C8.91231 10.7392 8.94628 11.2392 9.269 11.5617L10.4373 12.7296C10.7599 13.052 11.26 13.0866 11.7113 13.0208C11.8056 13.0071 11.9019 13 12 13C13.1046 13 14 13.8954 14 15C14 16.1046 13.1046 17 12 17C10.8954 17 10 16.1046 10 15C10 14.9019 10.0072 14.8056 10.021 14.7114C10.0871 14.26 10.0528 13.7598 9.73016 13.4372L8.56173 12.2688C8.23914 11.9462 7.73933 11.9123 7.288 11.9789C7.19403 11.9928 7.0979 12 7 12C5.89543 12 5 11.1046 5 10C5 8.89543 5.89543 8 7 8C7.08693 8 7.17253 8.00562 7.25646 8.01649C7.75487 8.08105 8.31692 8.02727 8.63991 7.64224L9.97431 6.05151C10.3002 5.66297 10.2518 5.094 10.0959 4.6114C10.0337 4.41882 10 4.21343 10 4C10 2.89543 10.8954 2 12 2Z" fill="#FF3C02"/>
</svg>
