<svg width="125" height="41" viewBox="0 0 125 41" fill="none" xmlns="http://www.w3.org/2000/svg">
<g clip-path="url(#clip0_2001_25663)">
<path d="M31.3717 32.0731C31.2841 31.8889 31.1892 31.7876 31.1892 31.6899C31.2001 31.3215 30.9939 31.2755 30.6947 31.2755C27.5761 31.2755 24.4594 31.2755 21.3427 31.2755C19.9285 31.2755 18.5144 31.3179 17.1002 31.3215C16.7462 31.3215 16.5637 31.4026 16.6038 31.806C16.6148 31.9202 16.4779 32.0473 16.4086 32.1744C16.3319 32.0547 16.1805 31.9294 16.1933 31.8207C16.2389 31.3915 16.0436 31.3234 15.6732 31.3252C13.7992 31.34 11.9269 31.3252 10.0529 31.3252C8.27377 31.3252 6.49462 31.3252 4.71547 31.3252C3.54397 31.3252 2.37247 31.3142 1.19915 31.2829C1.04952 31.2829 0.901712 31.1208 0.753906 31.0342C0.898063 30.9476 1.04039 30.7873 1.18455 30.7855C2.57137 30.7652 3.9582 30.7708 5.34502 30.7708C7.61868 30.7708 9.89233 30.7708 12.166 30.7708C13.1806 30.7708 14.1951 30.8039 15.2097 30.826C15.4305 30.826 15.5947 30.7984 15.6239 30.5166C15.6732 30.0708 15.9232 29.8258 16.2772 29.8203C16.7042 29.8203 16.956 30.021 17.0564 30.4631C17.0728 30.5313 17.0837 30.5995 17.1075 30.7173H17.6202C21.0824 30.7173 24.5428 30.7173 28.0013 30.7173C28.7093 30.7173 29.4173 30.7523 30.1253 30.7708C30.4246 30.7708 30.6071 30.7302 30.66 30.3342C30.7058 30.2026 30.7842 30.0849 30.8876 29.9924C30.9911 29.8999 31.1162 29.8356 31.2512 29.8055C31.5067 29.7926 31.9957 30.0487 31.9994 30.1997C32.0194 30.8555 32.4464 30.7523 32.8223 30.7523C34.1435 30.7634 35.4628 30.7616 36.7839 30.7634C39.001 30.7634 41.2163 30.7634 43.4334 30.7634C44.1998 30.7634 44.9662 30.6823 45.7344 30.6584C46.0336 30.6492 46.0811 30.4963 46.0774 30.2421C46.0774 30.1389 46.1723 30.0358 46.2234 29.9345C46.3165 30.0266 46.4898 30.1187 46.488 30.2145C46.488 30.5681 46.6705 30.6013 46.9442 30.6031C50.3364 30.6363 53.7287 30.6823 57.1209 30.7137C58.464 30.7266 59.8088 30.7137 61.1518 30.7137C61.7613 30.7137 61.8544 30.6271 61.8398 30.0155C61.8197 29.2124 61.7613 28.4111 61.754 27.608C61.754 27.1364 61.838 26.6667 61.8361 26.1951C61.8361 24.5459 61.8185 22.8973 61.7832 21.2492C61.7631 20.1716 61.7011 19.094 61.681 18.0164C61.681 17.6186 61.7796 17.2133 61.7394 16.8228C61.7035 16.5212 61.5868 16.2353 61.4018 15.9957C61.1445 15.6715 61.004 15.3455 61.2942 15.0323C61.6591 14.6492 61.723 14.2347 61.712 13.7429C61.6938 12.8219 61.7358 11.888 61.7412 10.9596C61.7485 9.95505 61.7485 8.95113 61.7412 7.94783C61.7412 7.63653 61.681 7.32522 61.6828 7.01391C61.6828 6.2771 61.7376 5.54028 61.7285 4.80346C61.7078 4.39014 61.6658 3.97819 61.6026 3.56929L61.1847 3.9377C61.1407 3.73395 61.1242 3.52515 61.1354 3.31693C61.2796 2.55801 61.4493 1.80645 61.6263 1.05674C61.6916 0.868012 61.7709 0.684516 61.8635 0.507812H62.0368C62.1336 0.787803 62.254 1.06043 62.3233 1.35147C62.4967 2.06434 62.6591 2.78274 62.7923 3.50482C62.8251 3.67981 62.7266 3.87323 62.6901 4.07033C62.5861 3.92665 62.4839 3.78297 62.3781 3.63929C62.3454 3.60678 62.31 3.57719 62.2722 3.55087C62.2576 3.70008 62.2339 3.81797 62.2339 3.93586C62.2339 5.32107 62.2503 6.69892 62.2339 8.09151C62.223 9.02911 62.15 9.96671 62.139 10.9043C62.1299 11.6651 62.1719 12.4258 62.1938 13.1866C62.1938 13.4795 62.2412 13.7724 62.2266 14.0634C62.2136 14.2314 62.2359 14.4002 62.2918 14.5589C62.3478 14.7176 62.4362 14.8626 62.5514 14.9844C62.6687 15.1271 62.7254 15.3108 62.7089 15.4954C62.6925 15.6801 62.6044 15.8506 62.4638 15.9699C62.3577 16.0738 62.2766 16.2009 62.227 16.3415C62.1773 16.482 62.1603 16.6322 62.1774 16.7804C62.2199 21.2345 62.2576 25.6879 62.2905 30.1408C62.2905 30.5902 62.4967 30.7652 62.9292 30.71C63.0986 30.6876 63.2692 30.6753 63.4401 30.6731C65.9948 30.6731 68.5586 30.6731 71.1187 30.6731C71.9545 30.6731 72.7902 30.5773 73.6259 30.5755C74.4617 30.5737 75.25 30.6289 76.062 30.6787C76.4379 30.7008 76.6258 30.5976 76.5839 30.1758C76.5729 30.0597 76.7025 29.9271 76.7664 29.8074C76.8503 29.9308 77.0054 30.056 77.0054 30.1758C77.0054 30.5626 77.1879 30.6989 77.5328 30.675C77.9999 30.6418 78.467 30.57 78.9342 30.57C80.1586 30.57 81.383 30.6087 82.6074 30.6123C82.9724 30.6123 83.3373 30.5221 83.7023 30.5221C84.0672 30.5221 84.4322 30.6105 84.7971 30.6123C86.6675 30.6216 88.5379 30.6123 90.4065 30.6123C90.6565 30.6123 90.8353 30.5737 90.9119 30.2753C91.0798 29.6342 91.2769 29.5163 91.9448 29.6195C92.401 29.6895 92.4922 30.056 92.5214 30.4539C92.5301 30.5007 92.5417 30.5468 92.5561 30.5921C94.0305 30.5921 95.4994 30.5921 96.9702 30.5921C97.7001 30.5921 98.43 30.5645 99.1599 30.5626C100.762 30.5626 102.362 30.5479 103.964 30.5626C104.574 30.5626 105.183 30.6087 105.789 30.6566C106.028 30.6768 106.121 30.6179 106.138 30.3655C106.178 29.8129 106.422 29.5716 106.89 29.5624C107.357 29.5532 107.57 29.7632 107.689 30.3139C107.716 30.4429 107.886 30.6363 107.992 30.6381C108.959 30.6473 109.926 30.616 110.893 30.6105C111.174 30.6105 111.455 30.6713 111.736 30.6694C113.88 30.6566 116.024 30.6345 118.167 30.6142C118.248 30.6085 118.328 30.5974 118.408 30.581C118.393 30.5258 118.395 30.4945 118.38 30.476C118.265 30.3416 118.147 30.2071 118.028 30.0745C118.195 30.0533 118.363 30.0533 118.53 30.0745C119.462 30.2937 120.391 30.5295 121.325 30.7616C121.188 31.1502 118.471 31.8797 117.902 31.6826L118.375 31.2681C118.313 31.2276 118.245 31.1447 118.176 31.1429C114.665 31.1429 111.154 31.1429 107.643 31.1281C107.253 31.1281 107.059 31.27 107.006 31.6549C106.994 31.7378 106.888 31.806 106.824 31.8815C106.776 31.8023 106.683 31.7194 106.689 31.6457C106.731 31.1447 106.419 31.1281 106.056 31.13C102.786 31.1545 99.5157 31.1748 96.2457 31.1907C95.5487 31.1907 94.8498 31.1907 94.1527 31.1907C93.536 31.1907 92.9192 31.2 92.3024 31.1907C92.0506 31.1907 91.9064 31.2331 91.8809 31.5297C91.8663 31.6899 91.7349 31.8391 91.6273 32.051C91.5715 31.9831 91.5237 31.909 91.4849 31.8299C91.3243 31.2 91.3262 31.1963 90.7057 31.1926L77.8922 31.1373C77.1058 31.1373 77.1058 31.1373 76.8521 31.992C76.7262 31.8078 76.5821 31.6899 76.5875 31.5813C76.6094 31.1594 76.3777 31.1281 76.051 31.1318C73.7214 31.1588 71.3918 31.1791 69.0622 31.1926C66.9601 31.1926 64.8652 31.2036 62.7558 31.1926C62.3781 31.1926 62.2668 31.2957 62.2777 31.6789C62.3179 33.0475 62.3306 34.418 62.3398 35.7885C62.3398 37.2087 62.3398 38.6289 62.3398 40.0491C62.3444 40.1768 62.3167 40.3036 62.2595 40.4176C62.2311 40.4553 62.194 40.4853 62.1513 40.5049C62.1086 40.5245 62.0617 40.5331 62.0149 40.5299C61.9741 40.5105 61.9388 40.4811 61.912 40.4445C61.8853 40.4078 61.868 40.365 61.8617 40.3199C61.8452 39.8373 61.8489 39.3565 61.8471 38.8739C61.8471 38.5829 61.838 38.29 61.8471 37.9971C61.8471 37.2198 61.8562 36.4424 61.858 35.6651C61.858 34.3609 61.858 33.0567 61.858 31.7526C61.858 31.3657 61.7212 31.1797 61.2978 31.2C60.5405 31.2276 59.7833 31.2 59.0242 31.2H57.6008C54.1429 31.2184 50.6832 31.246 47.2252 31.2442C46.7654 31.2442 46.4588 31.3031 46.4278 31.8391C46.4278 31.9331 46.3074 32.0234 46.2453 32.1099C46.1906 32.0105 46.0847 31.9055 46.0939 31.8115C46.1395 31.3528 45.9114 31.2589 45.5118 31.2589C43.1231 31.27 40.7345 31.2589 38.3477 31.2589C36.2894 31.2589 34.2329 31.3013 32.1745 31.3013C31.7549 31.3013 31.4337 31.3215 31.5049 31.8705C31.5012 31.8723 31.4592 31.9128 31.3717 32.0731ZM62.358 15.4007C62.1536 15.27 62.0277 15.1281 61.931 15.1465C61.8343 15.165 61.7339 15.3307 61.6354 15.4284C61.7358 15.526 61.8307 15.6918 61.9383 15.7028C62.046 15.7139 62.1555 15.5555 62.358 15.4007ZM31.7439 30.476C31.5614 30.36 31.4465 30.2347 31.3534 30.2476C31.2603 30.2605 31.1709 30.4024 31.076 30.4889C31.1782 30.5792 31.2695 30.7192 31.3863 30.7431C31.4611 30.7597 31.5724 30.6105 31.7439 30.476ZM107.328 30.2679C107.145 30.15 107.026 30.0192 106.93 30.0321C106.873 30.0558 106.822 30.0938 106.784 30.1424C106.745 30.1911 106.719 30.2488 106.709 30.3103C106.709 30.406 106.88 30.5902 106.932 30.5755C107.061 30.5423 107.158 30.4134 107.328 30.2679ZM92.0853 30.3029C91.9028 30.1905 91.7897 30.0634 91.6893 30.0745C91.5889 30.0855 91.5068 30.2347 91.4229 30.3231C91.5232 30.4152 91.6163 30.5645 91.7294 30.581C91.817 30.5958 91.9265 30.4374 92.0907 30.3029H92.0853Z" fill="#DEDEDE"/>
<path d="M64.6978 2.1841C64.8456 1.91148 64.904 1.69964 65.0409 1.57807C65.1992 1.4855 65.373 1.42307 65.5536 1.39386C65.5719 1.53939 65.6503 1.7107 65.5993 1.8249C65.2763 2.56172 64.9296 3.29854 64.581 4.03536C64.4734 4.26193 64.2526 4.44061 64.0336 4.28035C63.9259 4.1993 63.8986 3.81984 63.9935 3.68905C64.3584 3.18249 64.2854 2.73856 63.9478 2.27068C63.8497 2.1265 63.7859 1.9613 63.7617 1.78806C63.7638 1.65 63.7878 1.51318 63.8329 1.38281C63.9971 1.43255 64.1978 1.43992 64.3146 1.54491C64.4606 1.68491 64.5354 1.90227 64.6978 2.1841Z" fill="#DEDEDE"/>
<path d="M124.24 31.5958C124.211 31.6547 124.18 31.78 124.138 31.78C124.005 31.7929 123.811 31.8095 123.742 31.7321C123.457 31.4134 123.233 31.4042 122.939 31.7321C122.861 31.8205 122.607 31.7468 122.434 31.7487C122.468 31.5939 122.454 31.3913 122.549 31.2937C122.868 30.9603 122.842 30.6435 122.618 30.2787C122.558 30.1829 122.585 30.0356 122.572 29.9103C122.716 29.8993 122.919 29.8182 122.996 29.8864C123.246 30.1019 123.437 30.0706 123.678 29.8864C123.734 29.8665 123.793 29.8583 123.852 29.8624C123.911 29.8666 123.969 29.8829 124.021 29.9103C124.05 29.9451 124.069 29.9867 124.078 30.0312C124.086 30.0757 124.083 30.1216 124.069 30.1645C123.775 30.614 123.791 31.0192 124.187 31.3987C124.222 31.4429 124.22 31.5147 124.24 31.5958Z" fill="#DEDEDE"/>
<path d="M46.3815 26.2658C46.7465 26.2548 47.1735 26.695 47.1735 27.0855C47.1494 27.2777 47.0659 27.4574 46.9349 27.5989C46.8039 27.7405 46.6319 27.8367 46.4436 27.8739C46.2446 27.874 46.0526 27.8002 45.9039 27.6668C45.7553 27.5334 45.6603 27.3495 45.637 27.15C45.6243 26.7153 45.9965 26.2769 46.3815 26.2658ZM46.7465 27.0616C46.6023 26.9382 46.4983 26.7834 46.4126 26.7927C46.2903 26.8074 46.1845 26.9437 46.0695 27.0266C46.166 27.1523 46.2811 27.2623 46.4107 27.3526C46.4673 27.3747 46.6096 27.1961 46.7593 27.0616H46.7465Z" fill="#DEDEDE"/>
<path d="M76.737 26.2111C77.2844 26.2111 77.5618 26.4542 77.5673 26.9148C77.5727 27.3753 77.2497 27.6645 76.7625 27.6516C76.2753 27.6387 76.0089 27.3753 76.0199 26.9148C76.0308 26.4542 76.2808 26.2037 76.737 26.2111ZM77.1019 26.9479C76.9578 26.8024 76.8611 26.6292 76.7607 26.6274C76.6603 26.6256 76.4669 26.83 76.4852 26.8908C76.5271 27.0308 76.6676 27.1358 76.779 27.2592L77.1019 26.9479Z" fill="#DEDEDE"/>
</g>
<path d="M48.0104 37.8896C50.6191 37.8896 61.9234 30.9331 61.9234 30.9331C61.9234 30.9331 50.6191 23.9766 48.0104 23.9766C45.4017 23.9766 42.793 25.7157 42.793 30.9331C42.793 36.1505 45.4017 37.8896 48.0104 37.8896Z" fill="white"/>
<path d="M75.8364 23.9766C73.2278 23.9766 61.9234 30.9331 61.9234 30.9331C61.9234 30.9331 73.2278 37.8896 75.8364 37.8896C78.4451 37.8896 81.0538 36.1505 81.0538 30.9331C81.0538 25.7157 78.4451 23.9766 75.8364 23.9766Z" fill="white"/>
<defs>
<clipPath id="clip0_2001_25663">
<rect width="123.478" height="40" fill="white" transform="translate(0.761719 0.5)"/>
</clipPath>
</defs>
</svg>
