<svg width="1896" height="183" viewBox="0 0 1896 183" fill="none" xmlns="http://www.w3.org/2000/svg">
<g style="mix-blend-mode:exclusion">
<mask id="mask0_2479_11473" style="mask-type:alpha" maskUnits="userSpaceOnUse" x="0" y="0" width="1896" height="183">
<path d="M1013.03 182.314H964.743L951.386 152.363H850.184L836.827 182.314H788.281L873.815 0H927.498L1013.03 182.314ZM866.366 116.421H935.204L912.601 65.8937C909.005 57.212 906.436 50.0931 904.895 44.5368C903.525 38.8069 902.84 33.4243 902.84 28.389V27.6076H898.73V28.389C898.73 33.4243 897.96 38.8069 896.419 44.5368C895.049 50.0931 892.566 57.212 888.97 65.8937L866.366 116.421Z" fill="#0A0A0A"/>
<path d="M609.609 182.314V0H700.174C723.435 0 743.361 3.99355 759.951 11.9807C776.542 19.7941 789.113 30.5594 797.665 44.2764C806.217 57.9934 810.493 73.6203 810.493 91.1572C810.493 108.694 806.217 124.321 797.665 138.038C789.113 151.755 776.542 162.607 759.951 170.594C743.361 178.408 723.435 182.314 700.174 182.314H609.609ZM700.174 144.549C713.857 144.549 725.573 142.292 735.322 137.778C745.071 133.09 752.426 126.752 757.386 118.765C762.346 110.604 764.826 101.402 764.826 91.1572C764.826 80.9129 762.346 71.7972 757.386 63.8101C752.426 55.6493 745.071 49.3117 735.322 44.7973C725.573 40.1092 713.857 37.7651 700.174 37.7651H655.276V144.549H700.174Z" fill="#0A0A0A"/>
<path d="M387.844 182.314V0H458.998L555.069 154.707H559.436C557.21 147.241 555.497 139.948 554.299 132.829C553.271 125.71 552.757 117.029 552.757 106.784V0H596.683V182.314H525.529L429.457 27.6076H425.091C427.317 35.0738 428.944 42.3664 429.971 49.4854C431.17 56.6043 431.769 65.2859 431.769 75.5303V182.314H387.844Z" fill="#0A0A0A"/>
<path d="M392.813 182.314H344.524L331.167 152.363H229.965L216.609 182.314H168.062L253.596 0H307.28L392.813 182.314ZM246.147 116.421H314.985L292.382 65.8937C288.786 57.212 286.217 50.0931 284.676 44.5368C283.306 38.8069 282.621 33.4243 282.621 28.389V27.6076H278.512V28.389C278.512 33.4243 277.741 38.8069 276.2 44.5368C274.83 50.0931 272.347 57.212 268.751 65.8937L246.147 116.421Z" fill="#0A0A0A"/>
<path d="M83.0325 182.314V124.755L0 0H52.4416L93.3151 63.0287C100.342 74.6621 103.855 84.9065 103.855 93.7617V97.408H108.225V93.7617C108.225 84.5592 111.738 74.3149 118.765 63.0287L159.638 0H211.823L128.79 124.755V182.314H83.0325Z" fill="#0A0A0A"/>
<path d="M1036.01 182.318C1029.09 182.318 1023.49 180.301 1019.21 176.266C1015.09 172.064 1013.03 166.769 1013.03 160.382C1013.03 153.994 1015.09 148.783 1019.21 144.749C1023.49 140.546 1029.09 138.445 1036.01 138.445C1042.93 138.445 1048.53 140.546 1052.81 144.749C1057.09 148.783 1059.23 153.994 1059.23 160.382C1059.23 166.769 1057.09 172.064 1052.81 176.266C1048.53 180.301 1042.93 182.318 1036.01 182.318Z" fill="#0A0A0A"/>
<path d="M1822.74 2.92188C1846.79 2.92188 1864.95 8.3537 1877.22 19.2174C1889.49 29.9139 1895.62 44.7052 1895.62 63.5912C1895.62 82.4773 1889.49 97.3521 1877.22 108.216C1864.95 119.079 1846.79 124.511 1822.74 124.511H1755.09V178.412H1710.81V2.92188H1822.74ZM1821 88.6612C1830.95 88.6612 1838.5 86.4049 1843.64 81.8923C1848.78 77.3797 1851.35 71.2794 1851.35 63.5912C1851.35 55.9031 1848.78 49.8863 1843.64 45.5408C1838.5 41.0282 1830.95 38.7719 1821 38.7719H1752.85V88.6612H1821Z" fill="#0A0A0A"/>
<path d="M1590.57 182.314C1565.9 182.314 1544.86 178.38 1527.48 170.512C1510.25 162.476 1497.17 151.594 1488.23 137.866C1479.45 124.138 1475.06 108.568 1475.06 91.1572C1475.06 73.7461 1479.45 58.1766 1488.23 44.4486C1497.17 30.7206 1510.25 19.9223 1527.48 12.0539C1544.86 4.01795 1565.9 0 1590.57 0C1615.25 0 1636.19 4.01795 1653.42 12.0539C1670.8 19.9223 1683.89 30.7206 1692.66 44.4486C1701.61 58.1766 1706.08 73.7461 1706.08 91.1572C1706.08 108.568 1701.61 124.138 1692.66 137.866C1683.89 151.594 1670.8 162.476 1653.42 170.512C1636.19 178.38 1615.25 182.314 1590.57 182.314ZM1590.57 145.902C1605.97 145.902 1618.97 143.558 1629.57 138.87C1640.33 134.015 1648.37 127.486 1653.66 119.283C1659.13 110.912 1661.86 101.537 1661.86 91.1572C1661.86 80.7775 1659.13 71.486 1653.66 63.2827C1648.37 54.912 1640.33 48.3828 1629.57 43.6952C1618.97 38.8402 1605.97 36.4127 1590.57 36.4127C1575.17 36.4127 1562.09 38.8402 1551.32 43.6952C1540.72 48.3828 1532.69 54.912 1527.23 63.2827C1521.93 71.486 1519.28 80.7775 1519.28 91.1572C1519.28 101.537 1521.93 110.912 1527.23 119.283C1532.69 127.486 1540.72 134.015 1551.32 138.87C1562.09 143.558 1575.17 145.902 1590.57 145.902Z" fill="#0A0A0A"/>
<path d="M1426.08 69.1066V2.92188H1470.25V178.412H1426.08V106.21H1315.17V178.412H1271V2.92188H1315.17V69.1066H1426.08Z" fill="#0A0A0A"/>
<path d="M1162.35 182.314C1126.66 182.314 1100.55 176.371 1084.02 164.485C1067.5 152.431 1059.23 136.192 1059.23 115.767V112.503H1104.1V114.763C1104.1 137.196 1123.52 148.413 1162.35 148.413C1184.33 148.413 1199.45 146.404 1207.71 142.386C1216.14 138.368 1220.36 132.927 1220.36 126.063C1220.36 119.869 1217.63 115.265 1212.18 112.251C1206.72 109.071 1199.78 106.978 1191.35 105.973C1182.93 104.969 1171.44 104.132 1156.9 103.462C1136.41 102.458 1119.8 100.867 1107.08 98.6909C1094.35 96.5145 1083.36 91.9106 1074.11 84.8792C1065.02 77.8478 1060.47 67.3007 1060.47 53.2378C1060.47 37.166 1068.32 24.2751 1084.02 14.5651C1099.72 4.85502 1125.75 0 1162.1 0C1197.14 0 1222.84 5.85951 1239.2 17.5785C1255.72 29.2976 1263.98 44.7834 1263.98 64.0361V66.0451H1219.12V64.0361C1219.12 55.1631 1214.57 47.9643 1205.48 42.4396C1196.56 36.7475 1182.1 33.9015 1162.1 33.9015C1140.79 33.9015 1126 35.9104 1117.73 39.9284C1109.47 43.7789 1105.34 48.8851 1105.34 55.2468C1105.34 60.4367 1107.9 64.3709 1113.02 67.0495C1118.15 69.7282 1124.51 71.486 1132.11 72.3231C1139.88 73.1602 1150.78 73.8298 1164.83 74.3321C1185.65 75.1691 1202.76 76.6759 1216.14 78.8523C1229.53 80.8612 1241.01 85.5489 1250.6 92.9151C1260.35 100.281 1265.22 111.331 1265.22 126.063C1265.22 143.139 1257.21 156.784 1241.18 166.996C1225.15 177.208 1198.87 182.314 1162.35 182.314Z" fill="#0A0A0A"/>
</mask>
<g mask="url(#mask0_2479_11473)">
<path d="M901.001 3.5L899.001 2L896 -8L973 -7.5V80.5C997 128 1002 167 1006.5 203L877 208C877 144.5 890.342 54.2313 901.5 62.5C902.304 63.0954 901.001 55 901.501 53.5C902.001 52 898.501 54 897.501 52C896.501 50 905.901 41.3 903.501 39.5C901.501 38 902.501 35.5 901.501 33C900.386 30.2146 895.001 33.5 895.001 26.5C895.001 22.2561 897.001 25.0089 897.001 21C897.001 19.5 894.501 19 894.501 17.5C894.501 12.8086 903.501 5.5 901.001 3.5Z" fill="#F1F1F1"/>
</g>
</g>
<g style="mix-blend-mode:color-dodge">
<path d="M93.3154 63.0283C100.342 74.6617 103.854 84.9064 103.854 93.7617V97.4082H108.225V93.7617C108.225 84.5592 111.738 74.3145 118.765 63.0283L159.639 0H211.823L128.79 124.755V182.314H83.0322V124.755L0 0H52.4414L93.3154 63.0283ZM387.844 171.713V0H458.998L555.069 154.707H559.437C557.21 147.241 555.498 139.948 554.299 132.829C553.271 125.71 552.758 117.029 552.758 106.784V0H596.684V182.314H525.529L429.458 27.6074H425.091C427.317 35.0736 428.944 42.3664 429.972 49.4854C431.17 56.6043 431.77 65.286 431.77 75.5303V182.314H344.528L331.171 152.363H229.969L216.612 182.314H168.066L253.6 0H307.283L387.844 171.713ZM700.176 0C723.437 0 743.363 3.99336 759.954 11.9805C776.545 19.7939 789.116 30.5594 797.668 44.2764C806.22 57.9933 810.495 73.6204 810.495 91.1572C810.495 108.694 806.22 124.321 797.668 138.038C789.116 151.755 776.545 162.608 759.954 170.595C743.363 178.408 723.437 182.314 700.176 182.314H609.612V0H700.176ZM901.001 0L903.001 1.5C905.5 3.50027 896.501 10.8088 896.501 15.5C896.501 17 899.001 17.5 899.001 19C899.001 23.0089 897.001 20.2561 897.001 24.5C897.001 27.0903 897.739 28.2708 898.725 28.873C898.677 33.7689 897.91 38.9904 896.418 44.5371C895.048 50.0933 892.565 57.2121 888.969 65.8936L866.365 116.421H885.553C883.965 127.704 882.586 139.93 881.509 152.363H850.184L836.826 182.314H788.28L873.814 0H901.001ZM1036.01 138.442C1042.93 138.442 1048.53 140.544 1052.81 144.746C1057.09 148.78 1059.23 153.991 1059.23 160.379C1059.23 166.766 1057.09 172.061 1052.81 176.264C1048.53 180.298 1042.93 182.314 1036.01 182.314C1029.09 182.314 1023.49 180.298 1019.21 176.264C1015.09 172.061 1013.03 166.766 1013.03 160.379C1013.03 153.991 1015.09 148.78 1019.21 144.746C1023.49 140.544 1029.09 138.442 1036.01 138.442ZM1162.1 0C1197.14 1.36112e-05 1222.84 5.8592 1239.2 17.5781C1255.72 29.2971 1263.98 44.7835 1263.98 64.0361V66.0449H1219.12V64.0361C1219.12 55.1632 1214.57 47.9641 1205.48 42.4395C1196.56 36.7474 1182.1 33.9014 1162.1 33.9014C1140.79 33.9014 1126 35.9108 1117.73 39.9287C1109.47 43.7792 1105.34 48.8854 1105.34 55.2471C1105.34 60.4368 1107.9 64.3712 1113.02 67.0498C1118.15 69.7283 1124.51 71.4862 1132.11 72.3232C1139.88 73.1603 1150.78 73.8298 1164.83 74.332C1185.65 75.1691 1202.76 76.6762 1216.14 78.8525C1229.53 80.8615 1241.01 85.5489 1250.6 92.915C1260.35 100.281 1265.22 111.331 1265.22 126.063C1265.22 143.14 1257.21 156.784 1241.18 166.996C1225.15 177.208 1198.87 182.314 1162.35 182.314C1126.66 182.314 1100.55 176.371 1084.02 164.484C1067.5 152.431 1059.23 136.192 1059.23 115.768V112.503H1104.1V114.763C1104.1 137.196 1123.52 148.413 1162.35 148.413C1184.33 148.413 1199.45 146.404 1207.71 142.386C1216.14 138.368 1220.36 132.927 1220.36 126.063C1220.36 119.869 1217.63 115.265 1212.18 112.252C1206.72 109.071 1199.78 106.978 1191.35 105.974C1182.93 104.969 1171.44 104.132 1156.9 103.462C1136.41 102.457 1119.8 100.867 1107.08 98.6904C1094.35 96.514 1083.36 91.9103 1074.11 84.8789C1065.02 77.8476 1060.47 67.3007 1060.47 53.2383C1060.47 37.1665 1068.32 24.2755 1084.02 14.5654C1099.72 4.85546 1125.75 0 1162.1 0ZM1590.57 0C1615.24 0 1636.19 4.01781 1653.42 12.0537C1670.8 19.9222 1683.89 30.7203 1692.66 44.4482C1701.61 58.1762 1706.08 73.7461 1706.08 91.1572C1706.08 108.568 1701.61 124.138 1692.66 137.866C1683.89 151.594 1670.8 162.476 1653.42 170.512C1636.19 178.38 1615.24 182.314 1590.57 182.314C1565.89 182.314 1544.86 178.38 1527.48 170.512C1510.25 162.476 1497.17 151.594 1488.23 137.866C1479.45 124.138 1475.06 108.568 1475.06 91.1572C1475.06 73.7461 1479.45 58.1762 1488.23 44.4482C1497.17 30.7204 1510.25 19.9221 1527.48 12.0537C1544.86 4.01797 1565.89 2.65058e-05 1590.57 0ZM1013.03 182.314H1006.06C1005.03 174.914 1003.85 167.357 1002.37 159.601L1013.03 182.314ZM1315.17 69.1094H1426.08V2.9248H1470.25V178.415H1426.08V106.213H1315.17V178.415H1271V2.9248H1315.17V69.1094ZM1822.74 2.9248C1846.79 2.9248 1864.94 8.35705 1877.21 19.2207C1889.49 29.9171 1895.62 44.7079 1895.62 63.5938C1895.62 82.4798 1889.49 97.3551 1877.21 108.219C1864.94 119.082 1846.79 124.515 1822.74 124.515H1755.08V178.415H1710.81V2.9248H1822.74ZM1590.57 36.4131C1575.17 36.4131 1562.09 38.8404 1551.32 43.6953C1540.72 48.3829 1532.69 54.9117 1527.23 63.2822C1521.93 71.4855 1519.28 80.7775 1519.28 91.1572C1519.28 101.537 1521.93 110.912 1527.23 119.283C1532.69 127.486 1540.72 134.015 1551.32 138.87C1562.09 143.558 1575.17 145.901 1590.57 145.901C1605.97 145.901 1618.97 143.558 1629.57 138.87C1640.33 134.015 1648.36 127.486 1653.66 119.283C1659.13 110.912 1661.86 101.537 1661.86 91.1572C1661.86 80.7775 1659.13 71.4855 1653.66 63.2822C1648.36 54.9118 1640.33 48.3828 1629.57 43.6953C1618.97 38.8403 1605.97 36.4131 1590.57 36.4131ZM655.279 144.55H700.176C713.859 144.55 725.575 142.292 735.324 137.777C745.073 133.089 752.429 126.752 757.389 118.765C762.349 110.604 764.828 101.401 764.828 91.1572C764.828 80.9131 762.349 71.7975 757.389 63.8105C752.429 55.6498 745.073 49.3113 735.324 44.7969C725.575 40.1089 713.859 37.7656 700.176 37.7656H655.279V144.55ZM278.516 28.3887C278.516 33.424 277.744 38.8072 276.203 44.5371C274.833 50.0933 272.351 57.2122 268.755 65.8936L246.151 116.421H314.989L292.386 65.8936C288.79 57.2121 286.221 50.0933 284.68 44.5371C283.31 38.8072 282.625 33.424 282.625 28.3887V27.6074H278.516V28.3887ZM1752.85 88.6641H1821C1830.95 88.6641 1838.5 86.4081 1843.64 81.8955C1848.78 77.3829 1851.35 71.2819 1851.35 63.5938C1851.35 55.9059 1848.78 49.8893 1843.64 45.5439C1838.5 41.0313 1830.95 38.7754 1821 38.7754H1752.85V88.6641ZM902.868 30.1855C903.137 30.3785 903.356 30.6371 903.501 31C904.501 33.5 903.501 36 905.501 37.5C906.423 38.1916 905.601 39.9004 904.299 41.8574C903.462 37.7844 902.985 33.8939 902.868 30.1855Z" fill="#F1F1F1"/>
</g>
</svg>
