<svg width="24" height="24" viewBox="0 0 24 24" fill="none" xmlns="http://www.w3.org/2000/svg">
<path fill-rule="evenodd" clip-rule="evenodd" d="M16.5 2C17.1904 2 17.75 2.55964 17.75 3.25C17.75 3.74101 17.4668 4.16525 17.0549 4.36937C16.824 4.48382 16.6201 4.68998 16.6201 4.94772V6.87891C16.6201 7.15505 16.844 7.37891 17.1201 7.37891H19.0526C19.3102 7.37891 19.5163 7.17526 19.6308 6.94451C19.8351 6.53291 20.2592 6.25 20.75 6.25C21.4404 6.25 22 6.80964 22 7.5C22 8.19036 21.4404 8.75 20.75 8.75C20.261 8.75 19.8377 8.46915 19.6324 8.05996C19.5174 7.83078 19.3119 7.62891 19.0555 7.62891H17.1201C16.844 7.62891 16.6201 7.85276 16.6201 8.12891V10.0481C16.6201 10.1417 16.6464 10.2335 16.6961 10.313L17.5845 11.735C17.6857 11.8971 17.6857 12.1028 17.5844 12.2649L16.6961 13.686C16.6465 13.7655 16.6201 13.8573 16.6201 13.951V15.8711C16.6201 16.1472 16.844 16.3711 17.1201 16.3711H19.0555C19.3119 16.3711 19.5174 16.1692 19.6324 15.94C19.8377 15.5308 20.261 15.25 20.75 15.25C21.4404 15.25 22 15.8096 22 16.5C22 17.1904 21.4404 17.75 20.75 17.75C20.2592 17.75 19.8351 17.4671 19.6308 17.0555C19.5163 16.8247 19.3102 16.6211 19.0526 16.6211H17.1201C16.844 16.6211 16.6201 16.845 16.6201 17.1211V19.0513C16.6201 19.309 16.824 19.5152 17.0549 19.6298C17.4669 19.8341 17.75 20.259 17.75 20.75C17.75 21.4404 17.1904 22 16.5 22C15.8096 22 15.25 21.4404 15.25 20.75C15.25 20.2612 15.5306 19.838 15.9395 19.6326C16.1685 19.5175 16.3701 19.3121 16.3701 19.0558V17.1211C16.3701 16.845 16.1463 16.6211 15.8701 16.6211H13.95C13.8563 16.6211 13.7645 16.6474 13.6851 16.6971L12.265 17.5844C12.1028 17.6857 11.8972 17.6857 11.735 17.5844L10.3149 16.6971C10.2355 16.6474 10.1437 16.6211 10.05 16.6211H8.12988C7.85374 16.6211 7.62988 16.845 7.62988 17.1211V19.0558C7.62988 19.3121 7.83153 19.5175 8.06052 19.6326C8.46941 19.838 8.75 20.2612 8.75 20.75C8.75 21.4404 8.19036 22 7.5 22C6.80964 22 6.25 21.4404 6.25 20.75C6.25 20.259 6.53315 19.8341 6.94508 19.6298C7.17598 19.5152 7.37988 19.309 7.37988 19.0513V17.1211C7.37988 16.845 7.15602 16.6211 6.87988 16.6211H4.94737C4.68977 16.6211 4.48368 16.8247 4.36918 17.0555C4.16492 17.4671 3.74079 17.75 3.25 17.75C2.55964 17.75 2 17.1904 2 16.5C2 15.8096 2.55964 15.25 3.25 15.25C3.73903 15.25 4.16232 15.5308 4.36763 15.94C4.48261 16.1692 4.68814 16.3711 4.94455 16.3711H6.87988C7.15602 16.3711 7.37988 16.1472 7.37988 15.8711V13.951C7.37988 13.8573 7.35354 13.7655 7.30387 13.686L6.41561 12.2649C6.31428 12.1028 6.31426 11.8971 6.41555 11.735L7.30393 10.313C7.35357 10.2335 7.37988 10.1417 7.37988 10.0481V8.12891C7.37988 7.85276 7.15602 7.62891 6.87988 7.62891H4.94455C4.68814 7.62891 4.48261 7.83078 4.36763 8.05996C4.16232 8.46915 3.73903 8.75 3.25 8.75C2.55964 8.75 2 8.19036 2 7.5C2 6.80964 2.55964 6.25 3.25 6.25C3.74079 6.25 4.16492 6.53291 4.36918 6.94451C4.48368 7.17526 4.68977 7.37891 4.94737 7.37891H6.87988C7.15602 7.37891 7.37988 7.15505 7.37988 6.87891V4.94772C7.37988 4.68998 7.17601 4.48382 6.94507 4.36937C6.53316 4.16525 6.25 3.74101 6.25 3.25C6.25 2.55964 6.80964 2 7.5 2C8.19036 2 8.75 2.55964 8.75 3.25C8.75 3.73878 8.4694 4.16139 8.06052 4.36657C7.8315 4.4815 7.62988 4.68694 7.62988 4.94318V6.87891C7.62988 7.15505 7.85374 7.37891 8.12988 7.37891H10.05C10.1437 7.37891 10.2355 7.35258 10.3149 7.30293L11.735 6.41556C11.8972 6.31426 12.1028 6.31426 12.265 6.41556L13.6851 7.30293C13.7645 7.35258 13.8563 7.37891 13.95 7.37891H15.8701C16.1463 7.37891 16.3701 7.15505 16.3701 6.87891V4.94318C16.3701 4.68694 16.1685 4.4815 15.9395 4.36657C15.5306 4.16139 15.25 3.73878 15.25 3.25C15.25 2.55964 15.8096 2 16.5 2ZM7.62988 10.0637C7.62988 10.1574 7.6562 10.2492 7.70583 10.3286L8.58445 11.735C8.68574 11.8971 8.68572 12.1028 8.58439 12.2649L7.7059 13.6704C7.65622 13.7499 7.62988 13.8417 7.62988 13.9354V15.8711C7.62988 16.1472 7.85374 16.3711 8.12988 16.3711H10.0627C10.1564 16.3711 10.2482 16.3448 10.3276 16.2951L11.735 15.4156C11.8971 15.3143 12.1029 15.3143 12.265 15.4156L13.6724 16.2951C13.7518 16.3448 13.8436 16.3711 13.9373 16.3711H15.8701C16.1463 16.3711 16.3701 16.1472 16.3701 15.8711V13.9354C16.3701 13.8417 16.3438 13.7499 16.2941 13.6704L15.4156 12.2649C15.3143 12.1028 15.3143 11.8971 15.4155 11.735L16.2942 10.3286C16.3438 10.2492 16.3701 10.1574 16.3701 10.0637V8.12891C16.3701 7.85276 16.1463 7.62891 15.8701 7.62891H13.9373C13.8436 7.62891 13.7518 7.65524 13.6724 7.70489L12.265 8.58441C12.1029 8.68572 11.8971 8.68572 11.735 8.58441L10.3276 7.70489C10.2482 7.65524 10.1564 7.62891 10.0627 7.62891H8.12988C7.85374 7.62891 7.62988 7.85276 7.62988 8.12891V10.0637Z" fill="#FF3C02"/>
</svg>
