<svg width="24" height="24" viewBox="0 0 24 24" fill="none" xmlns="http://www.w3.org/2000/svg">
<path d="M0 19.1669C0 20.2024 0.839484 21.0419 1.875 21.0419H22.125C23.1605 21.0419 24 20.2024 24 19.1669V9.32812H0V19.1669ZM3.53709 16.2384H6.7748C7.29258 16.2384 7.7123 16.6581 7.7123 17.1759C7.7123 17.6937 7.29258 18.1134 6.7748 18.1134H3.53709C3.01931 18.1134 2.59959 17.6937 2.59959 17.1759C2.59959 16.6581 3.01931 16.2384 3.53709 16.2384Z" fill="#0A0A0A" fill-opacity="0.4"/>
<path d="M24 4.82812C24 3.79261 23.1605 2.95312 22.125 2.95312H1.875C0.839484 2.95312 0 3.79261 0 4.82812V7.45448H24V4.82812Z" fill="#0A0A0A" fill-opacity="0.4"/>
</svg>
