<svg width="24" height="24" viewBox="0 0 24 24" fill="none" xmlns="http://www.w3.org/2000/svg">
<path d="M18.9701 8.92708C18.9701 8.65094 18.7462 8.42708 18.4701 8.42708H5.53255C5.25641 8.42708 5.03255 8.65094 5.03255 8.92708V18.7917C5.03259 19.289 5.23033 19.7664 5.58203 20.1181C5.93374 20.4696 6.4111 20.6667 6.90842 20.6667H17.0951C17.5922 20.6666 18.0689 20.4695 18.4206 20.1181C18.7723 19.7664 18.97 19.289 18.9701 18.7917V8.92708ZM20.3034 18.7917C20.3033 19.6426 19.9659 20.459 19.3641 21.0608C18.7624 21.6625 17.946 21.9999 17.0951 22H6.90842C6.05748 22 5.24108 21.6624 4.63932 21.0608C4.03757 20.459 3.69926 19.6427 3.69922 18.7917V7.59375C3.69922 7.31761 3.92308 7.09375 4.19922 7.09375H19.8034C20.0795 7.09375 20.3034 7.31761 20.3034 7.59375V18.7917Z" fill="#333333"/>
<path d="M15.5748 6.90625C15.5747 5.9587 15.1979 5.05024 14.5279 4.38021C13.8578 3.71008 12.9487 3.33333 12.001 3.33333C11.0534 3.33344 10.145 3.71018 9.47493 4.38021C8.8049 5.05024 8.42817 5.95869 8.42806 6.90625V9.80208C8.42806 10.0782 8.2042 10.3021 7.92806 10.3021H7.59473C7.31858 10.3021 7.09473 10.0782 7.09473 9.80208V6.90625C7.09484 5.60507 7.61215 4.35758 8.53223 3.4375C9.45231 2.51742 10.6998 2.00011 12.001 2C13.3023 2 14.5504 2.51732 15.4706 3.4375C16.3907 4.35758 16.908 5.60508 16.9081 6.90625V9.80208C16.9081 10.0782 16.6842 10.3021 16.4081 10.3021H16.0748C15.7986 10.3021 15.5748 10.0782 15.5748 9.80208V6.90625Z" fill="#333333"/>
<rect x="14" y="14" width="10" height="10" rx="5" fill="#0A0A0A"/>
<path d="M18.5187 22V19.4813H16V18.5121H18.5187V16H19.4879V18.5121H22V19.4813H19.4879V22H18.5187Z" fill="white"/>
</svg>
