<svg width="30" height="30" viewBox="0 0 30 30" fill="none" xmlns="http://www.w3.org/2000/svg">
<path d="M23.7135 11.1589C23.7135 10.8137 23.4337 10.5339 23.0885 10.5339H6.91667C6.57149 10.5339 6.29167 10.8137 6.29167 11.1589V23.4896C6.29171 24.1113 6.53889 24.7079 6.97852 25.1476C7.41816 25.5871 8.01485 25.8333 8.6365 25.8333H21.3698C21.9912 25.8332 22.5871 25.5869 23.0267 25.1476C23.4663 24.7079 23.7135 24.1113 23.7135 23.4896V11.1589ZM25.3802 23.4896C25.3802 24.5533 24.9583 25.5738 24.2062 26.326C23.454 27.0781 22.4335 27.4999 21.3698 27.5H8.6365C7.57282 27.5 6.55233 27.078 5.80013 26.326C5.04794 25.5738 4.62505 24.5533 4.625 23.4896V9.49219C4.625 9.14701 4.90482 8.86719 5.25 8.86719H24.7552C25.1004 8.86719 25.3802 9.14701 25.3802 9.49219V23.4896Z" fill="#0A0A0A"/>
<path d="M19.4694 8.63281C19.4693 7.44838 18.9984 6.3128 18.1608 5.47526C17.3232 4.6376 16.1868 4.16667 15.0022 4.16667C13.8178 4.1668 12.6822 4.63772 11.8446 5.47526C11.0071 6.3128 10.5362 7.44837 10.5361 8.63281V12.2526C10.5361 12.5978 10.2562 12.8776 9.91105 12.8776H9.49439C9.14921 12.8776 8.86938 12.5978 8.86938 12.2526V8.63281C8.86952 7.00634 9.51616 5.44697 10.6663 4.29687C11.8164 3.14677 13.3757 2.50014 15.0022 2.5C16.6289 2.5 18.189 3.14665 19.3392 4.29687C20.4893 5.44697 21.136 7.00635 21.1361 8.63281V12.2526C21.1361 12.5978 20.8563 12.8776 20.5111 12.8776H20.0944C19.7493 12.8776 19.4694 12.5978 19.4694 12.2526V8.63281Z" fill="#0A0A0A"/>
</svg>
