<svg width="24" height="24" viewBox="0 0 24 24" fill="none" xmlns="http://www.w3.org/2000/svg">
<path d="M5.24784 4.61117C5.36496 4.49419 5.55471 4.49419 5.67183 4.61117L11.647 10.5864C11.8423 10.7816 12.1589 10.7816 12.3541 10.5864L18.3293 4.61117C18.4464 4.49419 18.6362 4.49419 18.7533 4.61117L19.39 5.24784C19.5069 5.36496 19.5069 5.55471 19.39 5.67183L13.4148 11.647C13.2195 11.8423 13.2195 12.1589 13.4148 12.3541L19.39 18.3293C19.5069 18.4464 19.5069 18.6362 19.39 18.7533L18.7533 19.39C18.6362 19.5069 18.4464 19.5069 18.3293 19.39L12.3541 13.4148C12.1589 13.2195 11.8423 13.2195 11.647 13.4148L5.67183 19.39C5.55471 19.5069 5.36496 19.5069 5.24784 19.39L4.61117 18.7533C4.49419 18.6362 4.49419 18.4464 4.61117 18.3293L10.5864 12.3541C10.7816 12.1589 10.7816 11.8423 10.5864 11.647L4.61117 5.67183C4.49419 5.55471 4.49419 5.36496 4.61117 5.24784L5.24784 4.61117Z" fill="#333333"/>
</svg>
