<svg width="30" height="30" viewBox="0 0 30 30" fill="none" xmlns="http://www.w3.org/2000/svg">
<path d="M14.1528 2.5C18.023 2.50031 21.1606 5.63848 21.1606 9.50879C21.1604 11.9865 19.873 14.1622 17.9321 15.4082C19.3894 15.8887 20.7534 16.6644 21.9399 17.7061C23.912 19.4377 25.2792 21.7949 25.8452 24.4053L25.9467 24.9307L26.2524 26.7119C26.299 26.984 26.1162 27.2423 25.8442 27.2891L25.1088 27.415C24.8366 27.4618 24.5784 27.279 24.5317 27.0068L24.226 25.2275C23.8027 22.7904 22.5827 20.594 20.7885 19.0186C19.1068 17.5419 17.02 16.6961 14.853 16.5957L14.4184 16.5859C12.0998 16.5858 9.84749 17.4408 8.05414 19.0117C6.26104 20.5827 5.03838 22.7717 4.61078 25.2041L4.61176 25.2051L4.30609 26.9844C4.25939 27.2565 4.0011 27.4393 3.72894 27.3926L3.36078 27.3291L2.99457 27.2666C2.72215 27.2202 2.53868 26.9618 2.58539 26.6895L2.89105 24.9092V24.9072L2.99457 24.3818C3.56465 21.7757 4.93309 19.4244 6.90473 17.6973C7.99579 16.7416 9.23611 16.0096 10.561 15.5254C8.5151 14.3017 7.14421 12.0659 7.14398 9.50879C7.14398 5.63831 10.2823 2.50004 14.1528 2.5ZM14.1528 4.24609C11.2466 4.24613 8.89008 6.60256 8.89008 9.50879C8.89042 12.4147 11.2468 14.7705 14.1528 14.7705C17.0586 14.7702 19.4142 12.4146 19.4145 9.50879C19.4145 6.60273 17.0588 4.2464 14.1528 4.24609Z" fill="white" fill-opacity="0.8"/>
</svg>
