<svg width="30" height="30" viewBox="0 0 30 30" fill="none" xmlns="http://www.w3.org/2000/svg">
<path d="M14.1519 2.5C18.0222 2.50031 21.1597 5.63848 21.1597 9.50879C21.1595 11.9865 19.8722 14.1622 17.9312 15.4082C19.3885 15.8887 20.7526 16.6644 21.939 17.7061C23.9111 19.4377 25.2783 21.7949 25.8443 24.4053L25.9459 24.9307L26.2515 26.7119C26.2981 26.984 26.1154 27.2423 25.8433 27.2891L25.108 27.415C24.8358 27.4618 24.5775 27.279 24.5308 27.0068L24.2252 25.2275C23.8018 22.7904 22.5819 20.594 20.7877 19.0186C19.1059 17.5419 17.0192 16.6961 14.8521 16.5957L14.4175 16.5859C12.099 16.5858 9.84663 17.4408 8.05329 19.0117C6.26019 20.5827 5.03753 22.7717 4.60993 25.2041L4.6109 25.2051L4.30524 26.9844C4.25853 27.2565 4.00025 27.4393 3.72809 27.3926L3.35993 27.3291L2.99371 27.2666C2.72129 27.2202 2.53782 26.9618 2.58454 26.6895L2.8902 24.9092V24.9072L2.99371 24.3818C3.5638 21.7757 4.93223 19.4244 6.90387 17.6973C7.99494 16.7416 9.23526 16.0096 10.5601 15.5254C8.51424 14.3017 7.14335 12.0659 7.14313 9.50879C7.14313 5.63831 10.2814 2.50004 14.1519 2.5ZM14.1519 4.24609C11.2457 4.24613 8.88922 6.60256 8.88922 9.50879C8.88956 12.4147 11.2459 14.7705 14.1519 14.7705C17.0577 14.7702 19.4133 12.4146 19.4136 9.50879C19.4136 6.60273 17.0579 4.2464 14.1519 4.24609Z" fill="#333333"/>
</svg>
