<svg width="24" height="24" viewBox="0 0 24 24" fill="none" xmlns="http://www.w3.org/2000/svg">
<path d="M12.4502 2C12.6157 2.00011 12.7499 2.13427 12.75 2.2998V8.30271C12.75 8.43529 12.8027 8.56244 12.8964 8.6562L15.3428 11.1035C15.4366 11.1973 15.5638 11.25 15.6964 11.25H21.7002C21.8657 11.2501 21.9999 11.3843 22 11.5498V12.4502C21.9999 12.6157 21.8657 12.7499 21.7002 12.75H15.7022C15.5696 12.75 15.4424 12.8027 15.3487 12.8964L12.8964 15.3487C12.8027 15.4424 12.75 15.5696 12.75 15.7022V21.7002C12.7499 21.8657 12.6157 21.9999 12.4502 22H11.5498C11.3843 21.9999 11.2501 21.8657 11.25 21.7002V15.7022C11.25 15.5696 11.1973 15.4424 11.1036 15.3487L8.65133 12.8964C8.55756 12.8027 8.43038 12.75 8.29778 12.75H2.2998C2.13427 12.7499 2.00011 12.6157 2 12.4502V11.5498C2.0001 11.3843 2.13427 11.2501 2.2998 11.25H8.30358C8.43622 11.25 8.56343 11.1973 8.6572 11.1035L11.1036 8.6562C11.1973 8.56244 11.25 8.43529 11.25 8.30271V2.2998C11.2501 2.13427 11.3843 2.00011 11.5498 2H12.4502Z" fill="#FF3C02"/>
</svg>
