<svg width="24" height="24" viewBox="0 0 24 24" fill="none" xmlns="http://www.w3.org/2000/svg">
<path d="M21.75 8.69434C21.75 11.1834 20.1824 13.0296 18.8379 14.4121L18.8369 14.4111L12.543 21.0176C12.4014 21.1661 12.2051 21.25 12 21.25C11.7949 21.25 11.5986 21.1661 11.457 21.0176L5.15723 14.4062C3.84269 13.0716 2.34728 11.3014 2.25488 8.92676L2.25 8.69434C2.25003 7.12916 2.84256 5.62115 3.90723 4.50391C4.97307 3.38556 6.42658 2.75 7.9502 2.75L8.27246 2.75586C9.01745 2.78564 9.70427 2.92489 10.375 3.23145C10.9417 3.49055 11.4707 3.85741 12 4.33887C12.5293 3.85741 13.0583 3.49055 13.625 3.23145C14.3913 2.88119 15.1785 2.75002 16.0498 2.75C17.5734 2.75 19.0269 3.38556 20.0928 4.50391C21.1574 5.62115 21.75 7.12916 21.75 8.69434Z" fill="#0A0A0A"/>
</svg>
