<svg width="30" height="30" viewBox="0 0 30 30" fill="none" xmlns="http://www.w3.org/2000/svg">
<path d="M25.3125 10.8679C25.3125 9.38035 24.7484 7.96258 23.7585 6.92383C22.7701 5.88663 21.4396 5.3125 20.0623 5.3125C19.1716 5.31252 18.4676 5.44465 17.8113 5.74463C17.1472 6.04818 16.471 6.5514 15.6787 7.38281C15.5018 7.56848 15.2565 7.67334 15 7.67334C14.7435 7.67334 14.4982 7.56848 14.3213 7.38281C13.529 6.5514 12.8528 6.04818 12.1887 5.74463C11.6145 5.4822 11.0039 5.34795 10.2637 5.3186L9.93774 5.3125C8.56038 5.3125 7.22988 5.88663 6.24146 6.92383C5.25159 7.96258 4.68753 9.38035 4.6875 10.8679L4.70337 11.2952C4.8447 13.1228 5.88131 14.6469 7.17773 16.0583L7.79297 16.7029L7.80396 16.7139L15 24.2651L22.196 16.7139L22.2034 16.7078L22.8162 16.0571C24.2114 14.5248 25.3125 12.8766 25.3125 10.8679ZM27.1875 10.8679C27.1875 13.9793 25.228 16.287 23.5474 18.0151L23.5461 18.0139L15.6787 26.272C15.5018 26.4576 15.2564 26.5625 15 26.5625C14.7436 26.5625 14.4982 26.4576 14.3213 26.272L6.44653 18.0078V18.0066C4.80336 16.3383 2.9341 14.1268 2.8186 11.1584L2.8125 10.8679C2.81253 8.91145 3.5532 7.02643 4.88403 5.62988C6.21633 4.23195 8.03323 3.4375 9.93774 3.4375L10.3406 3.44482C11.2718 3.48205 12.1303 3.65611 12.9688 4.03931C13.6772 4.36319 14.3384 4.82177 15 5.42358C15.6616 4.82177 16.3228 4.36319 17.0312 4.03931C17.9892 3.60149 18.9732 3.43752 20.0623 3.4375C21.9668 3.4375 23.7837 4.23195 25.116 5.62988C26.4468 7.02643 27.1875 8.91145 27.1875 10.8679Z" fill="#333333"/>
</svg>
