<svg width="24" height="24" viewBox="0 0 24 24" fill="none" xmlns="http://www.w3.org/2000/svg">
<path d="M14 16.25C14.4142 16.25 14.75 16.5858 14.75 17C14.75 17.4142 14.4142 17.75 14 17.75H10C9.58579 17.75 9.25 17.4142 9.25 17C9.25 16.5858 9.58579 16.25 10 16.25H14ZM17 11.25C17.4142 11.25 17.75 11.5858 17.75 12C17.75 12.4142 17.4142 12.75 17 12.75H7C6.58579 12.75 6.25 12.4142 6.25 12C6.25 11.5858 6.58579 11.25 7 11.25H17ZM19.5 6.25C19.9142 6.25 20.25 6.58579 20.25 7C20.25 7.41421 19.9142 7.75 19.5 7.75H4.5C4.08579 7.75 3.75 7.41421 3.75 7C3.75 6.58579 4.08579 6.25 4.5 6.25H19.5Z" fill="#333333"/>
</svg>
