<svg width="1777" height="114" viewBox="0 0 1777 114" fill="none" xmlns="http://www.w3.org/2000/svg">
<g style="mix-blend-mode:exclusion">
<path d="M0.81 101V91.12L77.25 8.7L83.75 13.9H1.33V3.49999H88.69V13.25L12.25 95.8L6.4 90.6H89.08V101H0.81ZM105.067 76.82V66.42H173.707V76.82H105.067ZM147.057 3.49999L195.027 101H181.767L136.657 7.65999H143.157L97.917 101H84.657L132.627 3.49999H147.057ZM206.349 49.52H248.209C254.622 49.52 259.736 47.9167 263.549 44.71C267.449 41.5033 269.399 37.2133 269.399 31.84C269.399 26.38 267.449 22.09 263.549 18.97C259.736 15.7633 254.622 14.16 248.209 14.16H204.659L210.119 7.65999V101H197.899V3.49999H248.599C255.186 3.49999 260.949 4.71333 265.889 7.13999C270.829 9.47999 274.686 12.7733 277.459 17.02C280.319 21.2667 281.749 26.2067 281.749 31.84C281.749 37.3867 280.319 42.2833 277.459 46.53C274.686 50.7767 270.829 54.1133 265.889 56.54C260.949 58.88 255.186 60.05 248.599 60.05H206.349V49.52ZM227.929 55.37H243.009L283.699 101H268.489L227.929 55.37ZM297.929 76.82V66.42H366.569V76.82H297.929ZM339.919 3.49999L387.889 101H374.629L329.519 7.65999H336.019L290.779 101H277.519L325.489 3.49999H339.919ZM377.501 104.9H443.151V113.48H377.501V104.9ZM470.376 -0.0100013H480.646L444.246 104.51H433.976L470.376 -0.0100013ZM492.095 -0.0100013H502.365L465.965 104.51H455.695L492.095 -0.0100013ZM493.186 104.9H558.836V113.48H493.186V104.9ZM552.261 69.41H564.611C565.218 74.0033 567.038 78.0333 570.071 81.5C573.104 84.9667 577.091 87.6533 582.031 89.56C587.058 91.38 592.821 92.29 599.321 92.29C609.114 92.29 616.871 90.6433 622.591 87.35C628.398 83.97 631.301 79.42 631.301 73.7C631.301 69.28 629.481 65.9 625.841 63.56C622.288 61.22 616.048 59.53 607.121 58.49L588.271 56.15C576.398 54.7633 567.861 51.9467 562.661 47.7C557.461 43.3667 554.861 37.56 554.861 30.28C554.861 24.4733 556.594 19.4467 560.061 15.2C563.528 10.8667 568.381 7.57333 574.621 5.31999C580.948 2.98 588.314 1.81 596.721 1.81C605.128 1.81 612.581 3.11 619.081 5.70999C625.668 8.22333 630.868 11.7767 634.681 16.37C638.581 20.8767 640.704 26.2067 641.051 32.36H628.701C628.181 28.2 626.534 24.6467 623.761 21.7C620.988 18.6667 617.261 16.3267 612.581 14.68C607.988 12.9467 602.614 12.08 596.461 12.08C587.534 12.08 580.384 13.6833 575.011 16.89C569.724 20.01 567.081 24.3867 567.081 30.02C567.081 34.3533 568.814 37.69 572.281 40.03C575.834 42.2833 581.814 43.93 590.221 44.97L608.681 47.44C617.261 48.48 624.064 49.9967 629.091 51.99C634.204 53.9833 637.888 56.67 640.141 60.05C642.394 63.3433 643.521 67.5467 643.521 72.66C643.521 78.8133 641.658 84.1433 637.931 88.65C634.291 93.1567 629.134 96.6233 622.461 99.05C615.788 101.477 608.031 102.69 599.191 102.69C590.264 102.69 582.334 101.303 575.401 98.53C568.468 95.67 562.964 91.77 558.891 86.83C554.818 81.8033 552.608 75.9967 552.261 69.41ZM659.008 49.52H700.868C707.281 49.52 712.395 47.9167 716.208 44.71C720.108 41.5033 722.058 37.2133 722.058 31.84C722.058 26.38 720.108 22.09 716.208 18.97C712.395 15.7633 707.281 14.16 700.868 14.16H657.318L662.778 7.65999V101H650.558V3.49999H701.258C707.845 3.49999 713.608 4.71333 718.548 7.13999C723.488 9.47999 727.345 12.7733 730.118 17.02C732.978 21.2667 734.408 26.2067 734.408 31.84C734.408 37.3867 732.978 42.2833 730.118 46.53C727.345 50.7767 723.488 54.1133 718.548 56.54C713.608 58.88 707.845 60.05 701.258 60.05H659.008V49.52ZM680.588 55.37H695.668L736.358 101H721.148L680.588 55.37ZM792.529 3.49999C799.376 3.49999 805.313 4.71333 810.339 7.13999C815.366 9.56666 819.266 12.99 822.039 17.41C824.813 21.7433 826.199 26.77 826.199 32.49C826.199 38.21 824.813 43.28 822.039 47.7C819.266 52.0333 815.366 55.4567 810.339 57.97C805.313 60.3967 799.376 61.61 792.529 61.61H748.069V50.95H792.269C798.856 50.95 804.056 49.3033 807.869 46.01C811.769 42.63 813.719 38.1233 813.719 32.49C813.719 26.8567 811.769 22.3933 807.869 19.1C804.056 15.8067 798.856 14.16 792.269 14.16H749.369L754.829 8.17999V101H742.609V3.49999H792.529ZM843.199 3.49999V95.54L837.739 90.21H911.449V101H830.979V3.49999H843.199ZM903.708 69.41H916.058C916.664 74.0033 918.484 78.0333 921.518 81.5C924.551 84.9667 928.538 87.6533 933.478 89.56C938.504 91.38 944.268 92.29 950.768 92.29C960.561 92.29 968.318 90.6433 974.038 87.35C979.844 83.97 982.748 79.42 982.748 73.7C982.748 69.28 980.928 65.9 977.288 63.56C973.734 61.22 967.494 59.53 958.568 58.49L939.718 56.15C927.844 54.7633 919.308 51.9467 914.108 47.7C908.908 43.3667 906.308 37.56 906.308 30.28C906.308 24.4733 908.041 19.4467 911.508 15.2C914.974 10.8667 919.828 7.57333 926.068 5.31999C932.394 2.98 939.761 1.81 948.168 1.81C956.574 1.81 964.028 3.11 970.528 5.70999C977.114 8.22333 982.314 11.7767 986.128 16.37C990.028 20.8767 992.151 26.2067 992.498 32.36H980.148C979.628 28.2 977.981 24.6467 975.208 21.7C972.434 18.6667 968.708 16.3267 964.028 14.68C959.434 12.9467 954.061 12.08 947.908 12.08C938.981 12.08 931.831 13.6833 926.458 16.89C921.171 20.01 918.528 24.3867 918.528 30.02C918.528 34.3533 920.261 37.69 923.728 40.03C927.281 42.2833 933.261 43.93 941.668 44.97L960.128 47.44C968.708 48.48 975.511 49.9967 980.538 51.99C985.651 53.9833 989.334 56.67 991.588 60.05C993.841 63.3433 994.968 67.5467 994.968 72.66C994.968 78.8133 993.104 84.1433 989.378 88.65C985.738 93.1567 980.581 96.6233 973.908 99.05C967.234 101.477 959.478 102.69 950.638 102.69C941.711 102.69 933.781 101.303 926.848 98.53C919.914 95.67 914.411 91.77 910.338 86.83C906.264 81.8033 904.054 75.9967 903.708 69.41ZM988.745 104.9H1054.39V113.48H988.745V104.9ZM1154.42 63.43C1153.55 71.1433 1150.82 77.99 1146.23 83.97C1141.64 89.8633 1135.61 94.4567 1128.16 97.75C1120.79 101.043 1112.34 102.69 1102.81 102.69C1092.06 102.69 1082.62 100.567 1074.47 96.32C1066.41 92.0733 1060.13 86.18 1055.62 78.64C1051.11 71.0133 1048.86 62.2167 1048.86 52.25C1048.86 42.1967 1051.11 33.4 1055.62 25.86C1060.13 18.32 1066.41 12.4267 1074.47 8.17999C1082.62 3.93333 1092.06 1.81 1102.81 1.81C1112.34 1.81 1120.79 3.45666 1128.16 6.75C1135.61 10.0433 1141.64 14.6367 1146.23 20.53C1150.82 26.3367 1153.55 33.14 1154.42 40.94H1142.07C1141.03 35.22 1138.78 30.28 1135.31 26.12C1131.84 21.8733 1127.34 18.6233 1121.79 16.37C1116.24 14.03 1109.87 12.86 1102.68 12.86C1094.27 12.86 1086.95 14.4633 1080.71 17.67C1074.56 20.8767 1069.79 25.4267 1066.41 31.32C1063.03 37.2133 1061.34 44.19 1061.34 52.25C1061.34 60.2233 1063.03 67.1567 1066.41 73.05C1069.79 78.9433 1074.56 83.5367 1080.71 86.83C1086.95 90.0367 1094.27 91.64 1102.68 91.64C1109.87 91.64 1116.24 90.5133 1121.79 88.26C1127.34 85.92 1131.84 82.67 1135.31 78.51C1138.78 74.2633 1141.03 69.2367 1142.07 63.43H1154.42ZM1173.44 3.49999V95.54L1167.98 90.21H1241.69V101H1161.22V3.49999H1173.44ZM1257.12 3.49999V95.54L1251.66 90.21H1325.37V101H1244.9V3.49999H1257.12ZM1421.43 63.43C1420.57 71.1433 1417.84 77.99 1413.24 83.97C1408.65 89.8633 1402.63 94.4567 1395.17 97.75C1387.81 101.043 1379.36 102.69 1369.82 102.69C1359.08 102.69 1349.63 100.567 1341.48 96.32C1333.42 92.0733 1327.14 86.18 1322.63 78.64C1318.13 71.0133 1315.87 62.2167 1315.87 52.25C1315.87 42.1967 1318.13 33.4 1322.63 25.86C1327.14 18.32 1333.42 12.4267 1341.48 8.17999C1349.63 3.93333 1359.08 1.81 1369.82 1.81C1379.36 1.81 1387.81 3.45666 1395.17 6.75C1402.63 10.0433 1408.65 14.6367 1413.24 20.53C1417.84 26.3367 1420.57 33.14 1421.43 40.94H1409.08C1408.04 35.22 1405.79 30.28 1402.32 26.12C1398.86 21.8733 1394.35 18.6233 1388.8 16.37C1383.26 14.03 1376.89 12.86 1369.69 12.86C1361.29 12.86 1353.96 14.4633 1347.72 17.67C1341.57 20.8767 1336.8 25.4267 1333.42 31.32C1330.04 37.2133 1328.35 44.19 1328.35 52.25C1328.35 60.2233 1330.04 67.1567 1333.42 73.05C1336.8 78.9433 1341.57 83.5367 1347.72 86.83C1353.96 90.0367 1361.29 91.64 1369.69 91.64C1376.89 91.64 1383.26 90.5133 1388.8 88.26C1394.35 85.92 1398.86 82.67 1402.32 78.51C1405.79 74.2633 1408.04 69.2367 1409.08 63.43H1421.43ZM1454.76 9.34999H1466.98V101H1454.76V9.34999ZM1412.9 3.49999H1508.84V14.29H1412.9V3.49999ZM1602 94.89L1596.02 95.28V3.49999H1607.85V101H1592.12L1517.89 9.22L1523.87 8.82999V101H1512.04V3.49999H1527.9L1602 94.89ZM1661.14 3.49999V90.6H1694.68V101H1611.74V90.6H1648.92V14.29L1615.9 19.88V9.87L1651.78 3.49999H1661.14ZM1757.87 3.49999V101H1745.65V8.30999H1751.5L1693.13 73.57L1692.87 69.02H1776.85V79.16H1682.6V70.19L1742.27 3.49999H1757.87Z" fill="#F1F1F1"/>
</g>
</svg>
