<svg width="1941" height="126" viewBox="0 0 1941 126" fill="none" xmlns="http://www.w3.org/2000/svg">
<g style="mix-blend-mode:exclusion">
<path d="M50.75 4.49999C57.5967 4.49999 63.5333 5.71333 68.56 8.13999C73.5867 10.5667 77.4867 13.99 80.26 18.41C83.0333 22.7433 84.42 27.77 84.42 33.49C84.42 39.21 83.0333 44.28 80.26 48.7C77.4867 53.0333 73.5867 56.4567 68.56 58.97C63.5333 61.3967 57.5967 62.61 50.75 62.61H6.29V51.95H50.49C57.0767 51.95 62.2767 50.3033 66.09 47.01C69.99 43.63 71.94 39.1233 71.94 33.49C71.94 27.8567 69.99 23.3933 66.09 20.1C62.2767 16.8067 57.0767 15.16 50.49 15.16H7.59L13.05 9.17999V102H0.830001V4.49999H50.75ZM87.1195 28.55H92.9695H99.0795V102H87.1195V28.55ZM92.9695 17.76C90.5429 17.76 88.4629 17.0233 86.7295 15.55C85.0829 13.99 84.2595 12.0833 84.2595 9.82999C84.2595 7.48999 85.0829 5.58333 86.7295 4.11C88.4629 2.55 90.5429 1.77 92.9695 1.77C95.5695 1.77 97.6929 2.55 99.3395 4.11C100.986 5.58333 101.81 7.48999 101.81 9.82999C101.81 12.0833 100.986 13.99 99.3395 15.55C97.6929 17.0233 95.5695 17.76 92.9695 17.76ZM108.857 28.81H120.817V53.64V102H108.857V51.95V28.81ZM151.107 27.12C157.954 27.12 163.76 28.5067 168.527 31.28C173.294 33.9667 176.934 37.91 179.447 43.11C181.96 48.2233 183.217 54.42 183.217 61.7V102H171.257V63.78C171.257 55.0267 169.22 48.44 165.147 44.02C161.16 39.5133 155.31 37.26 147.597 37.26C142.224 37.26 137.5 38.4733 133.427 40.9C129.44 43.3267 126.32 46.7067 124.067 51.04C121.9 55.2867 120.817 60.27 120.817 65.99L116.007 62.61C116.614 55.33 118.477 49.0467 121.597 43.76C124.717 38.4733 128.79 34.4 133.817 31.54C138.93 28.5933 144.694 27.12 151.107 27.12ZM191.114 102V1.89999H203.074V102H191.114ZM252.214 102L219.064 64.82L250.134 28.81H264.564L233.234 64.56L267.034 102H252.214ZM197.744 60.14H230.764V69.89H197.744V60.14ZM301.726 103.69C293.146 103.69 285.563 102.087 278.976 98.88C272.476 95.6733 267.406 91.1667 263.766 85.36C260.126 79.5533 258.306 72.88 258.306 65.34C258.306 57.7133 260.126 51.04 263.766 45.32C267.406 39.6 272.476 35.1367 278.976 31.93C285.563 28.7233 293.146 27.12 301.726 27.12C310.393 27.12 317.976 28.7233 324.476 31.93C330.976 35.1367 336.046 39.6 339.686 45.32C343.413 51.04 345.276 57.7133 345.276 65.34C345.276 72.88 343.413 79.5533 339.686 85.36C336.046 91.1667 330.976 95.6733 324.476 98.88C317.976 102.087 310.393 103.69 301.726 103.69ZM301.726 93.68C308.14 93.68 313.686 92.5533 318.366 90.3C323.046 87.96 326.643 84.6667 329.156 80.42C331.756 76.1733 333.056 71.1467 333.056 65.34C333.056 59.62 331.756 54.6367 329.156 50.39C326.643 46.1433 323.046 42.85 318.366 40.51C313.686 38.17 308.14 37 301.726 37C295.4 37 289.853 38.17 285.086 40.51C280.406 42.85 276.809 46.1433 274.296 50.39C271.783 54.6367 270.526 59.62 270.526 65.34C270.526 71.1467 271.783 76.1733 274.296 80.42C276.809 84.6667 280.406 87.96 285.086 90.3C289.853 92.5533 295.4 93.68 301.726 93.68ZM338.646 105.9H404.296V114.48H338.646V105.9ZM416.441 4.49999V96.54L410.981 91.21H484.691V102H404.221V4.49999H416.441ZM519.989 103.69C511.409 103.69 503.826 102.087 497.239 98.88C490.739 95.6733 485.669 91.1667 482.029 85.36C478.389 79.5533 476.569 72.88 476.569 65.34C476.569 57.7133 478.389 51.04 482.029 45.32C485.669 39.6 490.739 35.1367 497.239 31.93C503.826 28.7233 511.409 27.12 519.989 27.12C528.656 27.12 536.239 28.7233 542.739 31.93C549.239 35.1367 554.309 39.6 557.949 45.32C561.676 51.04 563.539 57.7133 563.539 65.34C563.539 72.88 561.676 79.5533 557.949 85.36C554.309 91.1667 549.239 95.6733 542.739 98.88C536.239 102.087 528.656 103.69 519.989 103.69ZM519.989 93.68C526.402 93.68 531.949 92.5533 536.629 90.3C541.309 87.96 544.906 84.6667 547.419 80.42C550.019 76.1733 551.319 71.1467 551.319 65.34C551.319 59.62 550.019 54.6367 547.419 50.39C544.906 46.1433 541.309 42.85 536.629 40.51C531.949 38.17 526.402 37 519.989 37C513.662 37 508.116 38.17 503.349 40.51C498.669 42.85 495.072 46.1433 492.559 50.39C490.046 54.6367 488.789 59.62 488.789 65.34C488.789 71.1467 490.046 76.1733 492.559 80.42C495.072 84.6667 498.669 87.96 503.349 90.3C508.116 92.5533 513.662 93.68 519.989 93.68ZM601.977 96.41H597.297L629.667 28.81H642.407L606.007 102H592.747L556.217 28.81H569.477L601.977 96.41ZM678.184 103.69C669.777 103.69 662.324 102.087 655.824 98.88C649.411 95.5867 644.341 91.08 640.614 85.36C636.974 79.5533 635.154 72.88 635.154 65.34C635.154 57.7133 636.887 51.04 640.354 45.32C643.821 39.6 648.631 35.1367 654.784 31.93C660.937 28.7233 668.001 27.12 675.974 27.12C683.861 27.12 690.751 28.8533 696.644 32.32C702.537 35.7867 707.087 40.6833 710.294 47.01C713.587 53.25 715.234 60.53 715.234 68.85H644.254V59.36H710.164L703.144 63.65C702.884 58.19 701.584 53.4667 699.244 49.48C696.904 45.4933 693.741 42.4167 689.754 40.25C685.767 38.0833 681.131 37 675.844 37C670.124 37 665.141 38.17 660.894 40.51C656.647 42.7633 653.311 45.97 650.884 50.13C648.544 54.29 647.374 59.1867 647.374 64.82C647.374 70.7133 648.717 75.8267 651.404 80.16C654.091 84.4933 657.861 87.83 662.714 90.17C667.567 92.51 673.287 93.68 679.874 93.68C685.854 93.68 691.704 92.6833 697.424 90.69C703.231 88.6967 708.431 85.9667 713.024 82.5V91.86C708.517 95.5 703.144 98.4033 696.904 100.57C690.664 102.65 684.424 103.69 678.184 103.69ZM708.511 105.9H774.161V114.48H708.511V105.9ZM829.856 53.25L831.286 50.13C839.173 50.2167 845.543 51.43 850.396 53.77C855.25 56.0233 858.803 59.1 861.056 63C863.31 66.8133 864.436 71.06 864.436 75.74C864.436 80.8533 863.18 85.4033 860.666 89.39C858.24 93.29 854.643 96.3667 849.876 98.62C845.11 100.873 839.216 102 832.196 102H770.706V51.95V4.49999H829.986C839 4.49999 845.89 6.62333 850.656 10.87C855.51 15.03 857.936 20.75 857.936 28.03C857.936 31.8433 856.983 35.6133 855.076 39.34C853.256 42.98 850.31 46.1 846.236 48.7C842.163 51.2133 836.703 52.73 829.856 53.25ZM783.186 97.97L778.506 91.86H831.546C837.96 91.86 842.943 90.43 846.496 87.57C850.136 84.6233 851.956 80.42 851.956 74.96C851.956 69.1533 849.833 64.69 845.586 61.57C841.34 58.45 835.056 56.89 826.736 56.89H777.466V47.01H826.086C831.633 47.01 836.226 45.4933 839.866 42.46C843.593 39.4267 845.456 35.0067 845.456 29.2C845.456 24.9533 843.94 21.4867 840.906 18.8C837.96 16.0267 833.583 14.64 827.776 14.64H778.506L783.186 8.52999V51.95V97.97ZM929.056 59.75C929.056 52.73 926.63 47.1833 921.776 43.11C917.01 39.0367 909.946 37 900.586 37C895.906 37 891.096 37.65 886.156 38.95C881.216 40.1633 876.45 42.2867 871.856 45.32V35.44C876.45 32.4933 881.26 30.37 886.286 29.07C891.4 27.77 896.86 27.12 902.666 27.12C910.12 27.12 916.706 28.3333 922.426 30.76C928.233 33.1867 932.783 36.87 936.076 41.81C939.37 46.6633 941.016 52.86 941.016 60.4V102H929.186L929.056 59.75ZM897.076 54.68C907.91 54.3333 916.403 54.9833 922.556 56.63C928.796 58.2767 932.22 59.6633 932.826 60.79C933.433 61.83 933.736 67.94 933.736 79.12C933.736 81.2867 932.87 83.8 931.136 86.66C929.403 89.4333 926.933 92.12 923.726 94.72C920.52 97.2333 916.663 99.3567 912.156 101.09C907.65 102.823 902.623 103.69 897.076 103.69C891.01 103.69 885.55 102.737 880.696 100.83C875.93 98.8367 872.16 96.02 869.386 92.38C866.613 88.6533 865.226 84.2767 865.226 79.25C865.226 74.2233 866.613 69.9333 869.386 66.38C872.246 62.74 876.06 59.9233 880.826 57.93C885.68 55.9367 891.096 54.8533 897.076 54.68ZM906.306 64.17C895.473 64.0833 888.02 65.4267 883.946 68.2C879.96 70.9733 877.966 74.57 877.966 78.99C877.966 83.4967 879.96 87.18 883.946 90.04C887.933 92.8133 893.48 94.1133 900.586 93.94C908.82 93.7667 915.623 91.2967 920.996 86.53C926.37 81.7633 929.056 75.5667 929.056 67.94C924.723 65.4267 917.14 64.17 906.306 64.17ZM1016.99 84.19V71.06L1017.51 69.11V57.02L1016.99 54.42V28.81H1028.95V82.5C1028.95 92.0333 1027 99.9633 1023.1 106.29C1019.29 112.617 1014.09 117.34 1007.5 120.46C1000.92 123.58 993.419 125.14 985.012 125.14C978.686 125.14 972.792 124.23 967.332 122.41C961.959 120.677 956.802 117.99 951.862 114.35V103.82C957.062 108.067 962.392 111.013 967.852 112.66C973.399 114.307 978.902 115.13 984.362 115.13C994.936 115.13 1003 112.357 1008.54 106.81C1014.18 101.35 1016.99 93.81 1016.99 84.19ZM979.812 97.32C973.226 97.32 967.246 95.8467 961.872 92.9C956.586 89.9533 952.382 85.88 949.262 80.68C946.142 75.3933 944.582 69.24 944.582 62.22C944.582 55.1133 946.142 48.96 949.262 43.76C952.382 38.4733 956.586 34.4 961.872 31.54C967.246 28.5933 973.226 27.12 979.812 27.12C984.752 27.12 989.346 27.9 993.592 29.46C997.839 30.9333 1001.7 32.9267 1005.16 35.44C1008.63 37.9533 1011.58 40.77 1014 43.89C1016.43 47.01 1018.29 50.1733 1019.59 53.38C1020.98 56.5 1021.67 59.4467 1021.67 62.22C1021.67 65.7733 1020.63 69.5867 1018.55 73.66C1016.56 77.6467 1013.66 81.46 1009.84 85.1C1006.12 88.6533 1001.7 91.6 996.582 93.94C991.556 96.1933 985.966 97.32 979.812 97.32ZM983.062 87.7C989.822 87.7 996.062 85.7067 1001.78 81.72C1007.5 77.7333 1012.75 71.2333 1017.51 62.22C1012.83 53.0333 1007.59 46.49 1001.78 42.59C996.062 38.6033 989.822 36.61 983.062 36.61C977.429 36.61 972.619 37.7367 968.632 39.99C964.732 42.1567 961.742 45.1467 959.662 48.96C957.669 52.7733 956.672 57.1933 956.672 62.22C956.672 67.0733 957.669 71.45 959.662 75.35C961.742 79.1633 964.732 82.1967 968.632 84.45C972.619 86.6167 977.429 87.7 983.062 87.7ZM1026.32 105.9H1091.97V114.48H1026.32V105.9ZM1141.81 4.49999C1148.66 4.49999 1154.59 5.71333 1159.62 8.13999C1164.65 10.5667 1168.55 13.99 1171.32 18.41C1174.09 22.7433 1175.48 27.77 1175.48 33.49C1175.48 39.21 1174.09 44.28 1171.32 48.7C1168.55 53.0333 1164.65 56.4567 1159.62 58.97C1154.59 61.3967 1148.66 62.61 1141.81 62.61H1097.35V51.95H1141.55C1148.14 51.95 1153.34 50.3033 1157.15 47.01C1161.05 43.63 1163 39.1233 1163 33.49C1163 27.8567 1161.05 23.3933 1157.15 20.1C1153.34 16.8067 1148.14 15.16 1141.55 15.16H1098.65L1104.11 9.17999V102H1091.89V4.49999H1141.81ZM1208.47 103.69C1201.8 103.69 1196.12 102.347 1191.44 99.66C1186.85 96.8867 1183.29 92.9 1180.78 87.7C1178.35 82.5 1177.14 76.26 1177.14 68.98V28.81H1189.1V67.03C1189.1 75.6967 1191.05 82.2833 1194.95 86.79C1198.85 91.21 1204.53 93.42 1211.98 93.42C1217.27 93.42 1221.86 92.25 1225.76 89.91C1229.66 87.4833 1232.69 84.1033 1234.86 79.77C1237.03 75.4367 1238.11 70.41 1238.11 64.69L1242.79 67.42C1242.27 74.7867 1240.45 81.2 1237.33 86.66C1234.3 92.12 1230.31 96.3233 1225.37 99.27C1220.43 102.217 1214.8 103.69 1208.47 103.69ZM1238.11 102V77.04V28.81H1250.07V78.86V102H1238.11ZM1299.34 9.96C1292.93 9.96 1288.12 11.3467 1284.91 14.12C1281.7 16.8067 1280.1 21.4867 1280.1 28.16V102H1268.14V30.11C1268.14 24.39 1269.14 19.2767 1271.13 14.77C1273.21 10.2633 1276.46 6.70999 1280.88 4.11C1285.3 1.50999 1291.11 0.209993 1298.3 0.209993C1301.77 0.209993 1304.8 0.556661 1307.4 1.25C1310.09 1.85666 1312.56 2.63666 1314.81 3.59V13.6C1312.47 12.3 1310.04 11.39 1307.53 10.87C1305.1 10.2633 1302.37 9.96 1299.34 9.96ZM1252.02 42.98V33.23H1314.81V42.98H1252.02ZM1355.24 9.96C1348.83 9.96 1343.97 11.3467 1340.68 14.12C1337.47 16.8067 1335.87 21.4867 1335.87 28.16V102H1323.91V30.11C1323.91 24.39 1324.95 19.2767 1327.03 14.77C1329.11 10.2633 1332.36 6.70999 1336.78 4.11C1341.2 1.50999 1346.96 0.209993 1354.07 0.209993C1357.54 0.209993 1360.57 0.556661 1363.17 1.25C1365.86 1.85666 1368.37 2.63666 1370.71 3.59V13.6C1368.37 12.3 1365.94 11.39 1363.43 10.87C1361 10.2633 1358.27 9.96 1355.24 9.96ZM1307.92 42.98V33.23H1370.58V42.98H1307.92ZM1359.74 105.9H1425.39V114.48H1359.74V105.9ZM1452.61 0.989999H1462.88L1426.48 105.51H1416.21L1452.61 0.989999ZM1474.33 0.989999H1484.6L1448.2 105.51H1437.93L1474.33 0.989999ZM1475.42 105.9H1541.07V114.48H1475.42V105.9ZM1534.49 70.41H1546.84C1547.45 75.0033 1549.27 79.0333 1552.3 82.5C1555.34 85.9667 1559.32 88.6533 1564.26 90.56C1569.29 92.38 1575.05 93.29 1581.55 93.29C1591.35 93.29 1599.1 91.6433 1604.82 88.35C1610.63 84.97 1613.53 80.42 1613.53 74.7C1613.53 70.28 1611.71 66.9 1608.07 64.56C1604.52 62.22 1598.28 60.53 1589.35 59.49L1570.5 57.15C1558.63 55.7633 1550.09 52.9467 1544.89 48.7C1539.69 44.3667 1537.09 38.56 1537.09 31.28C1537.09 25.4733 1538.83 20.4467 1542.29 16.2C1545.76 11.8667 1550.61 8.57333 1556.85 6.31999C1563.18 3.98 1570.55 2.81 1578.95 2.81C1587.36 2.81 1594.81 4.11 1601.31 6.70999C1607.9 9.22333 1613.1 12.7767 1616.91 17.37C1620.81 21.8767 1622.94 27.2067 1623.28 33.36H1610.93C1610.41 29.2 1608.77 25.6467 1605.99 22.7C1603.22 19.6667 1599.49 17.3267 1594.81 15.68C1590.22 13.9467 1584.85 13.08 1578.69 13.08C1569.77 13.08 1562.62 14.6833 1557.24 17.89C1551.96 21.01 1549.31 25.3867 1549.31 31.02C1549.31 35.3533 1551.05 38.69 1554.51 41.03C1558.07 43.2833 1564.05 44.93 1572.45 45.97L1590.91 48.44C1599.49 49.48 1606.3 50.9967 1611.32 52.99C1616.44 54.9833 1620.12 57.67 1622.37 61.05C1624.63 64.3433 1625.75 68.5467 1625.75 73.66C1625.75 79.8133 1623.89 85.1433 1620.16 89.65C1616.52 94.1567 1611.37 97.6233 1604.69 100.05C1598.02 102.477 1590.26 103.69 1581.42 103.69C1572.5 103.69 1564.57 102.303 1557.63 99.53C1550.7 96.67 1545.2 92.77 1541.12 87.83C1537.05 82.8033 1534.84 76.9967 1534.49 70.41ZM1626.29 70.41H1638.64C1639.25 75.0033 1641.07 79.0333 1644.1 82.5C1647.14 85.9667 1651.12 88.6533 1656.06 90.56C1661.09 92.38 1666.85 93.29 1673.35 93.29C1683.15 93.29 1690.9 91.6433 1696.62 88.35C1702.43 84.97 1705.33 80.42 1705.33 74.7C1705.33 70.28 1703.51 66.9 1699.87 64.56C1696.32 62.22 1690.08 60.53 1681.15 59.49L1662.3 57.15C1650.43 55.7633 1641.89 52.9467 1636.69 48.7C1631.49 44.3667 1628.89 38.56 1628.89 31.28C1628.89 25.4733 1630.63 20.4467 1634.09 16.2C1637.56 11.8667 1642.41 8.57333 1648.65 6.31999C1654.98 3.98 1662.35 2.81 1670.75 2.81C1679.16 2.81 1686.61 4.11 1693.11 6.70999C1699.7 9.22333 1704.9 12.7767 1708.71 17.37C1712.61 21.8767 1714.74 27.2067 1715.08 33.36H1702.73C1702.21 29.2 1700.57 25.6467 1697.79 22.7C1695.02 19.6667 1691.29 17.3267 1686.61 15.68C1682.02 13.9467 1676.65 13.08 1670.49 13.08C1661.57 13.08 1654.42 14.6833 1649.04 17.89C1643.76 21.01 1641.11 25.3867 1641.11 31.02C1641.11 35.3533 1642.85 38.69 1646.31 41.03C1649.87 43.2833 1655.85 44.93 1664.25 45.97L1682.71 48.44C1691.29 49.48 1698.1 50.9967 1703.12 52.99C1708.24 54.9833 1711.92 57.67 1714.17 61.05C1716.43 64.3433 1717.55 68.5467 1717.55 73.66C1717.55 79.8133 1715.69 85.1433 1711.96 89.65C1708.32 94.1567 1703.17 97.6233 1696.49 100.05C1689.82 102.477 1682.06 103.69 1673.22 103.69C1664.3 103.69 1656.37 102.303 1649.43 99.53C1642.5 96.67 1637 92.77 1632.92 87.83C1628.85 82.8033 1626.64 76.9967 1626.29 70.41ZM1711.33 105.9H1776.98V114.48H1711.33V105.9ZM1767.8 37.26C1768.32 30.3267 1770.53 24.3033 1774.43 19.19C1778.42 13.99 1783.66 9.96 1790.16 7.1C1796.75 4.24 1804.2 2.81 1812.52 2.81C1820.58 2.81 1827.6 4.06666 1833.58 6.58C1839.65 9.09333 1844.37 12.6467 1847.75 17.24C1851.13 21.8333 1852.82 27.1633 1852.82 33.23C1852.82 37.91 1851.7 42.2867 1849.44 46.36C1847.28 50.3467 1843.59 54.4633 1838.39 58.71C1833.28 62.9567 1826.3 67.81 1817.46 73.27L1781.97 95.37L1780.41 91.6H1856.07V102H1768.19V92.64L1809.4 66.64C1817.03 61.7867 1823.1 57.5833 1827.6 54.03C1832.2 50.39 1835.49 46.9667 1837.48 43.76C1839.48 40.5533 1840.47 37.1733 1840.47 33.62C1840.47 29.5467 1839.35 25.9933 1837.09 22.96C1834.93 19.84 1831.72 17.4133 1827.47 15.68C1823.31 13.9467 1818.24 13.08 1812.26 13.08C1805.33 13.08 1799.52 14.1633 1794.84 16.33C1790.25 18.41 1786.74 21.27 1784.31 24.91C1781.97 28.55 1780.59 32.6667 1780.15 37.26H1767.8ZM1863.84 4.49999H1932.48V14.64H1868.26L1873.33 10.87L1867.87 54.94L1863.71 55.07C1865.88 51.95 1868.74 49.09 1872.29 46.49C1875.93 43.8033 1880.18 41.6367 1885.03 39.99C1889.88 38.3433 1895.21 37.52 1901.02 37.52C1909.6 37.52 1916.79 38.9933 1922.6 41.94C1928.41 44.8867 1932.78 48.83 1935.73 53.77C1938.76 58.71 1940.28 64.2567 1940.28 70.41C1940.28 76.91 1938.5 82.6733 1934.95 87.7C1931.4 92.64 1926.41 96.54 1920 99.4C1913.59 102.26 1906.05 103.69 1897.38 103.69C1888.54 103.69 1880.91 102.39 1874.5 99.79C1868.09 97.1033 1862.97 93.5067 1859.16 89C1855.43 84.4933 1853.05 79.4233 1852.01 73.79H1864.36C1865.75 79.77 1869.26 84.5367 1874.89 88.09C1880.61 91.6433 1888.11 93.42 1897.38 93.42C1903.53 93.42 1908.86 92.4667 1913.37 90.56C1917.96 88.6533 1921.52 86.01 1924.03 82.63C1926.63 79.1633 1927.93 75.09 1927.93 70.41C1927.93 65.8167 1926.8 61.83 1924.55 58.45C1922.3 54.9833 1919.05 52.2967 1914.8 50.39C1910.64 48.4833 1905.53 47.53 1899.46 47.53C1894.17 47.53 1889.41 48.2667 1885.16 49.74C1880.91 51.1267 1877.23 52.9033 1874.11 55.07C1870.99 57.2367 1868.43 59.5333 1866.44 61.96H1856.82L1863.84 4.49999Z" fill="#F1F1F1"/>
</g>
</svg>
