<svg width="2140" height="126" viewBox="0 0 2140 126" fill="none" xmlns="http://www.w3.org/2000/svg">
<g style="mix-blend-mode:exclusion">
<path d="M126.15 4.49999V102H114.45V7.35999L119.26 7.48999L69.99 102H56.99L7.72 7.62L12.53 7.48999V102H0.830001V4.49999H19.29L67.39 97.84H59.72L107.69 4.49999H126.15ZM137.393 28.55H143.243H149.353V102H137.393V28.55ZM143.243 17.76C140.816 17.76 138.736 17.0233 137.003 15.55C135.356 13.99 134.533 12.0833 134.533 9.82999C134.533 7.48999 135.356 5.58333 137.003 4.11C138.736 2.55 140.816 1.77 143.243 1.77C145.843 1.77 147.966 2.55 149.613 4.11C151.26 5.58333 152.083 7.48999 152.083 9.82999C152.083 12.0833 151.26 13.99 149.613 15.55C147.966 17.0233 145.843 17.76 143.243 17.76ZM153.15 102V92.9L213.73 34.14L220.1 38.3H153.67V28.81H224.78V37.78L164.2 96.54L158.61 92.38H225.04V102H153.15ZM259.236 103.69C252.563 103.69 246.886 102.347 242.206 99.66C237.613 96.8867 234.06 92.9 231.546 87.7C229.12 82.5 227.906 76.26 227.906 68.98V28.81H239.866V67.03C239.866 75.6967 241.816 82.2833 245.716 86.79C249.616 91.21 255.293 93.42 262.746 93.42C268.033 93.42 272.626 92.25 276.526 89.91C280.426 87.4833 283.46 84.1033 285.626 79.77C287.793 75.4367 288.876 70.41 288.876 64.69L293.556 67.42C293.036 74.7867 291.216 81.2 288.096 86.66C285.063 92.12 281.076 96.3233 276.136 99.27C271.196 102.217 265.563 103.69 259.236 103.69ZM288.876 102V77.04V28.81H300.836V78.86V102H288.876ZM311.367 28.81H323.327V53.64V102H311.367V51.95V28.81ZM353.617 27.12C360.464 27.12 366.271 28.5067 371.037 31.28C375.804 33.9667 379.444 37.91 381.957 43.11C384.471 48.2233 385.728 54.42 385.728 61.7V102H373.768V63.78C373.768 55.0267 371.731 48.44 367.657 44.02C363.671 39.5133 357.821 37.26 350.107 37.26C344.734 37.26 340.011 38.4733 335.937 40.9C331.951 43.3267 328.831 46.7067 326.577 51.04C324.411 55.2867 323.327 60.27 323.327 65.99L318.517 62.61C319.124 55.33 320.987 49.0467 324.107 43.76C327.227 38.4733 331.301 34.4 336.327 31.54C341.441 28.5933 347.204 27.12 353.617 27.12ZM432.625 103.69C424.045 103.69 416.462 102.087 409.875 98.88C403.375 95.6733 398.305 91.1667 394.665 85.36C391.025 79.5533 389.205 72.88 389.205 65.34C389.205 57.7133 391.025 51.04 394.665 45.32C398.305 39.6 403.375 35.1367 409.875 31.93C416.462 28.7233 424.045 27.12 432.625 27.12C441.292 27.12 448.875 28.7233 455.375 31.93C461.875 35.1367 466.945 39.6 470.585 45.32C474.312 51.04 476.175 57.7133 476.175 65.34C476.175 72.88 474.312 79.5533 470.585 85.36C466.945 91.1667 461.875 95.6733 455.375 98.88C448.875 102.087 441.292 103.69 432.625 103.69ZM432.625 93.68C439.038 93.68 444.585 92.5533 449.265 90.3C453.945 87.96 457.542 84.6667 460.055 80.42C462.655 76.1733 463.955 71.1467 463.955 65.34C463.955 59.62 462.655 54.6367 460.055 50.39C457.542 46.1433 453.945 42.85 449.265 40.51C444.585 38.17 439.038 37 432.625 37C426.298 37 420.752 38.17 415.985 40.51C411.305 42.85 407.708 46.1433 405.195 50.39C402.682 54.6367 401.425 59.62 401.425 65.34C401.425 71.1467 402.682 76.1733 405.195 80.42C407.708 84.6667 411.305 87.96 415.985 90.3C420.752 92.5533 426.298 93.68 432.625 93.68ZM469.545 105.9H535.195V114.48H469.545V105.9ZM562.42 0.989999H572.69L536.29 105.51H526.02L562.42 0.989999ZM584.139 0.989999H594.409L558.009 105.51H547.739L584.139 0.989999ZM585.23 105.9H650.88V114.48H585.23V105.9ZM660.815 77.82V67.42H729.455V77.82H660.815ZM702.805 4.49999L750.775 102H737.515L692.405 8.65999H698.905L653.665 102H640.405L688.375 4.49999H702.805ZM815.624 84.19V71.06L816.144 69.11V57.02L815.624 54.42V28.81H827.584V82.5C827.584 92.0333 825.634 99.9633 821.734 106.29C817.921 112.617 812.721 117.34 806.134 120.46C799.548 123.58 792.051 125.14 783.644 125.14C777.318 125.14 771.424 124.23 765.964 122.41C760.591 120.677 755.434 117.99 750.494 114.35V103.82C755.694 108.067 761.024 111.013 766.484 112.66C772.031 114.307 777.534 115.13 782.994 115.13C793.568 115.13 801.628 112.357 807.174 106.81C812.808 101.35 815.624 93.81 815.624 84.19ZM778.444 97.32C771.858 97.32 765.878 95.8467 760.504 92.9C755.218 89.9533 751.014 85.88 747.894 80.68C744.774 75.3933 743.214 69.24 743.214 62.22C743.214 55.1133 744.774 48.96 747.894 43.76C751.014 38.4733 755.218 34.4 760.504 31.54C765.878 28.5933 771.858 27.12 778.444 27.12C783.384 27.12 787.978 27.9 792.224 29.46C796.471 30.9333 800.328 32.9267 803.794 35.44C807.261 37.9533 810.208 40.77 812.634 43.89C815.061 47.01 816.924 50.1733 818.224 53.38C819.611 56.5 820.304 59.4467 820.304 62.22C820.304 65.7733 819.264 69.5867 817.184 73.66C815.191 77.6467 812.288 81.46 808.474 85.1C804.748 88.6533 800.328 91.6 795.214 93.94C790.188 96.1933 784.598 97.32 778.444 97.32ZM781.694 87.7C788.454 87.7 794.694 85.7067 800.414 81.72C806.134 77.7333 811.378 71.2333 816.144 62.22C811.464 53.0333 806.221 46.49 800.414 42.59C794.694 38.6033 788.454 36.61 781.694 36.61C776.061 36.61 771.251 37.7367 767.264 39.99C763.364 42.1567 760.374 45.1467 758.294 48.96C756.301 52.7733 755.304 57.1933 755.304 62.22C755.304 67.0733 756.301 71.45 758.294 75.35C760.374 79.1633 763.364 82.1967 767.264 84.45C771.251 86.6167 776.061 87.7 781.694 87.7ZM874.738 103.69C866.331 103.69 858.878 102.087 852.378 98.88C845.964 95.5867 840.894 91.08 837.168 85.36C833.528 79.5533 831.708 72.88 831.708 65.34C831.708 57.7133 833.441 51.04 836.908 45.32C840.374 39.6 845.184 35.1367 851.338 31.93C857.491 28.7233 864.554 27.12 872.528 27.12C880.414 27.12 887.304 28.8533 893.198 32.32C899.091 35.7867 903.641 40.6833 906.848 47.01C910.141 53.25 911.788 60.53 911.788 68.85H840.808V59.36H906.718L899.698 63.65C899.438 58.19 898.138 53.4667 895.798 49.48C893.458 45.4933 890.294 42.4167 886.308 40.25C882.321 38.0833 877.684 37 872.398 37C866.678 37 861.694 38.17 857.448 40.51C853.201 42.7633 849.864 45.97 847.438 50.13C845.098 54.29 843.928 59.1867 843.928 64.82C843.928 70.7133 845.271 75.8267 847.958 80.16C850.644 84.4933 854.414 87.83 859.268 90.17C864.121 92.51 869.841 93.68 876.428 93.68C882.408 93.68 888.258 92.6833 893.978 90.69C899.784 88.6967 904.984 85.9667 909.578 82.5V91.86C905.071 95.5 899.698 98.4033 893.458 100.57C887.218 102.65 880.978 103.69 874.738 103.69ZM905.065 105.9H970.715V114.48H905.065V105.9ZM1019.91 103.69C1009.08 103.69 999.5 101.567 991.18 97.32C982.947 93.0733 976.534 87.18 971.94 79.64C967.347 72.0133 965.05 63.2167 965.05 53.25C965.05 43.1967 967.347 34.4 971.94 26.86C976.534 19.32 982.947 13.4267 991.18 9.17999C999.414 4.93333 1008.99 2.81 1019.91 2.81C1030.74 2.81 1040.28 4.93333 1048.51 9.17999C1056.74 13.4267 1063.16 19.32 1067.75 26.86C1072.34 34.4 1074.64 43.1967 1074.64 53.25C1074.64 63.2167 1072.34 72.0133 1067.75 79.64C1063.16 87.18 1056.74 93.0733 1048.51 97.32C1040.28 101.567 1030.74 103.69 1019.91 103.69ZM1019.91 92.64C1028.49 92.64 1035.94 91.0367 1042.27 87.83C1048.6 84.5367 1053.49 79.9433 1056.96 74.05C1060.43 68.1567 1062.16 61.2233 1062.16 53.25C1062.16 45.19 1060.43 38.2133 1056.96 32.32C1053.49 26.4267 1048.6 21.8767 1042.27 18.67C1035.94 15.4633 1028.49 13.86 1019.91 13.86C1011.33 13.86 1003.88 15.4633 997.55 18.67C991.224 21.8767 986.284 26.4267 982.73 32.32C979.264 38.2133 977.53 45.19 977.53 53.25C977.53 61.2233 979.264 68.1567 982.73 74.05C986.284 79.9433 991.224 84.5367 997.55 87.83C1003.88 91.0367 1011.33 92.64 1019.91 92.64ZM1120.85 9.96C1114.26 9.96 1109.24 11.4767 1105.77 14.51C1102.3 17.4567 1100.57 22.3967 1100.57 29.33V102H1088.61V31.02C1088.61 25.1267 1089.65 19.8833 1091.73 15.29C1093.81 10.61 1097.1 6.92666 1101.61 4.24C1106.2 1.55333 1112.18 0.209993 1119.55 0.209993C1123.19 0.209993 1126.4 0.556661 1129.17 1.25C1132.03 1.85666 1134.72 2.63666 1137.23 3.59V13.6C1134.72 12.3 1132.12 11.39 1129.43 10.87C1126.74 10.2633 1123.88 9.96 1120.85 9.96ZM1072.49 42.98V33.23H1135.93V42.98H1072.49ZM1125.11 105.9H1190.76V114.48H1125.11V105.9ZM1202.9 4.49999V96.54L1197.44 91.21H1271.15V102H1190.68V4.49999H1202.9ZM1306.06 103.69C1297.65 103.69 1290.2 102.087 1283.7 98.88C1277.29 95.5867 1272.22 91.08 1268.49 85.36C1264.85 79.5533 1263.03 72.88 1263.03 65.34C1263.03 57.7133 1264.76 51.04 1268.23 45.32C1271.7 39.6 1276.51 35.1367 1282.66 31.93C1288.81 28.7233 1295.88 27.12 1303.85 27.12C1311.74 27.12 1318.63 28.8533 1324.52 32.32C1330.41 35.7867 1334.96 40.6833 1338.17 47.01C1341.46 53.25 1343.11 60.53 1343.11 68.85H1272.13V59.36H1338.04L1331.02 63.65C1330.76 58.19 1329.46 53.4667 1327.12 49.48C1324.78 45.4933 1321.62 42.4167 1317.63 40.25C1313.64 38.0833 1309.01 37 1303.72 37C1298 37 1293.02 38.17 1288.77 40.51C1284.52 42.7633 1281.19 45.97 1278.76 50.13C1276.42 54.29 1275.25 59.1867 1275.25 64.82C1275.25 70.7133 1276.59 75.8267 1279.28 80.16C1281.97 84.4933 1285.74 87.83 1290.59 90.17C1295.44 92.51 1301.16 93.68 1307.75 93.68C1313.73 93.68 1319.58 92.6833 1325.3 90.69C1331.11 88.6967 1336.31 85.9667 1340.9 82.5V91.86C1336.39 95.5 1331.02 98.4033 1324.78 100.57C1318.54 102.65 1312.3 103.69 1306.06 103.69ZM1415.69 84.19V71.06L1416.21 69.11V57.02L1415.69 54.42V28.81H1427.65V82.5C1427.65 92.0333 1425.7 99.9633 1421.8 106.29C1417.98 112.617 1412.78 117.34 1406.2 120.46C1399.61 123.58 1392.11 125.14 1383.71 125.14C1377.38 125.14 1371.49 124.23 1366.03 122.41C1360.65 120.677 1355.5 117.99 1350.56 114.35V103.82C1355.76 108.067 1361.09 111.013 1366.55 112.66C1372.09 114.307 1377.6 115.13 1383.06 115.13C1393.63 115.13 1401.69 112.357 1407.24 106.81C1412.87 101.35 1415.69 93.81 1415.69 84.19ZM1378.51 97.32C1371.92 97.32 1365.94 95.8467 1360.57 92.9C1355.28 89.9533 1351.08 85.88 1347.96 80.68C1344.84 75.3933 1343.28 69.24 1343.28 62.22C1343.28 55.1133 1344.84 48.96 1347.96 43.76C1351.08 38.4733 1355.28 34.4 1360.57 31.54C1365.94 28.5933 1371.92 27.12 1378.51 27.12C1383.45 27.12 1388.04 27.9 1392.29 29.46C1396.53 30.9333 1400.39 32.9267 1403.86 35.44C1407.32 37.9533 1410.27 40.77 1412.7 43.89C1415.12 47.01 1416.99 50.1733 1418.29 53.38C1419.67 56.5 1420.37 59.4467 1420.37 62.22C1420.37 65.7733 1419.33 69.5867 1417.25 73.66C1415.25 77.6467 1412.35 81.46 1408.54 85.1C1404.81 88.6533 1400.39 91.6 1395.28 93.94C1390.25 96.1933 1384.66 97.32 1378.51 97.32ZM1381.76 87.7C1388.52 87.7 1394.76 85.7067 1400.48 81.72C1406.2 77.7333 1411.44 71.2333 1416.21 62.22C1411.53 53.0333 1406.28 46.49 1400.48 42.59C1394.76 38.6033 1388.52 36.61 1381.76 36.61C1376.12 36.61 1371.31 37.7367 1367.33 39.99C1363.43 42.1567 1360.44 45.1467 1358.36 48.96C1356.36 52.7733 1355.37 57.1933 1355.37 62.22C1355.37 67.0733 1356.36 71.45 1358.36 75.35C1360.44 79.1633 1363.43 82.1967 1367.33 84.45C1371.31 86.6167 1376.12 87.7 1381.76 87.7ZM1474.8 103.69C1466.39 103.69 1458.94 102.087 1452.44 98.88C1446.03 95.5867 1440.96 91.08 1437.23 85.36C1433.59 79.5533 1431.77 72.88 1431.77 65.34C1431.77 57.7133 1433.5 51.04 1436.97 45.32C1440.44 39.6 1445.25 35.1367 1451.4 31.93C1457.55 28.7233 1464.62 27.12 1472.59 27.12C1480.48 27.12 1487.37 28.8533 1493.26 32.32C1499.15 35.7867 1503.7 40.6833 1506.91 47.01C1510.2 53.25 1511.85 60.53 1511.85 68.85H1440.87V59.36H1506.78L1499.76 63.65C1499.5 58.19 1498.2 53.4667 1495.86 49.48C1493.52 45.4933 1490.36 42.4167 1486.37 40.25C1482.38 38.0833 1477.75 37 1472.46 37C1466.74 37 1461.76 38.17 1457.51 40.51C1453.26 42.7633 1449.93 45.97 1447.5 50.13C1445.16 54.29 1443.99 59.1867 1443.99 64.82C1443.99 70.7133 1445.33 75.8267 1448.02 80.16C1450.71 84.4933 1454.48 87.83 1459.33 90.17C1464.18 92.51 1469.9 93.68 1476.49 93.68C1482.47 93.68 1488.32 92.6833 1494.04 90.69C1499.85 88.6967 1505.05 85.9667 1509.64 82.5V91.86C1505.13 95.5 1499.76 98.4033 1493.52 100.57C1487.28 102.65 1481.04 103.69 1474.8 103.69ZM1517.09 28.81H1529.05V53.64V102H1517.09V51.95V28.81ZM1559.34 27.12C1566.18 27.12 1571.99 28.5067 1576.76 31.28C1581.52 33.9667 1585.16 37.91 1587.68 43.11C1590.19 48.2233 1591.45 54.42 1591.45 61.7V102H1579.49V63.78C1579.49 55.0267 1577.45 48.44 1573.38 44.02C1569.39 39.5133 1563.54 37.26 1555.83 37.26C1550.45 37.26 1545.73 38.4733 1541.66 40.9C1537.67 43.3267 1534.55 46.7067 1532.3 51.04C1530.13 55.2867 1529.05 60.27 1529.05 65.99L1524.24 62.61C1524.84 55.33 1526.71 49.0467 1529.83 43.76C1532.95 38.4733 1537.02 34.4 1542.05 31.54C1547.16 28.5933 1552.92 27.12 1559.34 27.12ZM1679.68 1.89999V102H1667.72V75.87L1669.93 70.8V59.75L1667.72 55.98V1.89999H1679.68ZM1673.57 65.34C1671.67 72.9667 1668.72 79.6833 1664.73 85.49C1660.83 91.21 1656.07 95.6733 1650.43 98.88C1644.89 102.087 1638.73 103.69 1631.97 103.69C1624.78 103.69 1618.41 102.087 1612.86 98.88C1607.32 95.5867 1602.94 91.08 1599.73 85.36C1596.61 79.5533 1595.05 72.88 1595.05 65.34C1595.05 57.7133 1596.61 51.04 1599.73 45.32C1602.94 39.6 1607.32 35.1367 1612.86 31.93C1618.41 28.7233 1624.78 27.12 1631.97 27.12C1638.73 27.12 1644.89 28.7233 1650.43 31.93C1656.07 35.1367 1660.83 39.6 1664.73 45.32C1668.72 51.04 1671.67 57.7133 1673.57 65.34ZM1607.27 65.34C1607.27 70.8867 1608.4 75.7833 1610.65 80.03C1612.99 84.2767 1616.16 87.6133 1620.14 90.04C1624.22 92.38 1628.81 93.55 1633.92 93.55C1639.12 93.55 1643.89 92.38 1648.22 90.04C1652.64 87.6133 1656.54 84.2767 1659.92 80.03C1663.3 75.7833 1666.12 70.8867 1668.37 65.34C1666.12 59.7933 1663.3 54.8967 1659.92 50.65C1656.54 46.4033 1652.64 43.11 1648.22 40.77C1643.89 38.3433 1639.12 37.13 1633.92 37.13C1628.81 37.13 1624.22 38.3433 1620.14 40.77C1616.16 43.11 1612.99 46.4033 1610.65 50.65C1608.4 54.8967 1607.27 59.7933 1607.27 65.34ZM1759.97 80.55C1759.97 85.23 1758.54 89.3033 1755.68 92.77C1752.91 96.2367 1748.79 98.9233 1743.33 100.83C1737.96 102.737 1731.42 103.69 1723.7 103.69C1715.82 103.69 1708.84 102.607 1702.77 100.44C1696.79 98.1867 1692.11 95.0667 1688.73 91.08C1685.35 87.0933 1683.53 82.4567 1683.27 77.17H1695.49C1696.01 80.55 1697.53 83.54 1700.04 86.14C1702.56 88.6533 1705.85 90.6033 1709.92 91.99C1714 93.3767 1718.63 94.07 1723.83 94.07C1731.37 94.07 1737.27 92.9433 1741.51 90.69C1745.85 88.35 1748.01 85.1867 1748.01 81.2C1748.01 78.08 1746.63 75.7833 1743.85 74.31C1741.08 72.75 1735.92 71.58 1728.38 70.8L1714.21 69.37C1707.19 68.6767 1701.56 67.42 1697.31 65.6C1693.15 63.6933 1690.16 61.3533 1688.34 58.58C1686.52 55.72 1685.61 52.5567 1685.61 49.09C1685.61 44.3233 1687.04 40.3367 1689.9 37.13C1692.85 33.8367 1696.92 31.3667 1702.12 29.72C1707.32 27.9867 1713.35 27.12 1720.19 27.12C1727.47 27.12 1733.93 28.16 1739.56 30.24C1745.28 32.32 1749.83 35.2233 1753.21 38.95C1756.59 42.6767 1758.46 46.9667 1758.8 51.82H1746.71C1746.28 49.0467 1744.98 46.5333 1742.81 44.28C1740.65 41.94 1737.61 40.0767 1733.71 38.69C1729.9 37.3033 1725.18 36.61 1719.54 36.61C1712.61 36.61 1707.19 37.6067 1703.29 39.6C1699.48 41.5933 1697.57 44.4967 1697.57 48.31C1697.57 51.0833 1698.83 53.2933 1701.34 54.94C1703.86 56.5867 1708.32 57.7567 1714.73 58.45L1730.85 60.14C1738.22 60.8333 1744.03 62.0467 1748.27 63.78C1752.52 65.5133 1755.51 67.7667 1757.24 70.54C1759.06 73.3133 1759.97 76.65 1759.97 80.55ZM1753.35 105.9H1819V114.48H1753.35V105.9ZM1868.85 4.49999C1875.69 4.49999 1881.63 5.71333 1886.66 8.13999C1891.68 10.5667 1895.58 13.99 1898.36 18.41C1901.13 22.7433 1902.52 27.77 1902.52 33.49C1902.52 39.21 1901.13 44.28 1898.36 48.7C1895.58 53.0333 1891.68 56.4567 1886.66 58.97C1881.63 61.3967 1875.69 62.61 1868.85 62.61H1824.39V51.95H1868.59C1875.17 51.95 1880.37 50.3033 1884.19 47.01C1888.09 43.63 1890.04 39.1233 1890.04 33.49C1890.04 27.8567 1888.09 23.3933 1884.19 20.1C1880.37 16.8067 1875.17 15.16 1868.59 15.16H1825.69L1831.15 9.17999V102H1818.93V4.49999H1868.85ZM1962.6 59.75C1962.6 52.73 1960.17 47.1833 1955.32 43.11C1950.55 39.0367 1943.49 37 1934.13 37C1929.45 37 1924.64 37.65 1919.7 38.95C1914.76 40.1633 1909.99 42.2867 1905.4 45.32V35.44C1909.99 32.4933 1914.8 30.37 1919.83 29.07C1924.94 27.77 1930.4 27.12 1936.21 27.12C1943.66 27.12 1950.25 28.3333 1955.97 30.76C1961.77 33.1867 1966.32 36.87 1969.62 41.81C1972.91 46.6633 1974.56 52.86 1974.56 60.4V102H1962.73L1962.6 59.75ZM1930.62 54.68C1941.45 54.3333 1949.94 54.9833 1956.1 56.63C1962.34 58.2767 1965.76 59.6633 1966.37 60.79C1966.97 61.83 1967.28 67.94 1967.28 79.12C1967.28 81.2867 1966.41 83.8 1964.68 86.66C1962.94 89.4333 1960.47 92.12 1957.27 94.72C1954.06 97.2333 1950.2 99.3567 1945.7 101.09C1941.19 102.823 1936.16 103.69 1930.62 103.69C1924.55 103.69 1919.09 102.737 1914.24 100.83C1909.47 98.8367 1905.7 96.02 1902.93 92.38C1900.15 88.6533 1898.77 84.2767 1898.77 79.25C1898.77 74.2233 1900.15 69.9333 1902.93 66.38C1905.79 62.74 1909.6 59.9233 1914.37 57.93C1919.22 55.9367 1924.64 54.8533 1930.62 54.68ZM1939.85 64.17C1929.01 64.0833 1921.56 65.4267 1917.49 68.2C1913.5 70.9733 1911.51 74.57 1911.51 78.99C1911.51 83.4967 1913.5 87.18 1917.49 90.04C1921.47 92.8133 1927.02 94.1133 1934.13 93.94C1942.36 93.7667 1949.16 91.2967 1954.54 86.53C1959.91 81.7633 1962.6 75.5667 1962.6 67.94C1958.26 65.4267 1950.68 64.17 1939.85 64.17ZM2060.15 74.18C2059.2 79.9867 2056.82 85.1 2053 89.52C2049.28 93.94 2044.51 97.4067 2038.7 99.92C2032.9 102.433 2026.48 103.69 2019.46 103.69C2011.32 103.69 2004.12 102.087 1997.88 98.88C1991.64 95.5867 1986.75 91.08 1983.19 85.36C1979.73 79.5533 1977.99 72.88 1977.99 65.34C1977.99 57.8 1979.73 51.17 1983.19 45.45C1986.75 39.6433 1991.64 35.1367 1997.88 31.93C2004.12 28.7233 2011.32 27.12 2019.46 27.12C2026.48 27.12 2032.9 28.3767 2038.7 30.89C2044.51 33.3167 2049.28 36.74 2053 41.16C2056.82 45.58 2059.2 50.7367 2060.15 56.63H2047.8C2046.5 50.5633 2043.25 45.7967 2038.05 42.33C2032.94 38.7767 2026.74 37 2019.46 37C2013.57 37 2008.41 38.17 2003.99 40.51C1999.66 42.85 1996.28 46.1433 1993.85 50.39C1991.43 54.55 1990.21 59.5333 1990.21 65.34C1990.21 71.1467 1991.43 76.1733 1993.85 80.42C1996.28 84.6667 1999.66 87.96 2003.99 90.3C2008.41 92.5533 2013.57 93.68 2019.46 93.68C2026.83 93.68 2033.07 91.9033 2038.18 88.35C2043.38 84.7967 2046.59 80.0733 2047.8 74.18H2060.15ZM2063.93 102V1.89999H2075.89V102H2063.93ZM2125.03 102L2091.88 64.82L2122.95 28.81H2137.38L2106.05 64.56L2139.85 102H2125.03ZM2070.56 60.14H2103.58V69.89H2070.56V60.14Z" fill="#F1F1F1"/>
</g>
</svg>
