<svg width="2169" height="114" viewBox="0 0 2169 114" fill="none" xmlns="http://www.w3.org/2000/svg">
<g style="mix-blend-mode:exclusion">
<path d="M6.68 47.57H76.36V58.36H6.68V47.57ZM78.31 3.49999V14.29H5.38L13.05 6.48999V101H0.830001V3.49999H78.31ZM159.642 47.05V57.45H85.6723V47.05H159.642ZM93.4723 52.25V98.01L86.9723 90.34H163.152V101H80.9923V52.25V3.49999H162.502V14.16H86.9723L93.4723 6.48999V52.25ZM179.454 76.82V66.42H248.094V76.82H179.454ZM221.444 3.49999L269.414 101H256.154L211.044 7.65999H217.544L172.304 101H159.044L207.014 3.49999H221.444ZM280.736 49.52H322.596C329.01 49.52 334.123 47.9167 337.936 44.71C341.836 41.5033 343.786 37.2133 343.786 31.84C343.786 26.38 341.836 22.09 337.936 18.97C334.123 15.7633 329.01 14.16 322.596 14.16H279.046L284.506 7.65999V101H272.286V3.49999H322.986C329.573 3.49999 335.336 4.71333 340.276 7.13999C345.216 9.47999 349.073 12.7733 351.846 17.02C354.706 21.2667 356.136 26.2067 356.136 31.84C356.136 37.3867 354.706 42.2833 351.846 46.53C349.073 50.7767 345.216 54.1133 340.276 56.54C335.336 58.88 329.573 60.05 322.986 60.05H280.736V49.52ZM302.316 55.37H317.396L358.086 101H342.876L302.316 55.37ZM351.077 104.9H416.727V113.48H351.077V104.9ZM465.922 102.69C455.089 102.69 445.512 100.567 437.192 96.32C428.959 92.0733 422.546 86.18 417.952 78.64C413.359 71.0133 411.062 62.2167 411.062 52.25C411.062 42.1967 413.359 33.4 417.952 25.86C422.546 18.32 428.959 12.4267 437.192 8.17999C445.426 3.93333 455.002 1.81 465.922 1.81C476.756 1.81 486.289 3.93333 494.522 8.17999C502.756 12.4267 509.169 18.32 513.762 25.86C518.356 33.4 520.652 42.1967 520.652 52.25C520.652 62.2167 518.356 71.0133 513.762 78.64C509.169 86.18 502.756 92.0733 494.522 96.32C486.289 100.567 476.756 102.69 465.922 102.69ZM465.922 91.64C474.502 91.64 481.956 90.0367 488.282 86.83C494.609 83.5367 499.506 78.9433 502.972 73.05C506.439 67.1567 508.172 60.2233 508.172 52.25C508.172 44.19 506.439 37.2133 502.972 31.32C499.506 25.4267 494.609 20.8767 488.282 17.67C481.956 14.4633 474.502 12.86 465.922 12.86C457.342 12.86 449.889 14.4633 443.562 17.67C437.236 20.8767 432.296 25.4267 428.742 31.32C425.276 37.2133 423.542 44.19 423.542 52.25C423.542 60.2233 425.276 67.1567 428.742 73.05C432.296 78.9433 437.236 83.5367 443.562 86.83C449.889 90.0367 457.342 91.64 465.922 91.64ZM534.231 47.57H603.911V58.36H534.231V47.57ZM605.861 3.49999V14.29H532.931L540.601 6.48999V101H528.381V3.49999H605.861ZM598.793 104.9H664.443V113.48H598.793V104.9ZM760.958 58.49C760.872 64.6433 759.658 70.4067 757.318 75.78C755.065 81.1533 751.815 85.8767 747.568 89.95C743.408 93.9367 738.338 97.0567 732.358 99.31C726.465 101.563 719.835 102.69 712.468 102.69C704.668 102.69 697.475 101.52 690.888 99.18C684.388 96.7533 678.712 93.33 673.858 88.91C669.092 84.49 665.408 79.2033 662.808 73.05C660.208 66.81 658.908 59.8767 658.908 52.25C658.908 44.6233 660.208 37.7333 662.808 31.58C665.495 25.34 669.265 20.01 674.118 15.59C678.972 11.17 684.692 7.79 691.278 5.45C697.865 3.02333 705.145 1.81 713.118 1.81C722.652 1.81 731.058 3.41333 738.338 6.62C745.705 9.82667 751.642 14.2467 756.148 19.88C760.655 25.4267 763.342 31.7967 764.208 38.99H751.728C750.775 33.7033 748.565 29.11 745.098 25.21C741.632 21.2233 737.168 18.1467 731.708 15.98C726.335 13.8133 720.052 12.73 712.858 12.73C704.452 12.73 697.128 14.3333 690.888 17.54C684.735 20.7467 679.925 25.2967 676.458 31.19C673.078 37.0833 671.388 44.1033 671.388 52.25C671.388 60.31 673.122 67.33 676.588 73.31C680.055 79.29 684.952 83.8833 691.278 87.09C697.605 90.2967 705.015 91.9 713.508 91.9C721.828 91.9 729.065 90.3833 735.218 87.35C741.458 84.3167 746.312 80.1567 749.778 74.87C753.245 69.5833 755.065 63.5167 755.238 56.67L760.958 58.49ZM718.318 63.82V54.07H765.378V101H755.888L754.718 59.66L758.098 63.82H718.318ZM824.479 102.69C813.645 102.69 804.069 100.567 795.749 96.32C787.515 92.0733 781.102 86.18 776.509 78.64C771.915 71.0133 769.619 62.2167 769.619 52.25C769.619 42.1967 771.915 33.4 776.509 25.86C781.102 18.32 787.515 12.4267 795.749 8.17999C803.982 3.93333 813.559 1.81 824.479 1.81C835.312 1.81 844.845 3.93333 853.079 8.17999C861.312 12.4267 867.725 18.32 872.319 25.86C876.912 33.4 879.209 42.1967 879.209 52.25C879.209 62.2167 876.912 71.0133 872.319 78.64C867.725 86.18 861.312 92.0733 853.079 96.32C844.845 100.567 835.312 102.69 824.479 102.69ZM824.479 91.64C833.059 91.64 840.512 90.0367 846.839 86.83C853.165 83.5367 858.062 78.9433 861.529 73.05C864.995 67.1567 866.729 60.2233 866.729 52.25C866.729 44.19 864.995 37.2133 861.529 31.32C858.062 25.4267 853.165 20.8767 846.839 17.67C840.512 14.4633 833.059 12.86 824.479 12.86C815.899 12.86 808.445 14.4633 802.119 17.67C795.792 20.8767 790.852 25.4267 787.299 31.32C783.832 37.2133 782.099 44.19 782.099 52.25C782.099 60.2233 783.832 67.1567 787.299 73.05C790.852 78.9433 795.792 83.5367 802.119 86.83C808.445 90.0367 815.899 91.64 824.479 91.64ZM928.667 3.49999C939.501 3.49999 949.034 5.53666 957.267 9.61C965.501 13.6833 971.914 19.4033 976.507 26.77C981.101 34.05 983.397 42.5433 983.397 52.25C983.397 61.87 981.101 70.3633 976.507 77.73C971.914 85.01 965.501 90.73 957.267 94.89C949.034 98.9633 939.501 101 928.667 101H886.937V3.49999H928.667ZM899.157 97.75L891.357 90.21H929.187C937.507 90.21 944.787 88.6067 951.027 85.4C957.267 82.1933 962.121 77.73 965.587 72.01C969.141 66.29 970.917 59.7033 970.917 52.25C970.917 44.6233 969.141 37.9933 965.587 32.36C962.121 26.64 957.267 22.1767 951.027 18.97C944.787 15.7633 937.507 14.16 929.187 14.16H891.357L899.157 6.75V97.75ZM977.789 104.9H1043.44V113.48H977.789V104.9ZM1070.66 -0.0100013H1080.93L1044.53 104.51H1034.26L1070.66 -0.0100013ZM1092.38 -0.0100013H1102.65L1066.25 104.51H1055.98L1092.38 -0.0100013ZM1093.47 104.9H1159.12V113.48H1093.47V104.9ZM1159.05 3.49999H1171.27V101H1159.05V3.49999ZM1239.65 3.49999H1251.87V101H1239.65V3.49999ZM1165.29 46.66H1246.28V57.45H1165.29V46.66ZM1314.21 102.69C1303.37 102.69 1293.8 100.567 1285.48 96.32C1277.24 92.0733 1270.83 86.18 1266.24 78.64C1261.64 71.0133 1259.35 62.2167 1259.35 52.25C1259.35 42.1967 1261.64 33.4 1266.24 25.86C1270.83 18.32 1277.24 12.4267 1285.48 8.17999C1293.71 3.93333 1303.29 1.81 1314.21 1.81C1325.04 1.81 1334.57 3.93333 1342.81 8.17999C1351.04 12.4267 1357.45 18.32 1362.05 25.86C1366.64 33.4 1368.94 42.1967 1368.94 52.25C1368.94 62.2167 1366.64 71.0133 1362.05 78.64C1357.45 86.18 1351.04 92.0733 1342.81 96.32C1334.57 100.567 1325.04 102.69 1314.21 102.69ZM1314.21 91.64C1322.79 91.64 1330.24 90.0367 1336.57 86.83C1342.89 83.5367 1347.79 78.9433 1351.26 73.05C1354.72 67.1567 1356.46 60.2233 1356.46 52.25C1356.46 44.19 1354.72 37.2133 1351.26 31.32C1347.79 25.4267 1342.89 20.8767 1336.57 17.67C1330.24 14.4633 1322.79 12.86 1314.21 12.86C1305.63 12.86 1298.17 14.4633 1291.85 17.67C1285.52 20.8767 1280.58 25.4267 1277.03 31.32C1273.56 37.2133 1271.83 44.19 1271.83 52.25C1271.83 60.2233 1273.56 67.1567 1277.03 73.05C1280.58 78.9433 1285.52 83.5367 1291.85 86.83C1298.17 90.0367 1305.63 91.64 1314.21 91.64ZM1388.89 3.49999V95.54L1383.43 90.21H1457.14V101H1376.67V3.49999H1388.89ZM1460.34 3.49999H1472.56V101H1460.34V3.49999ZM1527.47 3.49999C1538.3 3.49999 1547.84 5.53666 1556.07 9.61C1564.3 13.6833 1570.72 19.4033 1575.31 26.77C1579.9 34.05 1582.2 42.5433 1582.2 52.25C1582.2 61.87 1579.9 70.3633 1575.31 77.73C1570.72 85.01 1564.3 90.73 1556.07 94.89C1547.84 98.9633 1538.3 101 1527.47 101H1485.74V3.49999H1527.47ZM1497.96 97.75L1490.16 90.21H1527.99C1536.31 90.21 1543.59 88.6067 1549.83 85.4C1556.07 82.1933 1560.92 77.73 1564.39 72.01C1567.94 66.29 1569.72 59.7033 1569.72 52.25C1569.72 44.6233 1567.94 37.9933 1564.39 32.36C1560.92 26.64 1556.07 22.1767 1549.83 18.97C1543.59 15.7633 1536.31 14.16 1527.99 14.16H1490.16L1497.96 6.75V97.75ZM1594.66 76.82V66.42H1663.3V76.82H1594.66ZM1636.65 3.49999L1684.62 101H1671.36L1626.25 7.65999H1632.75L1587.51 101H1574.25L1622.22 3.49999H1636.65ZM1705.11 101V54.85H1717.33V101H1705.11ZM1658.96 3.49999H1673L1715.25 55.89H1707.32L1749.31 3.49999H1763.35L1715.12 63.56L1707.45 63.69L1658.96 3.49999ZM1754.35 104.9H1820V113.48H1754.35V104.9ZM1810.82 36.26C1811.34 29.3267 1813.55 23.3033 1817.45 18.19C1821.44 12.99 1826.68 8.96 1833.18 6.1C1839.77 3.24 1847.22 1.81 1855.54 1.81C1863.6 1.81 1870.62 3.06666 1876.6 5.58C1882.67 8.09333 1887.39 11.6467 1890.77 16.24C1894.15 20.8333 1895.84 26.1633 1895.84 32.23C1895.84 36.91 1894.71 41.2867 1892.46 45.36C1890.29 49.3467 1886.61 53.4633 1881.41 57.71C1876.3 61.9567 1869.32 66.81 1860.48 72.27L1824.99 94.37L1823.43 90.6H1899.09V101H1811.21V91.64L1852.42 65.64C1860.05 60.7867 1866.11 56.5833 1870.62 53.03C1875.21 49.39 1878.51 45.9667 1880.5 42.76C1882.49 39.5533 1883.49 36.1733 1883.49 32.62C1883.49 28.5467 1882.36 24.9933 1880.11 21.96C1877.94 18.84 1874.74 16.4133 1870.49 14.68C1866.33 12.9467 1861.26 12.08 1855.28 12.08C1848.35 12.08 1842.54 13.1633 1837.86 15.33C1833.27 17.41 1829.76 20.27 1827.33 23.91C1824.99 27.55 1823.6 31.6667 1823.17 36.26H1810.82ZM1945.21 102.69C1934.81 102.69 1925.84 100.61 1918.3 96.45C1910.84 92.2033 1905.12 86.31 1901.14 78.77C1897.15 71.23 1895.16 62.39 1895.16 52.25C1895.16 42.11 1897.15 33.27 1901.14 25.73C1905.12 18.19 1910.84 12.34 1918.3 8.17999C1925.84 3.93333 1934.81 1.81 1945.21 1.81C1955.61 1.81 1964.53 3.93333 1971.99 8.17999C1979.44 12.34 1985.16 18.19 1989.15 25.73C1993.13 33.27 1995.13 42.11 1995.13 52.25C1995.13 62.3033 1993.13 71.1433 1989.15 78.77C1985.16 86.31 1979.44 92.2033 1971.99 96.45C1964.53 100.61 1955.61 102.69 1945.21 102.69ZM1945.08 92.29C1956.95 92.29 1966.18 88.78 1972.77 81.76C1979.35 74.74 1982.65 64.9033 1982.65 52.25C1982.65 39.5967 1979.35 29.76 1972.77 22.74C1966.18 15.6333 1956.95 12.08 1945.08 12.08C1933.29 12.08 1924.1 15.6333 1917.52 22.74C1910.93 29.76 1907.64 39.5967 1907.64 52.25C1907.64 64.9033 1910.93 74.74 1917.52 81.76C1924.1 88.78 1933.29 92.29 1945.08 92.29ZM1991.37 36.26C1991.89 29.3267 1994.1 23.3033 1998 18.19C2001.99 12.99 2007.23 8.96 2013.73 6.1C2020.32 3.24 2027.77 1.81 2036.09 1.81C2044.15 1.81 2051.17 3.06666 2057.15 5.58C2063.22 8.09333 2067.94 11.6467 2071.32 16.24C2074.7 20.8333 2076.39 26.1633 2076.39 32.23C2076.39 36.91 2075.26 41.2867 2073.01 45.36C2070.84 49.3467 2067.16 53.4633 2061.96 57.71C2056.85 61.9567 2049.87 66.81 2041.03 72.27L2005.54 94.37L2003.98 90.6H2079.64V101H1991.76V91.64L2032.97 65.64C2040.6 60.7867 2046.66 56.5833 2051.17 53.03C2055.76 49.39 2059.06 45.9667 2061.05 42.76C2063.04 39.5533 2064.04 36.1733 2064.04 32.62C2064.04 28.5467 2062.91 24.9933 2060.66 21.96C2058.49 18.84 2055.29 16.4133 2051.04 14.68C2046.88 12.9467 2041.81 12.08 2035.83 12.08C2028.9 12.08 2023.09 13.1633 2018.41 15.33C2013.82 17.41 2010.31 20.27 2007.88 23.91C2005.54 27.55 2004.15 31.6667 2003.72 36.26H1991.37ZM2149.93 3.49999V101H2137.71V8.30999H2143.56L2085.19 73.57L2084.93 69.02H2168.91V79.16H2074.66V70.19L2134.33 3.49999H2149.93Z" fill="#F1F1F1"/>
</g>
</svg>
