<svg width="24" height="24" viewBox="0 0 24 24" fill="none" xmlns="http://www.w3.org/2000/svg">
<path fill-rule="evenodd" clip-rule="evenodd" d="M0 12C0 21.882 2.118 24 12 24C21.882 24 24 21.882 24 12C24 2.118 21.882 0 12 0C2.118 0 0 2.118 0 12ZM12 9.99998C12.5523 9.99998 13 10.4477 13 11V17C13 17.5522 12.5523 18 12 18C11.4477 18 11 17.5522 11 17V11C11 10.4477 11.4477 9.99998 12 9.99998ZM12 6.99998C11.4477 6.99998 11 7.44769 11 7.99997C11 8.55225 11.4477 8.99995 12 8.99995C12.5523 8.99995 13 8.55225 13 7.99997C13 7.44773 12.5523 6.99998 12 6.99998Z" fill="#FF3C02"/>
</svg>
