<svg width="30" height="30" viewBox="0 0 30 30" fill="none" xmlns="http://www.w3.org/2000/svg">
<path d="M15 3.75C21.2134 3.75 26.25 8.78662 26.25 15C26.25 21.2134 21.2134 26.25 15 26.25C13.0119 26.2534 11.0587 25.7273 9.34126 24.7256L3.75452 26.25L5.27552 20.661C4.2731 18.943 3.74653 16.989 3.75002 15C3.75002 8.78662 8.78664 3.75 15 3.75ZM11.166 9.7125L10.941 9.7215C10.7955 9.73152 10.6534 9.76973 10.5225 9.834C10.4005 9.9032 10.2891 9.98958 10.1918 10.0905C10.0568 10.2176 9.98026 10.3279 9.89814 10.4347C9.48203 10.9758 9.25798 11.64 9.26139 12.3225C9.26364 12.8737 9.40764 13.4104 9.63264 13.9121C10.0928 14.9269 10.8499 16.0012 11.8489 16.9969C12.0896 17.2365 12.3259 17.4772 12.5801 17.7011C13.8215 18.7939 15.3007 19.5821 16.9001 20.0029L17.5391 20.1007C17.7473 20.112 17.9554 20.0962 18.1646 20.0861C18.4922 20.0688 18.8121 19.9801 19.1018 19.8262C19.249 19.7501 19.3927 19.6675 19.5326 19.5787C19.5326 19.5787 19.5803 19.5465 19.6733 19.4775C19.8251 19.365 19.9185 19.2851 20.0445 19.1535C20.139 19.056 20.2178 18.9427 20.2808 18.8137C20.3685 18.6304 20.4563 18.2805 20.4923 17.9891C20.5193 17.7664 20.5114 17.6449 20.508 17.5695C20.5035 17.4491 20.4034 17.3242 20.2943 17.2714L19.6395 16.9777C19.6395 16.9777 18.6608 16.5514 18.0623 16.2791C17.9996 16.2518 17.9325 16.2362 17.8643 16.233C17.7873 16.2249 17.7095 16.2335 17.6361 16.2582C17.5627 16.2828 17.4955 16.323 17.439 16.3759C17.4334 16.3736 17.358 16.4377 16.5446 17.4232C16.4979 17.486 16.4336 17.5334 16.3599 17.5594C16.2862 17.5855 16.2064 17.589 16.1306 17.5695C16.0573 17.5499 15.9855 17.5251 15.9158 17.4952C15.7763 17.4367 15.7279 17.4142 15.6323 17.3737C14.9864 17.0924 14.3885 16.7117 13.8604 16.2454C13.7186 16.1216 13.587 15.9866 13.452 15.8561C13.0094 15.4322 12.6237 14.9527 12.3045 14.4296L12.2381 14.3227C12.1912 14.2505 12.1527 14.1731 12.1234 14.0921C12.0806 13.9267 12.192 13.794 12.192 13.794C12.192 13.794 12.4654 13.4947 12.5925 13.3327C12.7163 13.1752 12.8209 13.0222 12.8884 12.9131C13.0211 12.6994 13.0628 12.48 12.993 12.3101C12.678 11.5406 12.3525 10.7752 12.0165 10.014C11.9501 9.86325 11.7533 9.75525 11.5744 9.73387C11.5136 9.72637 11.4529 9.72037 11.3921 9.71587C11.2411 9.70721 11.0896 9.70871 10.9388 9.72037L11.166 9.7125Z" fill="#333333"/>
</svg>
