<svg width="1883" height="407" viewBox="0 0 1883 407" fill="none" xmlns="http://www.w3.org/2000/svg">
<path d="M208.612 406.288C179.967 406.288 152.893 401.397 127.392 391.616C102.24 381.485 80.0573 367.337 60.844 349.172C41.98 331.007 27.1333 309.523 16.304 284.72C5.47467 259.917 0.0600027 232.844 0.0600027 203.5C0.0600027 173.807 5.47467 146.733 16.304 122.28C27.1333 97.4773 41.98 75.9933 60.844 57.828C80.0573 39.3133 102.24 25.1653 127.392 15.384C152.893 5.25332 179.967 0.187994 208.612 0.187994C237.607 0.187994 264.505 5.25332 289.308 15.384C314.46 25.1653 336.468 39.3133 355.332 57.828C374.545 75.9933 389.567 97.4773 400.396 122.28C411.225 146.733 416.64 173.807 416.64 203.5C416.64 233.193 411.225 260.441 400.396 285.244C389.567 309.697 374.545 331.007 355.332 349.172C336.468 367.337 314.46 381.485 289.308 391.616C264.156 401.397 237.257 406.288 208.612 406.288ZM208.612 378.516C233.415 378.516 256.471 374.324 277.78 365.94C299.439 357.556 318.303 345.504 334.372 329.784C350.791 314.064 363.541 295.549 372.624 274.24C382.056 252.931 386.772 229.351 386.772 203.5C386.772 177.649 382.056 154.069 372.624 132.76C363.541 111.451 350.791 92.936 334.372 77.216C318.303 61.496 299.439 49.444 277.78 41.06C256.471 32.676 233.415 28.484 208.612 28.484C184.159 28.484 160.928 32.676 138.92 41.06C117.261 49.444 98.3973 61.496 82.328 77.216C66.2587 92.936 53.508 111.451 44.076 132.76C34.9933 154.069 30.452 177.649 30.452 203.5C30.452 229.351 34.9933 252.931 44.076 274.24C53.508 295.549 66.2587 314.064 82.328 329.784C98.3973 345.504 117.261 357.556 138.92 365.94C160.928 374.324 184.159 378.516 208.612 378.516ZM336.992 230.748C334.896 250.311 328.259 267.603 317.08 282.624C305.901 297.645 291.229 309.523 273.064 318.256C254.899 326.64 233.939 330.832 210.184 330.832C183.984 330.832 160.928 325.417 141.016 314.588C121.104 303.759 105.559 288.912 94.38 270.048C83.2013 250.835 77.612 228.477 77.612 202.976C77.612 177.824 83.2013 155.641 94.38 136.428C105.559 117.215 121.104 102.193 141.016 91.364C160.928 80.5347 183.984 75.12 210.184 75.12C233.24 75.12 253.851 79.4867 272.016 88.22C290.531 96.604 305.377 108.307 316.556 123.328C328.084 138.349 334.896 155.641 336.992 175.204H301.884C298.74 153.895 288.784 137.127 272.016 124.9C255.597 112.324 234.812 106.036 209.66 106.036C180.316 106.036 156.911 114.944 139.444 132.76C121.977 150.227 113.244 173.632 113.244 202.976C113.244 232.32 121.977 255.9 139.444 273.716C156.911 291.532 180.316 300.44 209.66 300.44C234.812 300.44 255.597 294.152 272.016 281.576C288.784 269 298.74 252.057 301.884 230.748H336.992ZM435.926 137.476C438.022 109.879 446.755 85.9493 462.126 65.688C477.496 45.0773 497.932 29.008 523.434 17.48C549.284 5.95199 578.803 0.187994 611.99 0.187994C643.43 0.187994 671.027 5.25332 694.782 15.384C718.886 25.5146 737.575 39.6626 750.85 57.828C764.474 75.9933 771.286 97.3027 771.286 121.756C771.286 140.271 766.744 157.737 757.662 174.156C748.928 190.225 734.256 206.993 713.646 224.46C693.035 241.577 664.914 261.315 629.282 283.672L479.942 378.516L475.226 365.94H784.386V400H435.926V369.084L602.034 262.188C633.474 241.577 658.626 223.761 677.49 208.74C696.354 193.369 709.978 179.047 718.362 165.772C726.746 152.148 730.938 137.651 730.938 122.28C730.938 104.464 726.047 89.0933 716.266 76.168C706.484 62.8933 692.686 52.588 674.87 45.252C657.054 37.916 635.919 34.248 611.466 34.248C582.471 34.248 558.192 38.7893 538.63 47.872C519.067 56.6053 504.046 68.832 493.566 84.552C483.435 100.272 477.322 117.913 475.226 137.476H435.926ZM982.998 406.288C941.427 406.288 905.795 397.904 876.102 381.136C846.409 364.019 823.702 340.264 807.982 309.872C792.262 279.48 784.402 244.023 784.402 203.5C784.402 162.977 792.262 127.52 807.982 97.128C823.702 66.3867 846.409 42.632 876.102 25.864C905.795 8.74665 941.427 0.187994 982.998 0.187994C1024.57 0.187994 1060.03 8.74665 1089.37 25.864C1118.71 42.632 1141.25 66.3867 1156.97 97.128C1172.69 127.52 1180.55 162.977 1180.55 203.5C1180.55 244.023 1172.69 279.655 1156.97 310.396C1141.25 340.788 1118.71 364.368 1089.37 381.136C1060.03 397.904 1024.57 406.288 982.998 406.288ZM982.474 372.752C1032.43 372.752 1071.2 357.905 1098.8 328.212C1126.75 298.169 1140.72 256.599 1140.72 203.5C1140.72 150.052 1126.75 108.481 1098.8 78.788C1071.2 49.0947 1032.43 34.248 982.474 34.248C932.869 34.248 894.093 49.0947 866.146 78.788C838.549 108.481 824.75 150.052 824.75 203.5C824.75 256.599 838.549 298.169 866.146 328.212C894.093 357.905 932.869 372.752 982.474 372.752ZM1181.81 137.476C1183.9 109.879 1192.64 85.9493 1208.01 65.688C1223.38 45.0773 1243.81 29.008 1269.31 17.48C1295.17 5.95199 1324.68 0.187994 1357.87 0.187994C1389.31 0.187994 1416.91 5.25332 1440.66 15.384C1464.77 25.5146 1483.46 39.6626 1496.73 57.828C1510.35 75.9933 1517.17 97.3027 1517.17 121.756C1517.17 140.271 1512.63 157.737 1503.54 174.156C1494.81 190.225 1480.14 206.993 1459.53 224.46C1438.92 241.577 1410.79 261.315 1375.16 283.672L1225.82 378.516L1221.11 365.94H1530.27V400H1181.81V369.084L1347.91 262.188C1379.35 241.577 1404.51 223.761 1423.37 208.74C1442.23 193.369 1455.86 179.047 1464.24 165.772C1472.63 152.148 1476.82 137.651 1476.82 122.28C1476.82 104.464 1471.93 89.0933 1462.15 76.168C1452.37 62.8933 1438.57 52.588 1420.75 45.252C1402.93 37.916 1381.8 34.248 1357.35 34.248C1328.35 34.248 1304.07 38.7893 1284.51 47.872C1264.95 56.6053 1249.93 68.832 1239.45 84.552C1229.32 100.272 1223.2 117.913 1221.11 137.476H1181.81ZM1579.02 6.99997H1850.45V40.536H1594.74L1610.98 26.388L1588.97 210.836L1574.3 211.36C1583.38 198.435 1595.26 186.732 1609.93 176.252C1624.6 165.772 1641.72 157.213 1661.28 150.576C1680.85 143.939 1702.16 140.62 1725.21 140.62C1759.45 140.62 1788.27 146.733 1811.67 158.96C1835.08 170.837 1852.72 186.732 1864.6 206.644C1876.47 226.556 1882.41 248.739 1882.41 273.192C1882.41 299.043 1875.25 322.099 1860.93 342.36C1846.95 362.621 1827.22 378.341 1801.72 389.52C1776.21 400.699 1746.35 406.288 1712.11 406.288C1677.18 406.288 1646.96 401.223 1621.46 391.092C1596.31 380.612 1576.22 366.289 1561.2 348.124C1546.53 329.959 1536.92 309.697 1532.38 287.34H1571.68C1577.97 313.191 1593.16 333.976 1617.27 349.696C1641.37 365.067 1672.99 372.752 1712.11 372.752C1738.66 372.752 1761.54 368.56 1780.76 360.176C1800.32 351.792 1815.34 340.264 1825.82 325.592C1836.65 310.571 1842.06 293.104 1842.06 273.192C1842.06 253.28 1837.17 235.988 1827.39 221.316C1817.96 206.295 1804.16 194.767 1786 186.732C1768.18 178.348 1746.7 174.156 1721.54 174.156C1699.54 174.156 1679.45 177.3 1661.28 183.588C1643.47 189.527 1627.75 197.387 1614.12 207.168C1600.85 216.949 1590.02 227.255 1581.64 238.084H1551.77L1579.02 6.99997Z" fill="#0A0A0A"/>
</svg>
