<svg width="35" height="30" viewBox="0 0 35 30" fill="none" xmlns="http://www.w3.org/2000/svg">
<path fill-rule="evenodd" clip-rule="evenodd" d="M18.1781 0L18.1714 1.33554C18.1663 2.64793 18.1663 2.67273 18.1275 2.83471C18.1073 2.92562 18.0702 3.0595 18.0466 3.13223C18.023 3.20496 17.9842 3.30578 17.9622 3.35537C17.9386 3.40496 17.8981 3.49091 17.8695 3.54545C17.8408 3.6 17.7902 3.68595 17.7582 3.73554C17.7261 3.78512 17.6721 3.8595 17.6384 3.90083C17.6047 3.94215 17.5456 4.01322 17.5069 4.05785C17.4681 4.10413 17.3618 4.20496 17.2707 4.2843C17.1796 4.36364 17.0751 4.44793 17.038 4.47273C17.0009 4.49752 16.9334 4.5405 16.8862 4.56694C16.8406 4.59504 16.586 4.72397 16.3212 4.8562C16.0564 4.98678 15.8287 5.10413 15.8152 5.1157C15.8017 5.12893 15.7933 5.14215 15.7983 5.14545C15.8034 5.14876 15.8945 5.21488 16.0007 5.29256C16.107 5.37025 16.2739 5.50413 16.3718 5.59008C16.4696 5.67769 16.6332 5.83967 16.7344 5.95207C16.8373 6.06446 16.9553 6.19835 16.9975 6.24793C17.0413 6.29752 17.1021 6.37686 17.1341 6.42149C17.1662 6.46777 17.2302 6.55537 17.2741 6.61983C17.3196 6.6843 17.4191 6.84298 17.4967 6.97521C17.5743 7.10744 17.6823 7.32231 17.7396 7.45455C17.7953 7.58678 17.8475 7.70744 17.8577 7.72397C17.8661 7.73884 17.8728 7.76529 17.8728 7.78182C17.8728 7.79669 17.883 7.8281 17.8948 7.85124C17.9083 7.87438 17.9234 7.92231 17.9302 7.95868C17.9386 7.99504 17.9504 8.03636 17.9589 8.04959C17.9673 8.06281 17.996 8.16694 18.0246 8.28099C18.0533 8.39504 18.0921 8.58512 18.109 8.70248C18.1275 8.81983 18.1494 9 18.1596 9.09917C18.168 9.19835 18.1764 9.56033 18.1764 9.90083C18.1764 10.3521 18.1697 10.5835 18.1494 10.7521C18.136 10.8793 18.0972 11.1091 18.0651 11.2645C18.0348 11.4198 17.9673 11.6678 17.9167 11.8182C17.8678 11.9686 17.7953 12.1653 17.7548 12.2562C17.716 12.3471 17.6367 12.5107 17.5811 12.6198C17.5254 12.7289 17.4664 12.8364 17.4512 12.8595C17.436 12.8826 17.3702 12.9835 17.3061 13.0826C17.2437 13.1818 17.1864 13.2678 17.1813 13.2727C17.1763 13.2777 17.1358 13.3289 17.0886 13.3884C17.043 13.4479 16.9486 13.562 16.8777 13.6446C16.8086 13.7256 16.6754 13.8661 16.5826 13.957C16.4898 14.0479 16.3633 14.1636 16.3009 14.2132C16.2402 14.2645 16.1356 14.3471 16.0682 14.3967C16.0024 14.4463 15.8489 14.5537 15.7258 14.6331C15.5959 14.719 15.3632 14.8463 15.1658 14.9421C14.9803 15.0314 14.7492 15.1322 14.6514 15.1653C14.5536 15.1983 14.4288 15.2413 14.3731 15.2595C14.3175 15.276 14.1623 15.3157 14.0274 15.3471C13.8924 15.3769 13.7558 15.405 13.7238 15.4116C13.6917 15.4165 13.5585 15.4331 13.4286 15.4479C13.2296 15.4727 12.9496 15.4777 10.1229 15.4959L10.1144 15.7934C10.106 16.0281 10.1094 16.0959 10.1262 16.1157C10.1465 16.1372 10.6508 16.1405 14.4743 16.1405C16.8524 16.1405 18.8039 16.1339 18.8123 16.1273C18.819 16.119 18.8308 14.5653 18.8359 12.6727C18.8426 10.6479 18.8528 9.15372 18.8629 9.04132C18.8713 8.93719 18.8848 8.84132 18.8899 8.82975C18.8966 8.81983 18.9084 8.74876 18.9185 8.67273C18.927 8.59835 18.9455 8.48926 18.9607 8.42975C18.9742 8.37025 18.9961 8.28099 19.0079 8.23141C19.0197 8.18182 19.0366 8.12562 19.0434 8.10744C19.0501 8.08926 19.0636 8.0562 19.0703 8.03306C19.0788 8.00992 19.1024 7.93554 19.1209 7.86777C19.1412 7.8 19.18 7.6876 19.2086 7.61983C19.2356 7.55207 19.2694 7.47107 19.2829 7.44132C19.2963 7.41322 19.3183 7.36033 19.3335 7.32562C19.3503 7.29256 19.3689 7.24959 19.379 7.23141C19.3891 7.21322 19.4161 7.16033 19.4414 7.1157C19.4667 7.06942 19.5156 6.98182 19.551 6.91736C19.5848 6.85289 19.6505 6.75041 19.6927 6.68595C19.7365 6.62149 19.7973 6.53223 19.8293 6.4876C19.8614 6.44132 19.944 6.33388 20.0165 6.24793C20.0874 6.16198 20.1936 6.03967 20.2527 5.97521C20.3117 5.91074 20.3977 5.82314 20.4449 5.77851C20.4905 5.73388 20.595 5.64132 20.6743 5.5719C20.7536 5.50248 20.902 5.38678 21.0032 5.31405C21.1044 5.24132 21.2562 5.13884 21.3388 5.0843C21.4232 5.0314 21.5969 4.93223 21.7267 4.86612C21.8566 4.8 22.054 4.70909 22.1653 4.66281C22.2766 4.61818 22.4925 4.5438 22.646 4.49917C22.7994 4.45289 23.0457 4.39339 23.1941 4.36694C23.3425 4.33884 23.5517 4.30744 23.6579 4.29752C23.7642 4.2876 23.9311 4.27273 24.029 4.26446C24.1723 4.25455 24.2094 4.24628 24.228 4.22149C24.2398 4.20331 24.2465 4.1719 24.2415 4.14876C24.2364 4.12562 24.2263 3.56033 24.2196 2.89091C24.2078 1.82149 24.2094 1.67107 24.2314 1.64628C24.255 1.62149 24.26 1.62149 24.3073 1.65289C24.3359 1.67107 25.5199 2.25289 26.9384 2.94876C28.3585 3.64298 29.5358 4.21653 29.5948 4.2314V2.95041C29.5948 2.24628 29.5982 1.65785 29.6032 1.64463C29.6083 1.6314 29.6184 1.61983 29.6285 1.61983C29.6386 1.61983 29.7769 1.68926 29.9389 1.7719C30.0991 1.8562 31.3033 2.44959 34.9919 4.2562V4.43802C34.9919 4.53719 34.9801 4.72066 34.9666 4.84298C34.9515 4.96529 34.9329 5.11736 34.9228 5.18182C34.9143 5.24463 34.8789 5.40165 34.8469 5.52893C34.8148 5.6562 34.7794 5.79339 34.7659 5.83471C34.7524 5.87603 34.7153 5.98017 34.6833 6.06612C34.6512 6.15207 34.604 6.27107 34.5787 6.33058C34.5534 6.39008 34.4944 6.5157 34.4472 6.61157C34.3999 6.70744 34.3156 6.8595 34.2616 6.95041C34.206 7.04132 34.12 7.17521 34.0694 7.24793C34.0171 7.32066 33.9142 7.45785 33.8383 7.55372C33.7641 7.64959 33.5836 7.84298 33.4403 7.98347C33.2969 8.12562 33.0844 8.3157 32.968 8.40496C32.8516 8.49587 32.6475 8.63802 32.5126 8.72397C32.3777 8.80826 32.1466 8.93554 31.9982 9.00661C31.8498 9.07934 31.6558 9.16364 31.5681 9.19504C31.4804 9.2281 31.305 9.2843 31.1802 9.32066C31.0554 9.35868 30.8985 9.4 30.8344 9.41322C30.7703 9.4281 30.6793 9.44628 30.632 9.45455C30.5865 9.46446 30.4937 9.47934 30.4297 9.48925C30.3656 9.49917 30.1817 9.51736 30.0249 9.52893C29.7921 9.54876 29.2204 9.55372 27.0109 9.55372C24.6109 9.55372 24.282 9.55702 24.2583 9.57851C24.2364 9.59835 24.2314 9.64959 24.2314 9.87603C24.2314 10.0959 24.2364 10.1537 24.2567 10.1736C24.2786 10.195 24.8993 10.1983 29.6369 10.1983C32.5818 10.1983 34.9953 10.2033 34.9987 10.2099C35.0021 10.2182 34.9987 10.3306 34.9919 10.4628C34.9835 10.595 34.9683 10.7769 34.9582 10.8678C34.9481 10.9587 34.9127 11.1636 34.8806 11.3223C34.8469 11.4843 34.7845 11.7174 34.7389 11.8512C34.6934 11.9835 34.604 12.2099 34.5382 12.3554C34.4725 12.5008 34.3679 12.7058 34.3055 12.8099C34.2448 12.914 34.1638 13.0446 34.125 13.0992C34.0879 13.1537 34.0154 13.2545 33.9631 13.3223C33.9125 13.3901 33.8248 13.5025 33.7691 13.5702C33.7135 13.638 33.5516 13.8099 33.4065 13.9521C33.2362 14.119 33.0625 14.2694 32.909 14.3835C32.7791 14.4793 32.6088 14.5983 32.5295 14.6496C32.4502 14.6992 32.3372 14.7686 32.2765 14.8017C32.2158 14.8347 32.0842 14.9008 31.9813 14.9504C31.8785 14.9983 31.7199 15.0694 31.6271 15.1074C31.5344 15.1455 31.3893 15.2 31.3067 15.2264C31.224 15.2529 31.0824 15.2926 30.9947 15.314C30.907 15.3355 30.7552 15.3702 30.6573 15.3884C30.5595 15.4066 30.3706 15.4347 30.2357 15.4496C30.0215 15.4727 29.6386 15.4777 27.1239 15.4826C24.9178 15.4876 24.2533 15.4942 24.2449 15.5091C24.2381 15.5207 24.2314 15.6529 24.2314 15.805C24.2314 16.0132 24.2364 16.0876 24.2533 16.1025C24.2702 16.119 24.4793 16.1273 25.1017 16.1355C25.5554 16.1438 26.0917 16.1488 26.2941 16.1488C26.4948 16.1488 26.7191 16.157 26.7916 16.1653C26.8625 16.1752 26.9755 16.1901 27.0396 16.2C27.1037 16.2099 27.2555 16.2364 27.3769 16.2595C27.4983 16.2826 27.6754 16.324 27.7732 16.3504C27.8711 16.3769 28.0144 16.4215 28.0937 16.4479C28.173 16.476 28.2826 16.5174 28.3383 16.5405C28.3939 16.5636 28.5086 16.6149 28.5912 16.6545C28.6739 16.6959 28.797 16.757 28.8611 16.7917C28.9252 16.8264 29.0551 16.9025 29.1478 16.962C29.2406 17.0198 29.3991 17.1306 29.502 17.205C29.6049 17.281 29.7516 17.4 29.8309 17.4694C29.9102 17.5388 30.0029 17.6215 30.0384 17.6529C30.0738 17.6843 30.1682 17.7851 30.2492 17.876C30.3301 17.9669 30.4263 18.0793 30.4651 18.124C30.5022 18.1702 30.5747 18.2628 30.6253 18.3306C30.6759 18.3983 30.7872 18.5653 30.8715 18.7025C30.9559 18.838 31.0571 19.0165 31.0959 19.0992C31.1347 19.1818 31.1886 19.2942 31.2156 19.3504C31.2426 19.4083 31.2645 19.4579 31.2645 19.4628C31.2645 19.4678 31.2746 19.4959 31.2881 19.524C31.2999 19.5537 31.3421 19.6744 31.3792 19.7934C31.418 19.9124 31.4568 20.0413 31.4686 20.0826C31.4787 20.124 31.499 20.205 31.5125 20.2645C31.5259 20.324 31.5479 20.4314 31.5614 20.5041C31.5765 20.5769 31.5934 20.7025 31.6018 20.7851C31.6103 20.8678 31.6255 21.0083 31.6339 21.0992C31.644 21.1901 31.6508 21.4793 31.6508 21.7438C31.6508 22.0942 31.6423 22.3124 31.6187 22.5537C31.6002 22.7355 31.5749 22.9471 31.5597 23.0248C31.5462 23.1025 31.5158 23.2364 31.4905 23.3223C31.4669 23.4083 31.4163 23.5752 31.3792 23.6942C31.3404 23.8132 31.2983 23.9355 31.2848 23.9669C31.2713 23.9983 31.2544 24.0397 31.246 24.0579C31.2392 24.076 31.2122 24.1388 31.1869 24.1983C31.1633 24.2579 31.0857 24.4132 31.0166 24.5455C30.9458 24.6777 30.8142 24.8926 30.7231 25.0248C30.632 25.157 30.4954 25.3388 30.4178 25.4298C30.3403 25.519 30.2138 25.6595 30.1345 25.7421C30.0552 25.8231 29.9152 25.9537 29.8225 26.0331C29.7297 26.1124 29.6083 26.2116 29.5526 26.2545C29.497 26.2975 29.3873 26.3752 29.3081 26.4281C29.2288 26.481 29.0922 26.5669 29.0045 26.6198C28.9168 26.6711 28.7464 26.7636 28.625 26.8231C28.5035 26.881 28.3366 26.9554 28.2539 26.9868C28.1713 27.0165 28.0482 27.0595 27.9841 27.081C27.92 27.1025 27.8019 27.1388 27.7226 27.162C27.6434 27.1851 27.4916 27.2231 27.3853 27.2463C27.2791 27.2694 27.0682 27.3025 26.9181 27.3207C26.7663 27.3405 26.5758 27.3554 26.4914 27.3554C26.4037 27.3554 26.3211 27.3636 26.2536 27.3967L26.2502 28.5702C26.2485 29.2149 26.2469 29.7983 26.2469 29.8645C26.2469 29.9488 26.2401 29.9835 26.2266 29.9835C26.2148 29.9835 25.8202 29.795 25.3496 29.5636C24.8773 29.3322 23.894 28.8496 23.1604 28.4909C22.4284 28.1322 21.6188 27.7372 21.3641 27.6132C21.1094 27.4909 20.8953 27.3884 20.8885 27.3884C20.8801 27.3884 20.875 27.9752 20.875 28.6942C20.875 29.8446 20.8716 30 20.8497 30C20.8362 30 20.708 29.9388 20.568 29.8645C20.4264 29.7917 19.2441 29.2066 17.9403 28.5686C16.6366 27.9289 15.5538 27.405 15.4947 27.405V28.6942C15.4947 29.7091 15.4897 29.9851 15.4745 29.9934C15.4627 29.9983 15.3885 29.9686 15.3092 29.9273C15.2299 29.886 14.0695 29.3124 12.7287 28.6545C11.3878 27.9967 10.2696 27.4463 10.2409 27.4314C10.2123 27.4165 10.1735 27.405 10.1144 27.405V28.6777C10.1144 29.3769 10.1111 29.962 10.106 29.9752C10.1009 29.9884 10.0875 30 10.0773 30C10.0655 30 9.98289 29.962 9.89518 29.9157C9.80748 29.8678 8.62685 29.2876 7.2725 28.6248C5.91816 27.962 4.7915 27.4116 4.76789 27.4C4.72741 27.3802 4.72572 27.3719 4.72066 27.1983C4.71729 27.0975 4.72741 26.9091 4.74259 26.7769C4.75777 26.6446 4.78813 26.4364 4.81174 26.3141C4.83535 26.1917 4.86571 26.0496 4.8792 26C4.89438 25.9504 4.92812 25.838 4.95679 25.7521C4.98377 25.6661 5.01751 25.5702 5.031 25.5405C5.04449 25.5124 5.05461 25.476 5.05461 25.4628C5.05461 25.4496 5.05967 25.4347 5.0681 25.4314C5.07485 25.4281 5.08497 25.4083 5.09172 25.3868C5.09846 25.3653 5.13051 25.2876 5.16424 25.2149C5.19797 25.1421 5.25363 25.0264 5.28736 24.9587C5.3211 24.8909 5.41555 24.7306 5.49819 24.6033C5.57915 24.476 5.6736 24.3339 5.70733 24.2893C5.73938 24.243 5.83214 24.124 5.9131 24.0248C5.99574 23.9256 6.13236 23.7719 6.22006 23.6843C6.30776 23.5967 6.43595 23.4744 6.5051 23.4116C6.57593 23.3488 6.71592 23.2347 6.81712 23.1587C6.92 23.081 7.0583 22.9851 7.12577 22.9438C7.19492 22.9008 7.286 22.8463 7.32816 22.8198C7.37201 22.795 7.50694 22.7223 7.62669 22.6612C7.74813 22.6 7.97076 22.5008 8.12424 22.4413C8.27772 22.3818 8.46325 22.3174 8.53746 22.2975C8.61167 22.2777 8.71793 22.2512 8.77359 22.238C8.82924 22.2248 8.8984 22.2066 8.92538 22.1983C8.95405 22.1901 9.01814 22.1736 9.06874 22.1636C9.11934 22.1537 9.21548 22.1388 9.27957 22.1306C9.34535 22.1223 9.50389 22.1074 9.63376 22.0992C9.78049 22.0893 12.9345 22.081 18.0162 22.0793C24.4945 22.076 26.171 22.0694 26.2013 22.0529C26.2384 22.0331 26.2384 22.0264 26.2384 21.7438C26.2384 21.5851 26.2351 21.4446 26.23 21.4331C26.2232 21.4182 24.5872 21.4149 18.1039 21.4198C11.9545 21.4248 9.92385 21.4215 9.72652 21.4066C9.58316 21.395 9.39257 21.3752 9.30487 21.3636C9.21716 21.3504 9.06874 21.3256 8.97598 21.3074C8.88322 21.2909 8.71287 21.2496 8.59649 21.2165C8.48012 21.1835 8.35193 21.1438 8.30977 21.1289C8.2676 21.1157 8.12424 21.0595 7.98931 21.005C7.85438 20.9504 7.63512 20.8446 7.5002 20.7719C7.36527 20.6992 7.19829 20.6017 7.12914 20.5554C7.05999 20.5107 6.91494 20.4083 6.80869 20.3289C6.70243 20.2496 6.55401 20.1306 6.4798 20.0645C6.40559 19.9967 6.26222 19.8562 6.16271 19.7521C6.06152 19.6479 5.90972 19.4727 5.82539 19.3636C5.74106 19.2545 5.61963 19.0876 5.55554 18.9917C5.49313 18.8959 5.37844 18.6959 5.30254 18.5455C5.22496 18.395 5.13557 18.2132 5.10184 18.1405C5.06979 18.0678 5.02257 17.9521 4.99895 17.8843C4.97534 17.8165 4.93486 17.6859 4.91125 17.595C4.88595 17.5041 4.84716 17.3471 4.82523 17.2479C4.80331 17.1488 4.77295 16.9802 4.75777 16.876C4.74259 16.7719 4.72572 16.4744 4.71729 16.2149C4.70886 15.9455 4.71054 15.5818 4.71898 15.3636C4.72741 15.1537 4.7409 14.9174 4.75102 14.8347C4.75945 14.7521 4.77801 14.6331 4.7915 14.5702C4.80499 14.5074 4.82355 14.4066 4.83535 14.3471C4.84547 14.2876 4.86571 14.2 4.8792 14.1521C4.8927 14.1058 4.91462 14.0231 4.93149 13.9702C4.94667 13.919 4.98546 13.805 5.01751 13.719C5.04787 13.6331 5.08497 13.5322 5.10015 13.4959C5.11364 13.4595 5.18448 13.3107 5.25532 13.1653C5.32784 13.0198 5.41892 12.8496 5.4594 12.7851C5.49819 12.7207 5.57915 12.5983 5.63818 12.5124C5.69552 12.4264 5.81021 12.2727 5.89117 12.1736C5.97381 12.0744 6.16103 11.8727 6.31114 11.7256C6.47474 11.5636 6.66026 11.4017 6.78339 11.3107C6.8947 11.2281 7.06168 11.114 7.15444 11.0545C7.2472 10.995 7.42261 10.8942 7.54236 10.8314C7.6638 10.7669 7.83077 10.6876 7.91341 10.6529C7.99775 10.6182 8.1293 10.5653 8.20857 10.5339C8.28784 10.5041 8.47 10.4463 8.61336 10.4066C8.75672 10.3669 8.96923 10.319 9.08561 10.2992C9.20199 10.2793 9.34535 10.2562 9.40606 10.2479C9.46678 10.2397 9.55449 10.2264 9.60003 10.2215C9.64725 10.2165 10.3759 10.2066 11.2192 10.2C12.0642 10.1934 12.7557 10.1868 12.759 10.1851C12.7607 10.1835 12.7624 10.0446 12.7624 9.57025L12.7084 9.56198C12.6781 9.55702 10.9527 9.55537 5.09678 9.56198L4.97871 9.6C4.91462 9.62149 4.81174 9.66612 4.75102 9.69752C4.6903 9.72893 4.58911 9.79835 4.52502 9.84959C4.46093 9.90083 4.37659 9.98347 4.3378 10.0331C4.29901 10.0826 4.23829 10.1719 4.20625 10.2314C4.17251 10.2909 4.13035 10.3835 4.1118 10.438C4.09324 10.4926 4.06963 10.5884 4.0612 10.6529C4.05108 10.7174 4.04265 11.0793 4.04265 11.4661C4.04265 12.0727 4.03927 12.1669 4.01735 12.1736C4.00385 12.1785 3.95663 12.157 3.91278 12.1273C3.86724 12.0975 3.77448 12.0331 3.70532 11.9818C3.63617 11.9322 3.01044 11.519 2.31387 11.0661C1.61899 10.6132 0.97639 10.1917 0.888686 10.1322C0.800982 10.0711 0.681233 9.97355 0.623888 9.9157C0.566544 9.85785 0.502452 9.79174 0.482213 9.7686C0.46366 9.74545 0.414749 9.68595 0.375957 9.63636C0.337165 9.58678 0.281507 9.50744 0.252834 9.46281C0.224162 9.41653 0.18031 9.33554 0.156697 9.28099C0.131398 9.22645 0.112846 9.1686 0.112846 9.15207C0.112846 9.13719 0.102726 9.10744 0.0926062 9.08595C0.0808 9.06612 0.0605606 9.00165 0.0487544 8.94215C0.0352615 8.88264 0.0183954 8.67107 0.00827575 8.47108C-0.00353052 8.23967 -0.00521713 8.00826 0.020082 7.56198L3.15718 7.55372C5.39531 7.54711 6.3162 7.53884 6.37017 7.52562C6.41233 7.5157 6.48486 7.49256 6.5304 7.47438C6.57762 7.4562 6.66532 7.41322 6.72773 7.37851C6.79013 7.34215 6.88964 7.27273 6.94699 7.22314C7.00433 7.17355 7.07854 7.09421 7.11228 7.04959C7.14769 7.00331 7.19998 6.91901 7.23034 6.8595C7.2607 6.8 7.29612 6.73223 7.30961 6.70579C7.32141 6.68099 7.33153 6.64463 7.33153 6.62314C7.33153 6.60331 7.33828 6.57851 7.3484 6.57025C7.35683 6.56198 7.37201 6.50909 7.38045 6.45455C7.39057 6.4 7.40069 6.33554 7.41587 6.26446L7.2354 6.25785C7.1342 6.25455 5.4712 6.25289 0.020082 6.2562L0.0167088 3.94545C0.011649 1.75537 0.0133356 1.63636 0.0420079 1.63636C0.0571874 1.63636 0.0824866 1.64793 0.0959795 1.6595C0.109472 1.67273 0.910612 2.06942 1.87535 2.54215C2.84009 3.01488 3.86218 3.51405 4.1489 3.65124C4.43394 3.78843 4.67512 3.90083 4.68356 3.90083C4.69368 3.90083 4.7038 3.88926 4.70886 3.87603C4.71392 3.86281 4.71729 3.35372 4.71729 2.7438C4.71729 2.13388 4.72235 1.63636 4.73078 1.63636C4.73753 1.63636 5.60445 2.0595 6.65689 2.57521C8.24736 3.35537 8.60324 3.52397 8.76515 3.57355C8.87141 3.60661 9.03501 3.64959 9.12777 3.66777C9.22054 3.6876 9.37233 3.71074 9.4651 3.72066C9.56461 3.73223 9.73833 3.73388 9.88675 3.72727C10.0267 3.72231 10.1971 3.70579 10.2662 3.69256C10.3354 3.67934 10.4534 3.65289 10.5277 3.63636C10.6019 3.61983 10.7351 3.57851 10.8228 3.54711C10.9105 3.5157 11.0134 3.47603 11.0505 3.4595C11.0876 3.44463 12.6899 2.6595 14.6093 1.71736C16.5286 0.775207 18.1174 0.00330579 18.1781 0ZM10.924 5.64463C10.8397 5.80826 10.7267 6.00496 10.6744 6.08099C10.6204 6.15868 10.526 6.26777 10.4602 6.32727C10.3961 6.38512 10.2814 6.46942 10.2072 6.5157C10.133 6.56033 9.95084 6.6562 9.80242 6.72727C9.654 6.79835 9.51738 6.86942 9.49883 6.8843C9.47016 6.90744 9.46847 6.9124 9.4904 6.92727C9.50389 6.93719 9.66074 7.01488 9.83615 7.10083C10.0132 7.18843 10.1903 7.27769 10.2325 7.30248C10.2747 7.32562 10.3472 7.37521 10.3944 7.41157C10.4416 7.44959 10.5159 7.52066 10.5597 7.57025C10.6036 7.61983 10.6761 7.72066 10.7199 7.79339C10.7655 7.86612 10.865 8.04463 10.9409 8.19008C11.0168 8.33554 11.0893 8.46446 11.0994 8.47603C11.1095 8.4876 11.123 8.49752 11.1315 8.49587C11.1382 8.49587 11.1433 8.48595 11.1433 8.47603C11.1433 8.46446 11.2124 8.32066 11.2968 8.15703C11.3811 7.99339 11.4907 7.8 11.5379 7.72893C11.5852 7.6562 11.6779 7.54876 11.742 7.49091C11.8078 7.43141 11.909 7.35207 11.9697 7.31405C12.0304 7.27438 12.2261 7.1719 12.4049 7.0843C12.582 6.99669 12.727 6.91736 12.7253 6.90744C12.7219 6.89752 12.5651 6.81157 12.3745 6.7157C12.1839 6.61983 11.9731 6.50413 11.9039 6.45785C11.8348 6.40992 11.7403 6.33058 11.6931 6.28099C11.6459 6.22975 11.5717 6.13719 11.5295 6.07438C11.4857 6.00992 11.3912 5.84793 11.3187 5.71074C11.2478 5.57521 11.1719 5.4314 11.1517 5.39339C11.1298 5.35041 11.1095 5.32893 11.0977 5.33554C11.0876 5.34215 11.01 5.48099 10.924 5.64463Z" fill="#FF3C02"/>
</svg>
