<svg width="30" height="30" viewBox="0 0 30 30" fill="none" xmlns="http://www.w3.org/2000/svg">
<path d="M5 25C4.3125 25 3.72417 24.7554 3.235 24.2662C2.74583 23.7771 2.50083 23.1883 2.5 22.5V7.5C2.5 6.8125 2.745 6.22417 3.235 5.735C3.725 5.24583 4.31333 5.00083 5 5H25C25.6875 5 26.2762 5.245 26.7662 5.735C27.2562 6.225 27.5008 6.81333 27.5 7.5V22.5C27.5 23.1875 27.2554 23.7762 26.7662 24.2662C26.2771 24.7562 25.6883 25.0008 25 25H5ZM15 16.0312C15.1042 16.0312 15.2137 16.0154 15.3287 15.9837C15.4437 15.9521 15.5529 15.9054 15.6562 15.8437L24.5 10.3125C24.6667 10.2083 24.7917 10.0783 24.875 9.9225C24.9583 9.76667 25 9.59458 25 9.40625C25 8.98958 24.8229 8.67708 24.4687 8.46875C24.1146 8.26042 23.75 8.27083 23.375 8.5L15 13.75L6.625 8.5C6.25 8.27083 5.88542 8.26583 5.53125 8.485C5.17708 8.70417 5 9.01125 5 9.40625C5 9.61458 5.04167 9.79708 5.125 9.95375C5.20833 10.1104 5.33333 10.23 5.5 10.3125L14.3437 15.8437C14.4479 15.9062 14.5575 15.9533 14.6725 15.985C14.7875 16.0167 14.8967 16.0321 15 16.0312Z" fill="#333333"/>
</svg>
