<svg width="30" height="30" viewBox="0 0 30 30" fill="none" xmlns="http://www.w3.org/2000/svg">
<path d="M15 3.75C8.79 3.75 3.75 8.79 3.75 15C3.75 21.21 8.79 26.25 15 26.25C21.21 26.25 26.25 21.21 26.25 15C26.25 8.79 21.21 3.75 15 3.75ZM20.22 11.4C20.0512 13.1775 19.32 17.4975 18.9487 19.4887C18.7912 20.3325 18.4762 20.6138 18.1837 20.6475C17.5312 20.7038 17.0363 20.22 16.4062 19.8037C15.4163 19.1512 14.8538 18.7463 13.8975 18.1163C12.7838 17.385 13.5037 16.98 14.145 16.3275C14.3138 16.1588 17.1937 13.5375 17.25 13.3012C17.2578 13.2655 17.2568 13.2283 17.247 13.193C17.2372 13.1577 17.2189 13.1254 17.1938 13.0988C17.1263 13.0425 17.0363 13.065 16.9575 13.0763C16.8562 13.0988 15.2812 14.145 12.21 16.215C11.76 16.5187 11.355 16.6762 10.995 16.665C10.59 16.6537 9.825 16.44 9.25125 16.2487C8.5425 16.0237 7.99125 15.9 8.03625 15.5063C8.05875 15.3038 8.34 15.1012 8.86875 14.8875C12.1538 13.4587 14.3363 12.5138 15.4275 12.0638C18.555 10.7588 19.1963 10.5337 19.6238 10.5337C19.7138 10.5337 19.9275 10.5562 20.0625 10.6687C20.175 10.7587 20.2087 10.8825 20.22 10.9725C20.2087 11.04 20.2312 11.2425 20.22 11.4Z" fill="#333333"/>
</svg>
