<svg width="30" height="30" viewBox="0 0 30 30" fill="none" xmlns="http://www.w3.org/2000/svg">
<path d="M20 3.75C21.6576 3.75 23.2473 4.40848 24.4194 5.58058C25.5915 6.75269 26.25 8.3424 26.25 10V20C26.25 21.6576 25.5915 23.2473 24.4194 24.4194C23.2473 25.5915 21.6576 26.25 20 26.25H10C8.3424 26.25 6.75269 25.5915 5.58058 24.4194C4.40848 23.2473 3.75 21.6576 3.75 20V10C3.75 8.3424 4.40848 6.75269 5.58058 5.58058C6.75269 4.40848 8.3424 3.75 10 3.75H20ZM15 10C13.6739 10 12.4021 10.5268 11.4645 11.4645C10.5268 12.4021 10 13.6739 10 15C10 16.3261 10.5268 17.5979 11.4645 18.5355C12.4021 19.4732 13.6739 20 15 20C16.3261 20 17.5979 19.4732 18.5355 18.5355C19.4732 17.5979 20 16.3261 20 15C20 13.6739 19.4732 12.4021 18.5355 11.4645C17.5979 10.5268 16.3261 10 15 10ZM15 12.5C15.663 12.5 16.2989 12.7634 16.7678 13.2322C17.2366 13.7011 17.5 14.337 17.5 15C17.5 15.663 17.2366 16.2989 16.7678 16.7678C16.2989 17.2366 15.663 17.5 15 17.5C14.337 17.5 13.7011 17.2366 13.2322 16.7678C12.7634 16.2989 12.5 15.663 12.5 15C12.5 14.337 12.7634 13.7011 13.2322 13.2322C13.7011 12.7634 14.337 12.5 15 12.5ZM20.625 8.125C20.2935 8.125 19.9755 8.2567 19.7411 8.49112C19.5067 8.72554 19.375 9.04348 19.375 9.375C19.375 9.70652 19.5067 10.0245 19.7411 10.2589C19.9755 10.4933 20.2935 10.625 20.625 10.625C20.9565 10.625 21.2745 10.4933 21.5089 10.2589C21.7433 10.0245 21.875 9.70652 21.875 9.375C21.875 9.04348 21.7433 8.72554 21.5089 8.49112C21.2745 8.2567 20.9565 8.125 20.625 8.125Z" fill="#333333"/>
</svg>
