<svg width="167" height="18" viewBox="0 0 167 18" fill="none" xmlns="http://www.w3.org/2000/svg">
<path d="M76.5085 14.0093V10.6773H88.4724V14.0093H76.5085ZM85.3082 0.5L93.3458 17.5H88.842L81.913 2.22267H83.2295L76.3237 17.5H71.8199L79.8575 0.5H85.3082Z" fill="#0A0A0A"/>
<path d="M64.0346 0.5C66.0671 0.5 67.8378 0.855111 69.3468 1.56533C70.8712 2.27556 72.0568 3.26533 72.9037 4.53467C73.7659 5.804 74.1971 7.29244 74.1971 9C74.1971 10.6924 73.7659 12.1809 72.9037 13.4653C72.0568 14.7347 70.8712 15.7244 69.3468 16.4347C67.8378 17.1449 66.0671 17.5 64.0346 17.5H55.6506V0.5H64.0346ZM59.8541 15.8227L57.7755 13.828H64.3349C65.4743 13.828 66.4597 13.6316 67.2912 13.2387C68.1381 12.8307 68.7848 12.264 69.2313 11.5387C69.6932 10.8133 69.9242 9.96711 69.9242 9C69.9242 8.01778 69.6932 7.17156 69.2313 6.46133C68.7848 5.736 68.1381 5.17689 67.2912 4.784C66.4597 4.376 65.4743 4.172 64.3349 4.172H57.7755L59.8541 2.17733V15.8227Z" fill="#0A0A0A"/>
<path d="M51.8406 14.712L50.4548 14.9387V0.5H54.5429V17.5H49.2307L38.4909 3.06133L39.8767 2.83467V17.5H35.7886V0.5H41.2624L51.8406 14.712Z" fill="#0A0A0A"/>
<path d="M19.4711 14.0093V10.6773H31.4351V14.0093H19.4711ZM28.2709 0.5L36.3085 17.5H31.8047L24.8757 2.22267H26.1922L19.2864 17.5H14.7826L22.8201 0.5H28.2709Z" fill="#0A0A0A"/>
<path d="M8.12996 17.5V9.272H12.3335V17.5H8.12996ZM0 0.5H4.66549L11.2018 8.63733H9.23859L15.7749 0.5H20.4404L11.5944 11.516L8.86905 11.5613L0 0.5Z" fill="#0A0A0A"/>
<path d="M95.1647 17.5C94.7621 17.5 94.3943 17.4045 94.0612 17.2136C93.7419 17.0226 93.4852 16.7703 93.2908 16.4566C93.0965 16.1293 92.9994 15.7678 92.9994 15.3723C92.9994 14.9631 93.0965 14.6017 93.2908 14.288C93.4852 13.9606 93.7419 13.7083 94.0612 13.531C94.3943 13.34 94.7621 13.2446 95.1647 13.2446C95.5672 13.2446 95.928 13.34 96.2473 13.531C96.5804 13.7083 96.8441 13.9606 97.0385 14.288C97.2328 14.6017 97.3299 14.9631 97.3299 15.3723C97.3299 15.7678 97.2328 16.1293 97.0385 16.4566C96.8441 16.7703 96.5804 17.0226 96.2473 17.2136C95.928 17.4045 95.5672 17.5 95.1647 17.5Z" fill="#0A0A0A"/>
<path d="M160.488 0.847173C161.846 0.847173 163.005 1.07906 163.965 1.54283C164.94 1.9921 165.686 2.62978 166.203 3.45587C166.734 4.26746 167 5.21674 167 6.3037C167 7.40515 166.734 8.36891 166.203 9.195C165.686 10.0066 164.94 10.6443 163.965 11.108C163.005 11.5573 161.846 11.782 160.488 11.782H153.2V8.54283H160.288C161.115 8.54283 161.758 8.34717 162.215 7.95587C162.688 7.55007 162.924 6.99935 162.924 6.3037C162.924 5.60804 162.688 5.06456 162.215 4.67326C161.758 4.28196 161.115 4.0863 160.288 4.0863H153.576L155.393 2.21674V17.1515H151.339V0.847173H160.488Z" fill="#0A0A0A"/>
<path d="M141.304 17.5C139.355 17.5 137.649 17.1449 136.187 16.4348C134.725 15.7246 133.581 14.7319 132.754 13.4565C131.942 12.1812 131.536 10.6957 131.536 9C131.536 7.30435 131.942 5.81884 132.754 4.54348C133.581 3.26812 134.725 2.27536 136.187 1.56522C137.649 0.855073 139.355 0.5 141.304 0.5C143.239 0.5 144.937 0.855073 146.399 1.56522C147.876 2.27536 149.02 3.26812 149.833 4.54348C150.645 5.81884 151.051 7.30435 151.051 9C151.051 10.6957 150.645 12.1812 149.833 13.4565C149.02 14.7319 147.876 15.7246 146.399 16.4348C144.937 17.1449 143.239 17.5 141.304 17.5ZM141.304 13.9565C142.471 13.9565 143.475 13.7609 144.317 13.3696C145.159 12.9638 145.808 12.3913 146.266 11.6522C146.739 10.8986 146.975 10.0145 146.975 9C146.975 7.98551 146.739 7.1087 146.266 6.36957C145.808 5.61594 145.159 5.04348 144.317 4.65217C143.475 4.24638 142.471 4.04348 141.304 4.04348C140.138 4.04348 139.126 4.24638 138.27 4.65217C137.428 5.04348 136.778 5.61594 136.32 6.36957C135.863 7.1087 135.634 7.98551 135.634 9C135.634 10.0145 135.863 10.8986 136.32 11.6522C136.778 12.3913 137.428 12.9638 138.27 13.3696C139.126 13.7609 140.138 13.9565 141.304 13.9565Z" fill="#0A0A0A"/>
<path d="M113.976 0.847173H118.03V17.1515H113.976V0.847173ZM127.223 0.847173H131.254V17.1515H127.223V0.847173ZM116.213 7.15152H128.95V10.6298H116.213V7.15152Z" fill="#0A0A0A"/>
<path d="M96.9835 11.8261H101.081C101.155 12.3478 101.384 12.8043 101.768 13.1957C102.167 13.5725 102.691 13.8696 103.341 14.087C104.005 14.2899 104.773 14.3913 105.645 14.3913C106.9 14.3913 107.882 14.2174 108.591 13.8696C109.314 13.5217 109.676 13.0362 109.676 12.413C109.676 11.9348 109.469 11.5652 109.056 11.3043C108.642 11.029 107.867 10.8333 106.73 10.7174L103.496 10.3696C101.281 10.1522 99.6786 9.65217 98.6891 8.86957C97.7145 8.08696 97.2271 7.00725 97.2271 5.63043C97.2271 4.54348 97.552 3.62319 98.2018 2.86957C98.8516 2.10145 99.7672 1.51449 100.949 1.1087C102.13 0.702899 103.518 0.5 105.113 0.5C106.678 0.5 108.059 0.724638 109.255 1.17391C110.466 1.62319 111.426 2.24638 112.135 3.04348C112.859 3.82609 113.257 4.75362 113.331 5.82609H109.211C109.152 5.37681 108.945 4.99275 108.591 4.67391C108.251 4.34058 107.779 4.07971 107.173 3.8913C106.568 3.7029 105.851 3.6087 105.024 3.6087C103.887 3.6087 102.979 3.77536 102.3 4.1087C101.635 4.42754 101.303 4.88406 101.303 5.47826C101.303 5.92754 101.495 6.28261 101.879 6.54348C102.278 6.78986 102.994 6.97826 104.028 7.1087L107.461 7.47826C108.997 7.63768 110.223 7.89855 111.138 8.26087C112.069 8.6087 112.733 9.08696 113.132 9.69565C113.545 10.2899 113.752 11.0507 113.752 11.9783C113.752 13.0797 113.412 14.0507 112.733 14.8913C112.054 15.7174 111.101 16.3623 109.876 16.8261C108.65 17.2754 107.217 17.5 105.578 17.5C103.895 17.5 102.418 17.2609 101.148 16.7826C99.8779 16.3043 98.8737 15.6449 98.1354 14.8043C97.4118 13.9493 97.0278 12.9565 96.9835 11.8261Z" fill="#0A0A0A"/>
</svg>
