<svg width="30" height="30" viewBox="0 0 30 30" fill="none" xmlns="http://www.w3.org/2000/svg">
<path d="M25 14.0625C25.5178 14.0625 25.9375 14.4822 25.9375 15C25.9375 15.5178 25.5178 15.9375 25 15.9375H5C4.48223 15.9375 4.0625 15.5178 4.0625 15C4.0625 14.4822 4.48223 14.0625 5 14.0625H25Z" fill="#333333"/>
<path d="M25 21.5625C25.5178 21.5625 25.9375 21.9822 25.9375 22.5C25.9375 23.0178 25.5178 23.4375 25 23.4375H5C4.48223 23.4375 4.0625 23.0178 4.0625 22.5C4.0625 21.9822 4.48223 21.5625 5 21.5625H25Z" fill="#333333"/>
<path d="M25 6.5625C25.5178 6.5625 25.9375 6.98223 25.9375 7.5C25.9375 8.01777 25.5178 8.4375 25 8.4375H5C4.48223 8.4375 4.0625 8.01777 4.0625 7.5C4.0625 6.98223 4.48223 6.5625 5 6.5625H25Z" fill="#333333"/>
</svg>
