<svg width="16" height="16" viewBox="0 0 16 16" fill="none" xmlns="http://www.w3.org/2000/svg">
<g clip-path="url(#clip0_4664_33112)">
<path d="M14.8 8C14.8 4.24446 11.7555 1.2 8 1.2C4.24446 1.2 1.2 4.24446 1.2 8C1.2 11.7555 4.24446 14.8 8 14.8V16C3.58172 16 0 12.4183 0 8C0 3.58172 3.58172 0 8 0C12.4183 0 16 3.58172 16 8C16 12.4183 12.4183 16 8 16V14.8C11.7555 14.8 14.8 11.7555 14.8 8Z" fill="#333333"/>
<path d="M11.5167 4.8467C11.7126 4.57951 12.0877 4.52184 12.355 4.71779C12.6221 4.91376 12.6798 5.28886 12.4839 5.55607L8.60417 10.8475C8.11631 11.5127 7.16145 11.6142 6.5448 11.0662L3.60183 8.44982C3.35419 8.2297 3.33177 7.85062 3.55183 7.60295C3.75825 7.37072 4.10449 7.33652 4.35105 7.51466L4.3987 7.55295L7.34167 10.1694C7.42972 10.2476 7.56647 10.233 7.6362 10.1381L11.5167 4.8467Z" fill="#333333"/>
</g>
<defs>
<clipPath id="clip0_4664_33112">
<rect width="16" height="16" fill="white"/>
</clipPath>
</defs>
</svg>
