<svg width="24" height="24" viewBox="0 0 24 24" fill="none" xmlns="http://www.w3.org/2000/svg">
<g opacity="0.8">
<path d="M5.71479 21.1831C4.91067 21.1831 4.1386 20.8503 3.52328 20.2344C2.15896 18.8656 2.15896 16.6394 3.52297 15.2715L14.1613 3.97458C15.8211 2.31208 18.3636 2.46146 20.2191 4.31929C21.0505 5.15217 21.517 6.35288 21.4995 7.61494C21.482 8.86369 20.9942 10.0587 20.1604 10.894L12.1203 19.4534C11.8965 19.6932 11.5213 19.7041 11.2824 19.4792C11.0441 19.2539 11.0325 18.8781 11.2572 18.6392L19.3094 10.0667C19.9393 9.43572 20.3006 8.54057 20.3139 7.59832C20.3273 6.6555 19.9867 5.76658 19.3809 5.15926C18.2427 4.01872 16.3896 3.42148 15.0119 4.8024L4.37389 16.0993C3.4592 17.0164 3.4595 18.4892 4.36203 19.3941C4.78527 19.8176 5.28767 20.0239 5.82266 19.9916C6.35203 19.9593 6.89622 19.6878 7.35504 19.2278L15.8196 10.2184C16.1263 9.91108 16.7429 9.15764 16.1154 8.52868C15.76 8.17271 15.5104 8.19464 15.4283 8.20146C15.1939 8.22221 14.92 8.38434 14.6358 8.66947L8.26469 15.4454C8.03972 15.6846 7.66419 15.6962 7.42675 15.4706C7.18815 15.246 7.17719 14.8695 7.40156 14.6312L13.7842 7.84252C14.286 7.33835 14.7991 7.06507 15.3214 7.01823C15.7289 6.98206 16.335 7.06892 16.9533 7.68898C17.871 8.60839 17.7569 9.95703 16.6703 11.046L8.20573 20.0547C7.52994 20.7329 6.71393 21.1268 5.89528 21.1771C5.83511 21.1813 5.77496 21.1831 5.71479 21.1831Z" fill="#FF3C02"/>
</g>
</svg>
