<svg width="40" height="20" viewBox="0 0 40 20" fill="none" xmlns="http://www.w3.org/2000/svg">
<g clip-path="url(#clip0_4791_69880)">
<path d="M34.5854 5.71127V10.6009H32.8321V7.17094H31.1439V10.6009H29.3906V5.71094H34.5854V5.71127Z" fill="#0A0A0A"/>
<path fill-rule="evenodd" clip-rule="evenodd" d="M25.7904 10.7746C27.3599 10.7746 28.5255 9.81623 28.5255 8.3634C28.5255 6.95723 27.6655 6.04423 26.2284 6.04423C25.5651 6.04423 25.0178 6.27673 24.6056 6.6779C24.704 5.84873 25.4081 5.2434 26.1834 5.2434C26.3623 5.2434 27.7092 5.24056 27.7092 5.24056L28.4709 3.78906C28.4709 3.78906 26.7799 3.8274 25.9937 3.8274C24.1976 3.85856 22.9844 5.4844 22.9844 7.45906C22.9844 9.75956 24.1676 10.7746 25.7904 10.7746ZM25.7999 7.3299C26.3827 7.3299 26.7867 7.71123 26.7867 8.36323C26.7867 8.95006 26.4277 9.43356 25.7999 9.4349C25.1994 9.4349 24.7954 8.9869 24.7954 8.37323C24.7954 7.72106 25.1994 7.3299 25.7999 7.3299Z" fill="#0A0A0A"/>
<path d="M21.5581 8.96117C21.5581 8.96117 21.144 9.19883 20.5256 9.24383C19.8147 9.26483 19.1812 8.81767 19.1812 8.02317C19.1812 7.24817 19.7402 6.804 20.5077 6.804C20.9784 6.804 21.601 7.12883 21.601 7.12883C21.601 7.12883 22.0565 6.29633 22.2925 5.88C21.8604 5.55383 21.2848 5.375 20.6153 5.375C18.9258 5.375 17.6172 6.472 17.6172 8.01333C17.6172 9.57433 18.8471 10.6458 20.6153 10.6135C21.1096 10.5952 21.7914 10.4223 22.207 10.1565L21.5581 8.96117Z" fill="#0A0A0A"/>
<path d="M0 4.35156L2.43213 8.68073V11.3214L0.00284519 15.6421L0 4.35156Z" fill="#5B57A2"/>
<path d="M9.33594 7.10627L11.6149 5.71527L16.279 5.71094L9.33594 9.9466V7.10627Z" fill="#D90751"/>
<path d="M9.32338 4.32783L9.33626 10.0595L6.89844 8.56783V0L9.32338 4.32783Z" fill="#FAB718"/>
<path d="M16.2794 5.71183L11.6151 5.71617L9.32337 4.32783L6.89844 0L16.2794 5.71183Z" fill="#ED6F26"/>
<path d="M9.33626 15.666V12.8852L6.89844 11.4219L6.89978 19.9982L9.33626 15.666Z" fill="#63B22F"/>
<path d="M11.6117 14.2877L2.43197 8.68073L0 4.35156L16.2716 14.2821L11.6117 14.2877Z" fill="#1487C9"/>
<path d="M6.89844 19.9974L9.33459 15.6653L11.6079 14.2869L16.2678 14.2812L6.89844 19.9974Z" fill="#017F36"/>
<path d="M0 15.641L6.91766 11.421L4.59197 10L2.42929 11.3203L0 15.641Z" fill="#984995"/>
<path d="M19.1848 13.8878C19.1312 13.9558 19.0608 14.0071 18.9762 14.0418C18.8895 14.0769 18.7967 14.0948 18.7031 14.0944C18.61 14.0957 18.5174 14.0802 18.4298 14.0488C18.3511 14.0203 18.2792 13.9759 18.2186 13.9184C18.1587 13.8608 18.1117 13.7913 18.0807 13.7144C18.047 13.6302 18.0303 13.5402 18.0313 13.4496C18.0313 13.3596 18.0469 13.2763 18.0792 13.1973C18.1101 13.1181 18.1551 13.0503 18.2115 12.9933C18.2679 12.9351 18.3356 12.8908 18.4115 12.8561C18.489 12.8228 18.5736 12.8048 18.6664 12.8048C18.7665 12.8048 18.8594 12.8173 18.9439 12.8421C19.0284 12.8671 19.1002 12.9088 19.1593 12.9671L19.0566 13.1404C19.0069 13.0956 18.9483 13.0615 18.8847 13.0404C18.8242 13.021 18.761 13.0112 18.6974 13.0114C18.6412 13.0114 18.5876 13.0224 18.5356 13.0433C18.4843 13.0638 18.4374 13.094 18.3975 13.1321C18.3567 13.1713 18.3245 13.2185 18.3031 13.2708C18.2792 13.3248 18.2679 13.3844 18.2679 13.4509C18.2679 13.5189 18.2805 13.5799 18.3044 13.6326C18.3285 13.6868 18.3608 13.7326 18.4017 13.7713C18.4425 13.8103 18.4904 13.8393 18.5453 13.8588C18.6003 13.8796 18.6581 13.8893 18.72 13.8893C18.796 13.8893 18.8651 13.8739 18.9242 13.8448C18.9827 13.8166 19.0353 13.7776 19.0792 13.7298L19.1848 13.8878ZM19.4748 14.0653V12.8311H19.6974V13.7506L20.4213 12.8311H20.6438V14.0654H20.4213V13.1459L19.6974 14.0654L19.4748 14.0653ZM22.1183 13.8878C22.0636 13.9563 21.9917 14.0094 21.91 14.0418C21.8232 14.0769 21.7303 14.0948 21.6366 14.0944C21.5436 14.0957 21.4511 14.0802 21.3635 14.0488C21.2848 14.0203 21.2128 13.9759 21.1521 13.9184C21.0923 13.8608 21.0453 13.7913 21.0142 13.7144C20.9806 13.6302 20.9638 13.5402 20.9649 13.4496C20.9649 13.3596 20.9804 13.2763 21.0127 13.1973C21.0438 13.1181 21.0889 13.0503 21.1451 12.9933C21.2015 12.9351 21.2691 12.8908 21.3451 12.8561C21.4254 12.8209 21.5123 12.8034 21.6 12.8048C21.7001 12.8048 21.793 12.8173 21.8775 12.8421C21.962 12.8671 22.0338 12.9088 22.0931 12.9671L21.9901 13.1404C21.9405 13.0955 21.882 13.0615 21.8184 13.0404C21.7579 13.021 21.6947 13.0112 21.6311 13.0114C21.5193 13.0118 21.4118 13.055 21.331 13.1321C21.2906 13.1716 21.2585 13.2187 21.2366 13.2708C21.2127 13.3248 21.2015 13.3844 21.2015 13.4509C21.2015 13.5189 21.2142 13.5799 21.2382 13.6326C21.2621 13.6868 21.2944 13.7326 21.3352 13.7713C21.3761 13.8103 21.4241 13.8393 21.479 13.8588C21.5339 13.8781 21.5916 13.8893 21.6536 13.8893C21.7297 13.8893 21.7973 13.8739 21.8577 13.8448C21.9163 13.8166 21.9689 13.7776 22.0127 13.7298L22.1183 13.8878ZM22.2325 12.8311H23.3746V13.0503H22.9155V14.0653H22.6929V13.0503H22.2338V12.8311H22.2325Z" fill="#0A0A0A"/>
<path fill-rule="evenodd" clip-rule="evenodd" d="M24.4083 14.0542C24.4928 14.0279 24.5646 13.9875 24.6265 13.9322L24.5589 13.7602C24.5181 13.7964 24.4632 13.8269 24.397 13.8519C24.3308 13.8769 24.2561 13.8892 24.1745 13.8892C24.0519 13.8892 23.9505 13.8574 23.8702 13.7922C23.79 13.7269 23.7463 13.6355 23.7365 13.5189H24.6998C24.7097 13.4759 24.7139 13.4274 24.7139 13.3705C24.7139 13.2859 24.6983 13.2097 24.6673 13.1404C24.6385 13.073 24.5964 13.0122 24.5435 12.9614C24.4898 12.911 24.4266 12.8719 24.3576 12.8464C24.2853 12.8184 24.2083 12.8043 24.1308 12.8047C24.0265 12.8047 23.935 12.8227 23.8548 12.856C23.779 12.8878 23.7104 12.9345 23.6533 12.9934C23.5978 13.0519 23.5552 13.1213 23.5281 13.1972C23.4983 13.278 23.4835 13.3635 23.4844 13.4495C23.4844 13.5467 23.5013 13.6354 23.5323 13.7145C23.5624 13.7912 23.6085 13.8607 23.6675 13.9184C23.7252 13.975 23.7955 14.0182 23.8787 14.0487C23.9678 14.0801 24.0617 14.0956 24.1562 14.0944C24.2418 14.0938 24.3268 14.0802 24.4083 14.0542ZM23.8449 13.1042C23.9139 13.0419 24.0054 13.0114 24.1209 13.0114C24.2294 13.0114 24.3167 13.0405 24.3801 13.0989C24.4436 13.157 24.4772 13.2375 24.4829 13.34H23.7224C23.7332 13.2493 23.7767 13.1654 23.8449 13.1042Z" fill="#0A0A0A"/>
<path d="M25.0234 12.8281H25.2263L25.708 13.4398L26.1642 12.8281H26.3613V14.0625H26.1389V13.1625L25.7051 13.7351H25.6966L25.246 13.1623V14.0623H25.0234V12.8281Z" fill="#0A0A0A"/>
<path fill-rule="evenodd" clip-rule="evenodd" d="M26.9606 12.8355C26.8931 12.8531 26.8285 12.8806 26.7691 12.9172L26.8282 13.0922C26.8789 13.0672 26.9296 13.0464 26.9804 13.0284C27.0311 13.0102 27.0958 13.0019 27.1733 13.0019C27.2352 13.0019 27.2846 13.0117 27.3226 13.031C27.3606 13.049 27.3887 13.0769 27.4085 13.1102C27.4282 13.1435 27.4409 13.185 27.448 13.2335C27.455 13.282 27.4578 13.3347 27.4578 13.3917C27.4123 13.3601 27.3604 13.3388 27.3057 13.3292C27.2528 13.3187 27.1991 13.3131 27.1452 13.3125C27.0789 13.3125 27.017 13.3224 26.9578 13.3389C26.8987 13.3555 26.848 13.3805 26.8071 13.4139C26.7654 13.4471 26.7318 13.4893 26.7086 13.5372C26.6837 13.5897 26.6712 13.647 26.6719 13.705C26.6719 13.8257 26.7072 13.92 26.7775 13.9867C26.848 14.0532 26.9409 14.0864 27.0563 14.0864C27.1606 14.0864 27.2438 14.0684 27.307 14.0324C27.3705 13.9962 27.4212 13.9547 27.4578 13.9075V14.067H27.6662V13.3099C27.6662 13.1489 27.6311 13.0242 27.5593 12.9367C27.4888 12.8494 27.3635 12.805 27.186 12.805C27.107 12.805 27.0324 12.816 26.9606 12.8355ZM27.3327 13.8355C27.2819 13.8715 27.2157 13.888 27.134 13.888C27.0622 13.888 27.0058 13.87 26.9665 13.8354C26.927 13.7994 26.9072 13.7522 26.9072 13.6939C26.9072 13.6594 26.9142 13.6302 26.9298 13.6039C26.9454 13.5775 26.9665 13.5567 26.9904 13.54C27.0166 13.5226 27.0456 13.5099 27.0763 13.5025C27.1087 13.4942 27.141 13.49 27.1748 13.49C27.2848 13.49 27.379 13.5164 27.4565 13.5719V13.7285C27.42 13.7693 27.3784 13.8053 27.3327 13.8355ZM29.6311 12.3972C29.6761 12.3765 29.7183 12.3419 29.7578 12.2905L29.6366 12.1172C29.6056 12.1589 29.5705 12.1879 29.531 12.2032C29.4891 12.2195 29.4457 12.2315 29.4014 12.2392L29.3593 12.2467C29.3226 12.253 29.2833 12.26 29.2409 12.267C29.173 12.2795 29.1069 12.3 29.0438 12.328C28.9437 12.371 28.8635 12.4292 28.8029 12.5027C28.7424 12.5762 28.6945 12.6594 28.662 12.751C28.6291 12.8439 28.607 12.9402 28.5959 13.038C28.5845 13.138 28.579 13.2335 28.579 13.325C28.579 13.443 28.5944 13.5497 28.6254 13.6454C28.6565 13.7412 28.7 13.8215 28.7578 13.8867C28.8155 13.9534 28.8846 14.0034 28.9663 14.0394C29.048 14.0754 29.1395 14.0934 29.2423 14.0934C29.3367 14.0934 29.424 14.0754 29.5029 14.042C29.5789 14.01 29.6478 13.9634 29.7057 13.9049C29.7619 13.8479 29.8071 13.7799 29.8381 13.7037C29.8704 13.6274 29.886 13.5455 29.886 13.4595C29.886 13.3667 29.8719 13.2822 29.8451 13.2072C29.8205 13.1357 29.7811 13.0701 29.7296 13.0145C29.678 12.9599 29.615 12.9172 29.545 12.8895C29.468 12.8593 29.3857 12.8442 29.3029 12.8452C29.2493 12.8452 29.1973 12.8522 29.1465 12.866C29.0972 12.8799 29.0499 12.8999 29.0056 12.9257C28.9627 12.9502 28.9234 12.9805 28.8888 13.0157C28.855 13.0505 28.8269 13.0894 28.8071 13.1337H28.8014C28.8058 13.0769 28.8128 13.0187 28.8254 12.959C28.8381 12.8994 28.8563 12.8424 28.8804 12.7884C28.9044 12.7344 28.9353 12.6857 28.9733 12.6414C29.0141 12.5966 29.064 12.5611 29.1198 12.5374C29.1811 12.5083 29.246 12.4873 29.3127 12.475L29.3569 12.467C29.4009 12.459 29.4429 12.4514 29.4831 12.443C29.5367 12.432 29.5859 12.4179 29.6311 12.3972ZM28.848 13.583C28.8262 13.513 28.8157 13.44 28.817 13.3667C28.8264 13.3246 28.8436 13.2847 28.8677 13.2489C28.8916 13.2114 28.9226 13.1782 28.9593 13.1489C29.042 13.0843 29.1442 13.0497 29.2493 13.0505C29.3804 13.0505 29.4789 13.0907 29.5479 13.1699C29.617 13.2502 29.6508 13.35 29.6508 13.4707C29.6508 13.5304 29.6394 13.5845 29.6199 13.6344C29.6008 13.6835 29.5721 13.7284 29.5353 13.7662C29.4985 13.8041 29.4545 13.8342 29.4058 13.8549C29.3551 13.877 29.3 13.8882 29.2381 13.8882C29.1762 13.8882 29.1198 13.8757 29.0677 13.8507C29.016 13.8262 28.9703 13.7907 28.9338 13.7467C28.8957 13.6977 28.8666 13.6422 28.848 13.583ZM31.5929 12.8314H31.3703V14.0657H31.5929V12.8314ZM30.207 12.8314H30.4296V13.2017H30.6352C30.7323 13.2017 30.8111 13.2142 30.8746 13.2377C30.938 13.2614 30.9887 13.2932 31.0267 13.332C31.0647 13.3709 31.0915 13.4167 31.107 13.4679C31.1224 13.5192 31.131 13.5719 31.131 13.6274C31.131 13.6829 31.1224 13.7357 31.1042 13.7884C31.0873 13.841 31.0577 13.8867 31.0182 13.9284C30.9788 13.97 30.9253 14.0034 30.8577 14.0284C30.7901 14.0532 30.7084 14.067 30.6098 14.067H30.2056V12.8314H30.207ZM30.4296 13.4082V13.8604H30.5916C30.7029 13.8604 30.7817 13.841 30.8267 13.802C30.8719 13.7632 30.8943 13.7079 30.8943 13.6344C30.8943 13.5594 30.8704 13.5027 30.8254 13.4637C30.7788 13.4249 30.7014 13.4054 30.5944 13.4054H30.4296V13.4082Z" fill="#0A0A0A"/>
<path d="M33.0676 13.8878C33.014 13.9558 32.9436 14.0071 32.859 14.0418C32.7723 14.0769 32.6795 14.0948 32.5859 14.0944C32.4928 14.0957 32.4002 14.0802 32.3126 14.0488C32.2339 14.0203 32.162 13.976 32.1014 13.9184C32.0415 13.8608 31.9945 13.7913 31.9633 13.7144C31.9298 13.6302 31.9131 13.5402 31.9141 13.4496C31.9141 13.3596 31.9295 13.2763 31.962 13.1973C31.9929 13.1181 32.038 13.0503 32.0944 12.9933C32.1508 12.9351 32.2182 12.8908 32.2944 12.8561C32.3746 12.8209 32.4616 12.8034 32.5493 12.8048C32.6492 12.8048 32.7422 12.8173 32.8267 12.8421C32.9113 12.8671 32.9831 12.9088 33.0421 12.9671L32.9394 13.1404C32.8897 13.0956 32.8311 13.0615 32.7675 13.0404C32.707 13.021 32.6438 13.0112 32.5802 13.0114C32.524 13.0114 32.4704 13.0224 32.4182 13.0433C32.367 13.0638 32.3202 13.094 32.2803 13.1321C32.2398 13.1715 32.2077 13.2187 32.1859 13.2708C32.162 13.3248 32.1508 13.3844 32.1508 13.4509C32.1508 13.5189 32.1633 13.5799 32.1872 13.6326C32.2112 13.6868 32.2436 13.7326 32.2845 13.7713C32.3253 13.8103 32.3732 13.8393 32.4281 13.8588C32.4831 13.8781 32.5409 13.8893 32.6028 13.8893C32.6788 13.8893 32.7464 13.8739 32.807 13.8448C32.8655 13.8166 32.9181 13.7776 32.962 13.7298L33.0676 13.8878ZM33.1816 12.8311H34.3238V13.0503H33.8646V14.0653H33.6421V13.0503H33.1831V12.8311H33.1816Z" fill="#0A0A0A"/>
<path fill-rule="evenodd" clip-rule="evenodd" d="M34.7929 12.8326H34.5703V14.6159H34.7929V14.0099C34.8379 14.0391 34.8915 14.0599 34.9534 14.0738C35.0153 14.0876 35.0801 14.0944 35.1464 14.0944C35.245 14.0944 35.3337 14.0764 35.414 14.0433C35.491 14.0105 35.5609 13.9629 35.6195 13.9033C35.6773 13.8434 35.7209 13.7741 35.7519 13.6923C35.7829 13.6106 35.7984 13.5231 35.7984 13.4303C35.7984 13.3386 35.7844 13.2541 35.7576 13.1778C35.7324 13.1053 35.6931 13.0384 35.6421 12.9809C35.592 12.9249 35.5299 12.8808 35.4604 12.8519C35.3843 12.8194 35.3022 12.8033 35.2195 12.8048C35.1323 12.8048 35.0506 12.8214 34.9732 12.8548C34.8957 12.8881 34.8351 12.9281 34.7929 12.9781V12.8326ZM34.9479 13.0614C35.0113 13.0281 35.0803 13.0114 35.1549 13.0114C35.2197 13.0114 35.2774 13.0211 35.3296 13.0419C35.3804 13.0628 35.4225 13.0919 35.4578 13.1308C35.493 13.1696 35.5198 13.2141 35.5367 13.2666C35.5549 13.3193 35.5635 13.3763 35.5635 13.4386C35.5635 13.5053 35.5521 13.5648 35.5325 13.6203C35.514 13.6729 35.4847 13.7211 35.4465 13.7618C35.408 13.802 35.3615 13.8336 35.3099 13.8546C35.2524 13.8786 35.1905 13.8904 35.1281 13.8893C35.0677 13.8893 35.0113 13.8824 34.9578 13.8686C34.8991 13.8527 34.8435 13.8274 34.7931 13.7936V13.1819C34.8324 13.1349 34.8846 13.0948 34.9479 13.0614ZM37.5054 12.8324H37.2828V14.0668H37.5054V12.8324ZM36.1181 12.8324H36.3407V13.2028H36.5462C36.6435 13.2028 36.7223 13.2153 36.7857 13.2388C36.8491 13.2624 36.8999 13.2943 36.9378 13.3331C36.9758 13.3719 37.0026 13.4178 37.018 13.4689C37.0336 13.5203 37.0419 13.5729 37.0419 13.6284C37.0419 13.6839 37.0336 13.7368 37.0153 13.7894C36.9984 13.8421 36.9688 13.8878 36.9293 13.9294C36.89 13.9711 36.8364 14.0044 36.7688 14.0294C36.7012 14.0543 36.6195 14.0681 36.5209 14.0681H36.1168V12.8324H36.1181ZM36.3422 13.4093V13.8614H36.5042C36.6153 13.8614 36.6943 13.8421 36.7394 13.8031C36.7844 13.7643 36.807 13.7089 36.807 13.6354C36.807 13.5604 36.783 13.5038 36.738 13.4648C36.6915 13.4259 36.614 13.4064 36.5071 13.4064H36.3422V13.4093Z" fill="#0A0A0A"/>
<path d="M38.5659 13.4231L39.0419 14.0625H38.7688L38.4011 13.5631L38.0279 14.0625H37.7688L38.2419 13.4341L37.7969 12.8281H38.0702L38.4096 13.2941L38.7546 12.8281H39.0138L38.5659 13.4231ZM19.015 15.588H18.332V16.617H18.1094V15.3828H19.2374V16.617H19.015V15.588ZM20.5007 15.6018H20.0613L20.0471 15.8098C20.0317 15.986 20.0106 16.1275 19.981 16.2355C19.9514 16.3438 19.9147 16.427 19.8726 16.4851C19.8304 16.5435 19.781 16.5836 19.7246 16.6031C19.6664 16.6241 19.6049 16.6345 19.543 16.6336L19.5261 16.42C19.55 16.4213 19.5782 16.4158 19.6091 16.402C19.6403 16.3881 19.6712 16.3576 19.7007 16.312C19.7303 16.2646 19.7571 16.1981 19.781 16.1121C19.8049 16.0248 19.8205 15.9111 19.8289 15.7681L19.8515 15.384H20.7233V16.6183H20.5007V15.6018Z" fill="#0A0A0A"/>
<path fill-rule="evenodd" clip-rule="evenodd" d="M21.3278 15.3899C21.2558 15.4092 21.1911 15.4369 21.1362 15.4715L21.1954 15.6464C21.2461 15.6214 21.2968 15.6005 21.3474 15.5825C21.3981 15.5645 21.463 15.5562 21.5403 15.5562C21.6024 15.5562 21.6516 15.5659 21.6896 15.5852C21.7278 15.6034 21.7559 15.631 21.7757 15.6644C21.7952 15.6977 21.808 15.7394 21.815 15.7877C21.822 15.8364 21.8249 15.889 21.8249 15.9459C21.7793 15.9143 21.7274 15.893 21.6727 15.8835C21.6199 15.8731 21.5661 15.8675 21.5122 15.8669C21.4461 15.8669 21.384 15.8765 21.325 15.8932C21.2657 15.9099 21.215 15.9349 21.1742 15.9682C21.1325 16.0015 21.0988 16.0436 21.0756 16.0915C21.0508 16.144 21.0384 16.2014 21.0391 16.2594C21.0391 16.3799 21.0742 16.4744 21.1447 16.5409C21.215 16.6074 21.308 16.6407 21.4235 16.6407C21.5278 16.6407 21.6108 16.6227 21.6742 16.5865C21.7375 16.5505 21.7882 16.5089 21.8249 16.4617V16.6212H22.0334V15.864C22.0334 15.7032 21.9981 15.5784 21.9263 15.491C21.8558 15.4035 21.7305 15.3594 21.5531 15.3594C21.477 15.3594 21.4012 15.3698 21.3278 15.3899ZM21.701 16.3895C21.6505 16.4257 21.5842 16.4424 21.5025 16.4424C21.4292 16.4424 21.3743 16.4244 21.335 16.3895C21.2955 16.3535 21.2757 16.3064 21.2757 16.2482C21.2757 16.2135 21.2828 16.1844 21.2983 16.158C21.3137 16.1317 21.335 16.1109 21.3589 16.0942C21.3829 16.0775 21.4123 16.065 21.4448 16.0567C21.477 16.0484 21.5101 16.0443 21.5434 16.0444C21.6532 16.0444 21.7475 16.0707 21.825 16.126V16.2827C21.7885 16.3235 21.7468 16.3594 21.701 16.3895Z" fill="#0A0A0A"/>
<path d="M22.25 15.3906H23.3923V15.6096H22.933V16.6248H22.7106V15.6098H22.2515V15.3906H22.25Z" fill="#0A0A0A"/>
<path fill-rule="evenodd" clip-rule="evenodd" d="M24.4319 16.6105C24.5164 16.5841 24.5882 16.5438 24.6501 16.4885L24.5825 16.3165C24.5417 16.3526 24.4868 16.3831 24.4205 16.4081C24.3544 16.4331 24.2797 16.4455 24.1981 16.4455C24.0755 16.4455 23.9741 16.4136 23.8938 16.3485C23.8134 16.2833 23.7699 16.1918 23.7601 16.0751H24.7234C24.7331 16.0323 24.7375 15.9836 24.7375 15.9268C24.7375 15.8423 24.7219 15.766 24.6909 15.6966C24.6621 15.6293 24.6199 15.5685 24.5669 15.5178C24.5134 15.4674 24.4502 15.4282 24.3811 15.4026C24.3088 15.3747 24.2319 15.3606 24.1544 15.361C24.0501 15.361 23.9586 15.379 23.8784 15.4123C23.8026 15.444 23.734 15.4907 23.6769 15.5496C23.6214 15.6082 23.5787 15.6776 23.5515 15.7535C23.5218 15.8343 23.5071 15.9198 23.5078 16.0058C23.5078 16.103 23.5247 16.1916 23.5557 16.2708C23.5868 16.3498 23.6332 16.4178 23.6909 16.4746C23.7487 16.5315 23.8191 16.5745 23.9023 16.605C23.9913 16.6365 24.0852 16.652 24.1796 16.6508C24.2628 16.6508 24.3473 16.6368 24.4319 16.6105ZM23.8672 15.6591C23.9361 15.5968 24.0277 15.5663 24.1432 15.5663C24.2531 15.5663 24.339 15.5968 24.4024 15.6536C24.4657 15.712 24.4995 15.7923 24.5052 15.895H23.7447C23.7554 15.8042 23.7989 15.7203 23.8672 15.6591ZM24.8459 15.3888H25.1276L25.557 15.9838L25.098 16.623H24.8248L25.3063 15.9836L24.8459 15.3888ZM25.6119 15.3888H25.8345V16.623H25.6119V15.3888ZM26.6302 16.623L26.1401 15.9836L26.5979 15.3886H26.3217L25.8894 15.9836L26.3542 16.623H26.6302ZM27.6471 16.6105C27.7316 16.5841 27.8034 16.5438 27.8653 16.4885L27.7977 16.3165C27.7569 16.3526 27.702 16.3831 27.6359 16.4081C27.5696 16.4331 27.495 16.4455 27.4133 16.4455C27.2908 16.4455 27.1893 16.4136 27.109 16.3485C27.0288 16.2833 26.9852 16.1918 26.9753 16.0751H27.9386C27.9485 16.0323 27.9527 15.9836 27.9527 15.9268C27.9527 15.8423 27.9373 15.766 27.9062 15.6966C27.8773 15.6294 27.8352 15.5686 27.7823 15.5178C27.7287 15.4674 27.6655 15.4282 27.5964 15.4026C27.5241 15.3747 27.4471 15.3606 27.3696 15.361C27.2655 15.361 27.174 15.379 27.0936 15.4123C27.0179 15.444 26.9494 15.4908 26.8923 15.5496C26.8367 15.6081 26.794 15.6776 26.7669 15.7535C26.7372 15.8343 26.7224 15.9198 26.7232 16.0058C26.7232 16.103 26.7401 16.1916 26.7711 16.2708C26.8021 16.3498 26.8486 16.4178 26.9063 16.4746C26.9641 16.5315 27.0344 16.5745 27.1176 16.605C27.2066 16.6365 27.3005 16.652 27.395 16.6508C27.4806 16.6502 27.5656 16.6366 27.6471 16.6105ZM27.0824 15.6591C27.1515 15.5968 27.2431 15.5663 27.3586 15.5663C27.467 15.5663 27.5542 15.5968 27.6176 15.6536C27.6811 15.712 27.7149 15.7923 27.7204 15.895H26.9599C26.9706 15.8042 27.0142 15.7203 27.0824 15.6591ZM28.8556 14.9741C28.7246 14.9741 28.6528 14.902 28.6416 14.7578H28.4317C28.4317 14.8131 28.4416 14.8631 28.4598 14.9103C28.4782 14.9575 28.505 14.9976 28.5401 15.031C28.5753 15.0643 28.6205 15.0906 28.6725 15.1113C28.7246 15.1321 28.7852 15.1418 28.8541 15.1418C28.9175 15.1418 28.974 15.1321 29.0247 15.1113C29.0754 15.092 29.1175 15.0643 29.1542 15.031C29.1893 14.9976 29.2176 14.9575 29.2372 14.9103C29.257 14.8631 29.2668 14.8131 29.2668 14.7578H29.0585C29.0486 14.902 28.9795 14.9741 28.8556 14.9741ZM28.2541 15.3886V16.623H28.4767L29.2006 15.7035V16.623H29.4232V15.3886H29.2006L28.4767 16.3081V15.3886H28.2541Z" fill="#0A0A0A"/>
</g>
<defs>
<clipPath id="clip0_4791_69880">
<rect width="40" height="20" fill="white"/>
</clipPath>
</defs>
</svg>
