<svg width="30" height="30" viewBox="0 0 30 30" fill="none" xmlns="http://www.w3.org/2000/svg">
<path d="M16.9038 0C18.5607 0 19.9038 1.34315 19.9038 3V7.09616C19.9038 8.75301 21.247 10.0962 22.9038 10.0962H27C28.6569 10.0962 30 11.4393 30 13.0962V16.9038C30 18.5607 28.6569 19.9038 27 19.9038H22.9038C21.247 19.9038 19.9038 21.247 19.9038 22.9038V27C19.9038 28.6569 18.5607 30 16.9038 30H13.0962C11.4393 30 10.0962 28.6569 10.0962 27V22.9038C10.0962 21.247 8.75301 19.9038 7.09615 19.9038H3C1.34314 19.9038 0 18.5607 0 16.9038V13.0962C0 11.4393 1.34315 10.0962 3 10.0962H7.09616C8.75301 10.0962 10.0962 8.75301 10.0962 7.09615V3C10.0962 1.34314 11.4393 0 13.0962 0H16.9038Z" fill="url(#paint0_linear_480_9251)" fill-opacity="0.6"/>
<path d="M16.4395 9.84442C16.4395 10.3749 16.6502 10.8836 17.0252 11.2586L18.6818 12.9152C19.0569 13.2903 19.5656 13.501 20.096 13.501H25.6709C26.4675 13.501 27.1133 14.1468 27.1133 14.9434C27.1133 15.74 26.4675 16.3857 25.6709 16.3857H20.0941C19.5636 16.3857 19.0549 16.5965 18.6798 16.9715L17.0252 18.6261C16.6502 19.0012 16.4395 19.5099 16.4395 20.0403V25.6162C16.4395 26.4128 15.7937 27.0586 14.9971 27.0586C14.2005 27.0586 13.5547 26.4128 13.5547 25.6162V20.0384C13.5547 19.508 13.344 18.9992 12.9689 18.6242L11.3163 16.9715C10.9412 16.5965 10.4325 16.3857 9.90204 16.3857H4.3252C3.52859 16.3857 2.88281 15.74 2.88281 14.9434C2.88281 14.1468 3.52859 13.501 4.3252 13.501H9.90009C10.4305 13.501 10.9392 13.2903 11.3143 12.9152L12.9689 11.2606C13.344 10.8855 13.5547 10.3768 13.5547 9.84638V4.27051C13.5547 3.4739 14.2005 2.82812 14.9971 2.82812C15.7937 2.82812 16.4395 3.4739 16.4395 4.27051V9.84442Z" fill="#FF3C02"/>
<defs>
<linearGradient id="paint0_linear_480_9251" x1="24.2308" y1="5.76923" x2="15" y2="15" gradientUnits="userSpaceOnUse">
<stop stop-color="#333333"/>
<stop offset="1" stop-color="#333333" stop-opacity="0"/>
</linearGradient>
</defs>
</svg>
