<svg width="30" height="30" viewBox="0 0 30 30" fill="none" xmlns="http://www.w3.org/2000/svg">
<path d="M12.4502 2C12.6157 2.00011 12.7499 2.13427 12.75 2.2998V10.75C12.75 11.0261 12.9739 11.25 13.25 11.25H21.7002C21.8657 11.2501 21.9999 11.3843 22 11.5498V12.4502C21.9999 12.6157 21.8657 12.7499 21.7002 12.75H13.25C12.9739 12.75 12.75 12.9739 12.75 13.25V21.7002C12.7499 21.8657 12.6157 21.9999 12.4502 22H11.5498C11.3843 21.9999 11.2501 21.8657 11.25 21.7002V13.25C11.25 12.9739 11.0261 12.75 10.75 12.75H2.2998C2.13427 12.7499 2.00011 12.6157 2 12.4502V11.5498C2.0001 11.3843 2.13427 11.2501 2.2998 11.25H10.75C11.0261 11.25 11.25 11.0261 11.25 10.75V2.2998C11.2501 2.13427 11.3843 2.00011 11.5498 2H12.4502Z" fill="#333333"/>
</svg>
