<svg width="17" height="16" viewBox="0 0 17 16" fill="none" xmlns="http://www.w3.org/2000/svg">
<path d="M8.80273 1.33594C8.91315 1.33594 9.00286 1.42574 9.00293 1.53613V7.00293C9.00293 7.27907 9.22679 7.50293 9.50293 7.50293H14.9697C15.0801 7.503 15.1699 7.59271 15.1699 7.70312V8.30273C15.1699 8.41315 15.0801 8.50286 14.9697 8.50293H9.50293C9.22679 8.50293 9.00293 8.72679 9.00293 9.00293V14.4697C9.00286 14.5801 8.91315 14.6699 8.80273 14.6699H8.20312C8.09271 14.6699 8.003 14.5801 8.00293 14.4697V9.00293C8.00293 8.72679 7.77907 8.50293 7.50293 8.50293H2.03613C1.92574 8.50286 1.83594 8.41315 1.83594 8.30273V7.70312C1.83594 7.59271 1.92574 7.503 2.03613 7.50293H7.50293C7.77907 7.50293 8.00293 7.27907 8.00293 7.00293V1.53613C8.003 1.42574 8.09271 1.33594 8.20312 1.33594H8.80273Z" fill="#333333"/>
</svg>
