<svg width="24" height="24" viewBox="0 0 24 24" fill="none" xmlns="http://www.w3.org/2000/svg">
<path d="M13.9152 7.82797C13.6906 7.66531 13.4103 7.54766 13.0742 7.47547C12.7381 7.40328 12.3453 7.36719 11.8967 7.36719H10.3906V11.5086H11.7284C12.193 11.5086 12.6031 11.4725 12.958 11.4003C13.3133 11.3281 13.6123 11.2109 13.8552 11.0478C14.098 10.8852 14.2808 10.67 14.4041 10.4028C14.5269 10.1356 14.5883 9.80984 14.5883 9.42547C14.5883 9.04625 14.532 8.72609 14.42 8.46406C14.308 8.20297 14.1397 7.99063 13.9152 7.82797Z" fill="#0A0A0A" fill-opacity="0.4"/>
<path d="M23.7567 6.94113C23.4141 3.39176 20.6409 0.58582 17.1412 0.247852C13.7217 -0.0826172 10.2783 -0.0826172 6.85875 0.247852C3.35906 0.58582 0.585937 3.39176 0.243281 6.94113C-0.0810937 10.3058 -0.0810937 13.6939 0.243281 17.0582C0.585469 20.6075 3.35859 23.4135 6.85828 23.7519C10.2778 24.0824 13.7212 24.0824 17.1408 23.7519C20.6405 23.4139 23.4136 20.608 23.7558 17.0582C24.0811 13.6939 24.0811 10.3058 23.7567 6.94113ZM15.6089 10.79C15.4298 11.196 15.1697 11.5349 14.828 11.8072C14.4862 12.0796 14.0695 12.2839 13.5783 12.4199C13.087 12.5563 12.5259 12.6243 11.8959 12.6243H10.3898V14.2827H12.9253C13.2328 14.2827 13.4822 14.5321 13.4822 14.8396C13.4822 15.1471 13.2328 15.3964 12.9253 15.3964H10.3898V17.0868C10.3898 17.4496 10.0959 17.7435 9.73312 17.7435C9.37031 17.7435 9.07641 17.4496 9.07641 17.0868V15.3964H8.67984C8.37234 15.3964 8.12297 15.1471 8.12297 14.8396C8.12297 14.5321 8.37234 14.2827 8.67984 14.2827H9.07641V12.6243H8.67984C8.37234 12.6243 8.12297 12.3749 8.12297 12.0674C8.12297 11.7599 8.37234 11.5105 8.67984 11.5105H9.07641V6.95848C9.07641 6.57035 9.39141 6.25535 9.77953 6.25535H12.1847C12.6759 6.25535 13.1447 6.31816 13.5905 6.44379C14.0362 6.56941 14.4291 6.7602 14.768 7.0166C15.1069 7.27301 15.3769 7.59598 15.577 7.98598C15.7772 8.37598 15.8775 8.83535 15.8775 9.36363C15.877 9.90926 15.788 10.3846 15.6089 10.79Z" fill="#0A0A0A" fill-opacity="0.4"/>
</svg>
