<svg width="24" height="24" viewBox="0 0 24 24" fill="none" xmlns="http://www.w3.org/2000/svg">
<path d="M10.9023 2C15.8189 2.00006 19.8047 5.98581 19.8047 10.9023C19.8047 13.0938 19.0104 15.0984 17.6973 16.6494L21.7822 20.7334C22.0718 21.0231 22.0719 21.4935 21.7822 21.7832C21.4926 22.0729 21.0221 22.0728 20.7324 21.7832L16.6484 17.6982C15.0976 19.0109 13.0933 19.8047 10.9023 19.8047C5.98581 19.8047 2.00006 15.8189 2 10.9023C2 5.98578 5.98578 2 10.9023 2ZM10.9023 3.4834C6.8052 3.4834 3.4834 6.8052 3.4834 10.9023C3.48346 14.9994 6.80524 18.3203 10.9023 18.3203C14.9994 18.3203 18.3203 14.9994 18.3203 10.9023C18.3203 6.80524 14.9994 3.48346 10.9023 3.4834Z" fill="#333333"/>
</svg>
