<svg width="24" height="24" viewBox="0 0 24 24" fill="none" xmlns="http://www.w3.org/2000/svg">
<path d="M14.7179 4.36458C14.7179 4.09114 14.6091 3.82878 14.4158 3.63542C14.2224 3.44205 13.9601 3.33333 13.6866 3.33333H10.2908C10.0174 3.33342 9.75493 3.44212 9.56163 3.63542C9.3684 3.82877 9.26042 4.09122 9.26042 4.36458V5.39583H14.7179V4.36458ZM6.6276 19.6962V19.6979L6.63802 19.7951C6.67155 20.0201 6.77897 20.2285 6.94531 20.3863C7.13554 20.5665 7.38814 20.667 7.65017 20.6667H16.3273L16.4253 20.6623C16.6517 20.6409 16.8657 20.544 17.0321 20.3863C17.2222 20.2061 17.336 19.9595 17.3498 19.6979V19.6962L18.0755 6.72917H5.90278L6.6276 19.6962ZM8.76042 8.60417C9.03656 8.60417 9.26042 8.82802 9.26042 9.10417V18.2908C9.26042 18.5669 9.03656 18.7908 8.76042 18.7908H8.42708C8.15094 18.7908 7.92708 18.5669 7.92708 18.2908V9.10417C7.92708 8.82802 8.15094 8.60417 8.42708 8.60417H8.76042ZM12.1554 8.60417C12.4315 8.60417 12.6554 8.82802 12.6554 9.10417V18.2908C12.6554 18.5669 12.4315 18.7908 12.1554 18.7908H11.822C11.5459 18.7908 11.322 18.5669 11.322 18.2908V9.10417C11.322 8.82802 11.5459 8.60417 11.822 8.60417H12.1554ZM15.5512 8.60417C15.8274 8.60417 16.0512 8.82802 16.0512 9.10417V18.2908C16.0512 18.5669 15.8274 18.7908 15.5512 18.7908H15.2179C14.9417 18.7908 14.7179 18.5669 14.7179 18.2908V9.10417C14.7179 8.82802 14.9417 8.60417 15.2179 8.60417H15.5512ZM16.0512 5.39583H19.9774C20.2536 5.39583 20.4774 5.61969 20.4774 5.89583V6.22917C20.4774 6.50531 20.2536 6.72917 19.9774 6.72917H19.4106L18.6814 19.7708C18.6491 20.3729 18.3865 20.9394 17.9488 21.3542C17.5106 21.7693 16.93 21.9998 16.3264 21.9991L7.65104 22C7.04756 22.0006 6.46676 21.7692 6.02865 21.3542C5.591 20.9395 5.32922 20.3728 5.29688 19.7708L4.56684 6.72917H4C3.72386 6.72917 3.5 6.50531 3.5 6.22917V5.89583C3.5 5.61969 3.72386 5.39583 4 5.39583H7.92708V4.36458C7.92708 3.7376 8.17564 3.13611 8.61892 2.69271C9.06227 2.24936 9.66382 2.00008 10.2908 2H13.6866C14.3137 2 14.9151 2.24929 15.3585 2.69271C15.8019 3.13612 16.0512 3.73752 16.0512 4.36458V5.39583Z" fill="#333333"/>
</svg>
