<svg width="24" height="24" viewBox="0 0 24 24" fill="none" xmlns="http://www.w3.org/2000/svg">
<circle cx="12.0009" cy="12.0009" r="5.04" fill="#FF3C02"/>
<path d="M0.867969 13.6517C1.34423 13.1354 2.15156 13.1032 2.66875 13.5785L3.00469 13.8831C4.48472 15.2101 5.85577 16.2165 7.15117 16.9339C7.56047 18.3128 8.14171 19.5005 8.84062 20.4076C6.47398 19.709 4.13157 18.246 1.70391 16.1322C1.56829 16.0141 1.43188 15.8939 1.2957 15.7718L0.942188 15.4505C0.424611 14.9749 0.391562 14.1685 0.867969 13.6517ZM21.3387 13.5785C21.8559 13.1032 22.6632 13.1354 23.1395 13.6517C23.616 14.1685 23.5838 14.9748 23.0662 15.4505L22.7117 15.7718C20.2466 17.9826 17.8746 19.5337 15.4832 20.3089C16.1758 19.3785 16.7443 18.1673 17.1414 16.7689C18.3523 16.0645 19.6321 15.1129 21.0037 13.8831L21.3387 13.5785Z" fill="#FF3C02"/>
<path d="M8.83184 3.59375C8.1334 4.50086 7.5524 5.68805 7.14337 7.06641C5.8481 7.78383 4.47675 8.78938 2.99688 10.1162L2.66095 10.4209C2.14375 10.8962 1.33642 10.8639 0.860164 10.3477C0.383743 9.83087 0.416801 9.02447 0.934383 8.54883L1.2879 8.22754C3.86113 5.91967 6.33347 4.33161 8.83184 3.59375ZM15.4764 3.69141C17.8675 4.46676 20.2392 6.01704 22.7039 8.22754L23.0584 8.54883C23.5761 9.02456 23.6084 9.83088 23.1316 10.3477C22.6554 10.8639 21.8481 10.8962 21.3309 10.4209L20.9959 10.1162C19.6245 8.88663 18.3444 7.93579 17.1336 7.23145C16.7366 5.83316 16.1687 4.62196 15.4764 3.69141Z" fill="#FF3C02"/>
</svg>
