<svg width="24" height="24" viewBox="0 0 24 24" fill="none" xmlns="http://www.w3.org/2000/svg">
<path d="M0 10.2398C0 9.87664 0.196892 9.54202 0.514357 9.36565L6.2069 6.20312V17.7893L1.48564 20.4123C0.819112 20.7825 0 20.3006 0 19.5381V10.2398Z" fill="#FF3C02"/>
<path d="M17.7969 6.20609L22.5181 3.58317C23.1847 3.21287 24.0038 3.69484 24.0038 4.45733V13.7556C24.0038 14.1188 23.8069 14.4534 23.4894 14.6298L17.7969 17.7923V6.20609Z" fill="#FF3C02"/>
<path d="M13.7602 -1.76449e-07C14.1234 -1.60574e-07 14.458 0.196892 14.6344 0.514357L17.7969 6.2069L6.21067 6.2069L3.58775 1.48564C3.21745 0.819111 3.69942 -6.16219e-07 4.46191 -5.8289e-07L13.7602 -1.76449e-07Z" fill="#FF3C02"/>
<path d="M17.7939 17.7969L20.4168 22.5181C20.7871 23.1847 20.3052 24.0038 19.5427 24.0038L10.2444 24.0038C9.88122 24.0038 9.5466 23.8069 9.37023 23.4894L6.20771 17.7969L17.7939 17.7969Z" fill="#FF3C02"/>
<path d="M12.0547 7.72656C12.3306 7.72666 12.5545 7.95068 12.5547 8.22656V10.6699L14.2822 8.94238C14.4774 8.74728 14.794 8.74748 14.9893 8.94238L15.0625 9.01562C15.2577 9.21087 15.2577 9.52739 15.0625 9.72266L13.334 11.4512H15.7783C16.0545 11.4512 16.2783 11.675 16.2783 11.9512V12.0547C16.2782 12.3307 16.0544 12.5547 15.7783 12.5547H13.334L15.0625 14.2832C15.2576 14.4785 15.2577 14.795 15.0625 14.9902L14.9893 15.0635C14.794 15.2584 14.4774 15.2585 14.2822 15.0635L12.5547 13.3359V15.7783C12.5547 16.0544 12.3307 16.2782 12.0547 16.2783H11.9512C11.675 16.2783 11.4512 16.0545 11.4512 15.7783V13.334L9.72266 15.0625C9.52739 15.2578 9.21089 15.2578 9.01562 15.0625L8.94238 14.9893C8.74747 14.794 8.74724 14.4774 8.94238 14.2822L10.6699 12.5547H8.22656C7.9506 12.5545 7.72666 12.3307 7.72656 12.0547V11.9512C7.72656 11.6751 7.95054 11.4513 8.22656 11.4512H10.6699L8.94238 9.72363C8.74712 9.52837 8.74712 9.21089 8.94238 9.01562L9.01562 8.94336C9.21089 8.7481 9.52739 8.7481 9.72266 8.94336L11.4512 10.6719V8.22656C11.4514 7.95062 11.6752 7.72656 11.9512 7.72656H12.0547Z" fill="#FF3C02"/>
</svg>
