<svg width="24" height="24" viewBox="0 0 24 24" fill="none" xmlns="http://www.w3.org/2000/svg">
<path d="M12 0C12.881 0.000134699 13.5947 0.714685 13.5947 1.5957V8.28418L18.2949 3.58398C18.8996 2.9793 19.8807 2.9793 20.4854 3.58398C21.0897 4.18857 21.0896 5.16881 20.4854 5.77344L15.7158 10.543H22.4736C23.3164 10.543 23.9999 11.2266 24 12.0693C24 12.9121 23.3164 13.5957 22.4736 13.5957H15.7158L20.4854 18.3652C21.0897 18.9699 21.0899 19.9501 20.4854 20.5547C19.8807 21.1594 18.8996 21.1594 18.2949 20.5547L13.5947 15.8535V22.4043C13.5947 23.2853 12.881 23.9999 12 24C11.1189 24 10.4043 23.2854 10.4043 22.4043V15.8545L5.7041 20.5547C5.0995 21.1592 4.11933 21.1591 3.51465 20.5547C2.90999 19.95 2.91004 18.9699 3.51465 18.3652L8.28418 13.5957H1.52637C0.683574 13.5957 -3.68397e-08 12.9121 0 12.0693C6.11218e-05 11.2266 0.683612 10.543 1.52637 10.543H8.28418L3.51465 5.77344C2.91008 5.16875 2.91 4.18863 3.51465 3.58398C4.1193 2.97939 5.09943 2.97943 5.7041 3.58398L10.4043 8.28418V1.5957C10.4043 0.714602 11.1189 0 12 0ZM8.28516 10.5439V13.5947L10.4043 15.8398H13.5947L15.7148 13.5947V10.5439L13.5947 8.28516H10.4043L8.28516 10.5439Z" fill="#FF3C02"/>
</svg>
