<svg width="24" height="24" viewBox="0 0 24 24" fill="none" xmlns="http://www.w3.org/2000/svg">
<path d="M8.13612 10.1978C8.56863 9.95902 9.11291 10.116 9.35169 10.5485C9.59045 10.981 9.43332 11.525 9.00087 11.7638L8.13612 10.1978ZM8.03175 23.2064C5.85215 21.9365 4.89508 19.2246 4.89503 16.7322C4.89502 14.2002 5.88265 11.4419 8.13612 10.1978L9.00087 11.7638C7.549 12.5654 6.68409 14.5359 6.68412 16.7323C6.68416 18.86 7.49585 20.7751 8.86608 21.6206L9.00069 21.6991C9.43321 21.9378 9.59036 22.482 9.35176 22.9145C9.11311 23.3471 8.56896 23.5042 8.13638 23.2656L8.03175 23.2064Z" fill="url(#paint0_linear_359_3196)"/>
<path d="M15.9889 13.8178C15.5564 14.0566 15.0121 13.8997 14.7733 13.4671C14.5346 13.0347 14.6917 12.4906 15.1241 12.2518L15.9889 13.8178ZM16.0933 0.809243C18.2728 2.07912 19.2299 4.79099 19.23 7.28341C19.23 9.81538 18.2423 12.5737 15.9889 13.8178L15.1241 12.2518C16.576 11.4503 17.4409 9.47973 17.4409 7.28335C17.4408 5.15558 16.6291 3.24051 15.2589 2.39499L15.1243 2.31648C14.6918 2.07782 14.5346 1.53366 14.7732 1.1011C15.0119 0.668543 15.556 0.511417 15.9886 0.750034L16.0933 0.809243Z" fill="url(#paint1_linear_359_3196)"/>
<path d="M11.6617 7.70422C12.0848 7.9594 12.221 8.50923 11.9658 8.93228C11.7107 9.3553 11.1609 9.49126 10.7379 9.23614L11.6617 7.70422ZM0.343792 14.1181C0.353744 11.5956 2.22375 9.41082 4.38223 8.16457C6.57497 6.89857 9.45759 6.37471 11.6617 7.70422L10.7379 9.23614C9.31781 8.37954 7.17883 8.61577 5.27672 9.71399C3.43404 10.7779 2.18139 12.4384 2.13425 14.0478L2.13357 14.2036C2.14314 14.6975 1.75047 15.1057 1.25655 15.1154C0.762624 15.125 0.354473 14.7323 0.34483 14.2383L0.343792 14.1181Z" fill="url(#paint2_linear_359_3196)"/>
<path d="M12.4554 16.3114C12.0324 16.0562 11.8962 15.5064 12.1514 15.0833C12.4065 14.6603 12.9563 14.5244 13.3793 14.7795L12.4554 16.3114ZM23.7734 9.8975C23.7634 12.42 21.8934 14.6048 19.735 15.8511C17.5422 17.1171 14.6596 17.6409 12.4554 16.3114L13.3793 14.7795C14.7994 15.6361 16.9384 15.3999 18.8405 14.3016C20.6831 13.2377 21.9358 11.5772 21.9829 9.96782L21.9836 9.81199C21.974 9.31809 22.3667 8.90991 22.8606 8.90027C23.3546 8.89066 23.7627 9.28335 23.7724 9.77728L23.7734 9.8975Z" fill="url(#paint3_linear_359_3196)"/>
<path d="M15.5959 9.51423C15.5865 10.0082 15.1784 10.4011 14.6844 10.3916C14.1905 10.3821 13.7979 9.97402 13.8073 9.48011L15.5959 9.51423ZM4.38236 2.91956C6.5719 1.66691 9.39898 2.194 11.5575 3.44016C13.7503 4.70614 15.6453 6.94063 15.5959 9.51423L13.8073 9.48011C13.8391 7.82199 12.5651 6.08769 10.6629 4.98953C8.82019 3.92568 6.75585 3.67109 5.33849 4.43498L5.20319 4.5123C4.78024 4.76755 4.23042 4.63157 3.97511 4.20865C3.71983 3.78569 3.85583 3.23588 4.27877 2.98056L4.38236 2.91956Z" fill="url(#paint4_linear_359_3196)"/>
<path d="M8.52906 14.5014C8.53854 14.0074 8.94659 13.6146 9.44055 13.624C9.93448 13.6335 10.3271 14.0416 10.3177 14.5355L8.52906 14.5014ZM19.7426 21.0961C17.5531 22.3487 14.726 21.8216 12.5675 20.5755C10.3747 19.3095 8.47975 17.075 8.52906 14.5014L10.3177 14.5355C10.2859 16.1936 11.5599 17.9279 13.4621 19.0261C15.3048 20.0899 17.3692 20.3445 18.7865 19.5806L18.9218 19.5033C19.3448 19.2481 19.8946 19.3841 20.1499 19.807C20.4052 20.2299 20.2692 20.7797 19.8462 21.0351L19.7426 21.0961Z" fill="url(#paint5_linear_359_3196)"/>
<defs>
<linearGradient id="paint0_linear_359_3196" x1="5.69832" y1="10.3427" x2="5.69832" y2="21.0645" gradientUnits="userSpaceOnUse">
<stop offset="0.524038" stop-color="#FF3C02"/>
<stop offset="1" stop-color="#FF3C02" stop-opacity="0"/>
</linearGradient>
<linearGradient id="paint1_linear_359_3196" x1="18.4267" y1="13.6729" x2="18.4267" y2="2.95116" gradientUnits="userSpaceOnUse">
<stop offset="0.524038" stop-color="#FF3C02"/>
<stop offset="1" stop-color="#FF3C02" stop-opacity="0"/>
</linearGradient>
<linearGradient id="paint2_linear_359_3196" x1="10.3175" y1="5.66533" x2="1.03213" y2="11.0262" gradientUnits="userSpaceOnUse">
<stop offset="0.524038" stop-color="#FF3C02"/>
<stop offset="1" stop-color="#FF3C02" stop-opacity="0"/>
</linearGradient>
<linearGradient id="paint3_linear_359_3196" x1="13.7997" y1="18.3503" x2="23.0851" y2="12.9894" gradientUnits="userSpaceOnUse">
<stop offset="0.524038" stop-color="#FF3C02"/>
<stop offset="1" stop-color="#FF3C02" stop-opacity="0"/>
</linearGradient>
<linearGradient id="paint4_linear_359_3196" x1="16.6895" y1="7.33046" x2="7.40412" y2="1.96957" gradientUnits="userSpaceOnUse">
<stop offset="0.524038" stop-color="#FF3C02"/>
<stop offset="1" stop-color="#FF3C02" stop-opacity="0"/>
</linearGradient>
<linearGradient id="paint5_linear_359_3196" x1="7.43554" y1="16.6852" x2="16.7209" y2="22.0461" gradientUnits="userSpaceOnUse">
<stop offset="0.524038" stop-color="#FF3C02"/>
<stop offset="1" stop-color="#FF3C02" stop-opacity="0"/>
</linearGradient>
</defs>
</svg>
